<svg id="圖層_1" data-name="圖層 1" xmlns="http://www.w3.org/2000/svg" viewBox="0 0 22.52 22.49"><defs><style>.cls-1{fill:#31599c;}</style></defs><title>工作區域 1</title><g id="DRcCds.tif"><path class="cls-1" d="M15.22,21.79V18.7c0-1.24,0-2.49,0-3.74,0-.45.13-.62.6-.63,1.76,0,1.76-.05,1.9-1.78,0-.35,0-.69.06-1.1H15.29a10,10,0,0,1,0-1.91c.05-.24.5-.51.81-.57a10.12,10.12,0,0,1,1.67,0c0-.91,0-1.77,0-2.63A.47.47,0,0,0,17.44,6,23.12,23.12,0,0,0,14,6.17a2.73,2.73,0,0,0-2.27,2.7c-.07.82-.08,1.65-.13,2.54H10v2.93c.33,0,.63,0,.93,0,.59-.08.72.2.71.73,0,2.21,0,4.43,0,6.65,0,.65-.24.77-.83.77A11.25,11.25,0,0,1,10,.07,11.14,11.14,0,0,1,22.33,9.19a11.17,11.17,0,0,1-6.47,12.34C15.7,21.61,15.52,21.67,15.22,21.79Z"/></g></svg>