<svg id="圖層_1" data-name="圖層 1" xmlns="http://www.w3.org/2000/svg" viewBox="0 0 28.35 19.84"><defs><style>.cls-1{fill:red;}.cls-2{fill:#fff;}</style></defs><title>工作區域 1</title><g id="aYgIqJ.tif"><path class="cls-1" d="M14.21,19.84l-3.89-.07q-1.39,0-2.79-.09c-.81,0-1.63-.09-2.44-.16a14.44,14.44,0,0,1-1.75-.24A3.5,3.5,0,0,1,.53,16.54a11.27,11.27,0,0,1-.29-1.92c-.06-.69-.13-1.39-.17-2.08C0,11.32,0,10.11,0,8.89c0-.51,0-1,.05-1.53S.15,6.08.21,5.45.37,4.19.47,3.57A3.66,3.66,0,0,1,2.24.92,3.55,3.55,0,0,1,3.69.44C4.42.36,5.16.27,5.9.22S7.35.13,8.07.1C9.27.06,10.48,0,11.68,0,13.47,0,15.25,0,17,0c.91,0,1.81,0,2.71.07s1.75.08,2.63.14c.71.05,1.42.13,2.13.21a4.06,4.06,0,0,1,1.89.67,3.38,3.38,0,0,1,1.4,2.13A17.67,17.67,0,0,1,28.1,5c.08.62.14,1.24.17,1.86,0,1.1.08,2.2.08,3.3s-.05,2-.1,3a23.56,23.56,0,0,1-.33,2.91,4.37,4.37,0,0,1-.67,1.79,3.56,3.56,0,0,1-2.32,1.46,20.23,20.23,0,0,1-2.33.25c-1.49.07-3,.14-4.46.19C16.84,19.81,15.53,19.82,14.21,19.84Zm-2.86-5.68,7.38-4.25L11.35,5.65Z"/><path class="cls-2" d="M11.35,14.16V5.65l7.38,4.26Z"/></g></svg>