<svg id="圖層_1" data-name="圖層 1" xmlns="http://www.w3.org/2000/svg" viewBox="0 0 116.69 28.78"><defs><style>.cls-1{fill:#375c89;}</style></defs><title>工作區域 1</title><g id="FAWEVJ.tif"><path class="cls-1" d="M24.26,13.24c-1.17,0-2.24,0-3.32,0s-1,.22-1-1c0-.78,0-1.56.05-2.34a1.36,1.36,0,0,1,1.33-1.4A16,16,0,0,1,23,8.42h1.37V7c0-.71,0-1.42,0-2.13,0-.15-.19-.41-.3-.42a29.9,29.9,0,0,0-4.44,0,4.85,4.85,0,0,0-4.24,4.69c-.09,1.2-.07,2.41-.07,3.61,0,.39-.12.53-.52.52-.92,0-1.85,0-2.77,0-.35,0-.5.09-.5.48,0,1.17,0,2.34,0,3.51,0,.34.11.46.46.45.95,0,1.91,0,2.87,0,.32,0,.44.1.44.43V28.35c0,.33-.12.43-.44.43-4.43,0-8.87,0-13.3,0A1.5,1.5,0,0,1,0,27.18V1.59A1.53,1.53,0,0,1,1.73,0H27c1.25,0,1.83.58,1.83,1.81V27A1.58,1.58,0,0,1,27,28.77c-2.16,0-4.33,0-6.49,0-.43,0-.55-.14-.55-.55q0-5,0-10c0-.39.13-.53.53-.52.9,0,1.8,0,2.71,0,.37,0,.53-.09.57-.49C23.89,15.91,24.08,14.63,24.26,13.24Z"/><path class="cls-1" d="M74.14,5.82v2c0,.92,0,1.84,0,2.77,0,.48.16.56.6.44A7.92,7.92,0,0,1,78,10.87a2.74,2.74,0,0,1,2.62,3,41,41,0,0,1-.06,4.83,3.21,3.21,0,0,1-2.71,3.07,14.11,14.11,0,0,1-4.85.16c-.55-.06-1.09-.19-1.63-.22s-.53-.25-.53-.65c0-4.06,0-8.11,0-12.17,0-.71,0-1.42,0-2.13,0-.15.18-.41.31-.43C72.13,6.13,73.08,6,74.14,5.82Zm3.29,10.54h0V15.14c0-1.29-.67-1.85-1.93-1.62a4,4,0,0,0-1,.3.78.78,0,0,0-.36.5c0,1.54,0,3.08,0,4.62,0,.32.15.44.46.42s.81,0,1.22,0a1.48,1.48,0,0,0,1.58-1.56C77.45,17.32,77.43,16.84,77.43,16.36Z"/><path class="cls-1" d="M113.83,10.93c-1,1.58-1.87,3.06-2.84,4.47a1.31,1.31,0,0,0,0,1.73c.88,1.33,1.66,2.73,2.48,4.09.11.18.21.37.35.61a2.84,2.84,0,0,1-.44.06c-.78,0-1.56,0-2.34,0a1,1,0,0,1-1.08-.63c-.75-1.31-1.54-2.59-2.32-3.88a1.45,1.45,0,0,0-.5-.52c0,.16,0,.32,0,.49,0,1.33,0,2.66,0,4,0,.41-.13.56-.54.54-.73,0-1.46,0-2.18,0-.42,0-.58-.12-.57-.54,0-.82,0-1.63,0-2.45,0-3.95,0-7.9,0-11.86,0-.51.1-.76.68-.81.84-.08,1.66-.27,2.59-.42v9.85l.14.06c.15-.18.3-.36.43-.55q1.22-1.9,2.41-3.82a.76.76,0,0,1,.76-.44C111.76,11,112.73,10.93,113.83,10.93Z"/><path class="cls-1" d="M69.29,19c0,.84,0,1.6,0,2.35,0,.11-.17.27-.29.29a12.89,12.89,0,0,1-5.89.14,3.69,3.69,0,0,1-3-3.56,30.17,30.17,0,0,1,0-3.92A3.44,3.44,0,0,1,62.91,11a7.68,7.68,0,0,1,3.84,0,3.49,3.49,0,0,1,2.77,3.4c0,.77,0,1.56,0,2.33,0,.44-.12.59-.57.59-1.66,0-3.33,0-5,0-.73,0-.8.08-.67.8s.4,1.13,1.17,1.14c1.41,0,2.82-.1,4.23-.17C68.87,19.09,69,19.06,69.29,19Zm-4.47-3.81h0a10.25,10.25,0,0,0,1.11,0,.54.54,0,0,0,.35-.34,1.29,1.29,0,0,0-1.17-1.62c-1.14-.11-1.73.33-1.81,1.34,0,.42.05.69.56.64C64.18,15.18,64.5,15.21,64.82,15.21Z"/><path class="cls-1" d="M91.64,16.43c0,.62,0,1.25,0,1.86a3.71,3.71,0,0,1-3.69,3.63,10.74,10.74,0,0,1-3.15-.17A3.4,3.4,0,0,1,82,18.57a26.21,26.21,0,0,1,0-4.34A3.44,3.44,0,0,1,85,11a11.2,11.2,0,0,1,3.37,0,3.63,3.63,0,0,1,3.23,3.7c0,.58,0,1.17,0,1.75Zm-3.25,0h0c0-.53,0-1.07,0-1.6a1.38,1.38,0,0,0-1.52-1.36c-1,0-1.65.4-1.7,1.27a27.78,27.78,0,0,0,0,3.29c.06.89.72,1.34,1.7,1.3a1.41,1.41,0,0,0,1.54-1.41C88.41,17.44,88.39,16.94,88.39,16.45Z"/><path class="cls-1" d="M102.59,16.37a16.18,16.18,0,0,1,0,2A3.67,3.67,0,0,1,99,21.91a10.18,10.18,0,0,1-3.3-.18,3.46,3.46,0,0,1-2.82-3.36,31.06,31.06,0,0,1,0-3.61A3.62,3.62,0,0,1,96.27,11a10.19,10.19,0,0,1,3.26.06,3.67,3.67,0,0,1,3.09,3.82c0,.52,0,1,0,1.54Zm-3.22.05c0-.49,0-1,0-1.49a1.44,1.44,0,0,0-1.57-1.45c-1,0-1.64.44-1.69,1.36a27.24,27.24,0,0,0,0,3.13,1.41,1.41,0,0,0,1.66,1.38,1.44,1.44,0,0,0,1.59-1.49C99.38,17.38,99.37,16.9,99.37,16.42Z"/><path class="cls-1" d="M46.33,21.24c-.23.08-.35.14-.49.18a16.8,16.8,0,0,1-2.67.59,2.9,2.9,0,0,1-3.28-3.11c0-2,.89-3,2.84-3.09.53,0,1.07-.05,1.6-.06.37,0,.74,0,1.11,0s.43-.11.44-.43c0-1.29-.3-1.66-1.6-1.66H41.06c.08-.87.15-1.69.25-2.5,0-.09.23-.21.36-.2,1.54,0,3.08,0,4.61.12a2.8,2.8,0,0,1,2.82,3c.08,2.48.06,5,.1,7.44,0,.33-.13.44-.44.43-.51,0-1,0-1.54,0S46.3,22,46.33,21.24Zm-1.55-3.32h0c-.25,0-.5,0-.74,0a.84.84,0,0,0-.77,1.26.86.86,0,0,0,1,.55c.54-.12,1.26-.27,1.51-.65.43-.69,0-1.17-.82-1.17Z"/><path class="cls-1" d="M40,11c-.09.81-.18,1.55-.24,2.29,0,.3-.18.38-.45.38s-.82,0-1.22,0-.68.14-.67.66c0,2.27,0,4.54,0,6.8,0,.83,0,.83-.84.83-.62,0-1.24,0-1.86,0-.44,0-.58-.14-.58-.58,0-2.3,0-4.6,0-6.91,0-.76,0-.76-.75-.76-1.13,0-1,.14-1-1,0-.41,0-.82,0-1.23s.14-.55.53-.49h0c1.17,0,1.16,0,1.17-1.21A11.28,11.28,0,0,1,34.3,8a2.8,2.8,0,0,1,2.86-2.43c.83-.06,1.67,0,2.5,0,.28,0,.38.11.38.38,0,.65,0,1.31,0,2a.54.54,0,0,1-.37.35c-.42,0-.85,0-1.28,0a.81.81,0,0,0-.88.9c0,.45,0,.89,0,1.33s.11.48.46.47C38.59,10.93,39.26,11,40,11Z"/><path class="cls-1" d="M58.87,13.79c-.75-.1-1.41-.23-2.07-.27a11.8,11.8,0,0,0-2.06.06,1,1,0,0,0-1,1c0,1.26,0,2.51,0,3.77a1,1,0,0,0,1,.93,10.28,10.28,0,0,0,3.54-.15c.12,0,.24-.05.36-.06s.1,0,.22.05c0,.75,0,1.5,0,2.26a.52.52,0,0,1-.33.33,11.34,11.34,0,0,1-4.53.24c-2.22-.44-3.33-1.69-3.51-4.1a18.76,18.76,0,0,1,0-3.18,3.88,3.88,0,0,1,3.88-3.77,36.08,36.08,0,0,1,4,.23c.35,0,.47.22.46.57C58.85,12.36,58.87,13.05,58.87,13.79Z"/><path class="cls-1" d="M116.37,21.35a.7.7,0,0,1-1.05-.1.87.87,0,0,1,.13-1.19.73.73,0,0,1,1,.11.84.84,0,0,1-.13,1.2,7.1,7.1,0,0,0,0-.92.43.43,0,0,0-.28-.32c-.18,0-.53,0-.55.08a1.47,1.47,0,0,0,.08,1.14.48.48,0,0,0,.15-.23,1,1,0,0,1,.09-.16Z"/></g></svg>