<svg id="圖層_1" data-name="圖層 1" xmlns="http://www.w3.org/2000/svg" viewBox="0 0 81 35"><defs><style>.cls-1{fill:#394653;}</style></defs><title>mbc</title><g id="pHbvqc.tif"><path class="cls-1" d="M24.08,13l-3.52-.14c0,5.2-.08,10.37-.12,15.55H14.59c0-5.13-.06-10.24-.1-15.41L11,12.82l-.12,15.54H5v-.3q0-8.71,0-17.42a1.41,1.41,0,0,1,.12-.48c0-.12.14-.22.19-.33A5,5,0,0,1,8.53,7.21a3.51,3.51,0,0,1,.92-.11c3.44,0,6.89-.06,10.34,0,2,0,4,.06,6,.12a4.27,4.27,0,0,1,4,2.75A3.51,3.51,0,0,1,30,11.25c.05,1.09.07,2.18.07,3.26q0,6.75-.08,13.51v.34H24.18Z"/><path class="cls-1" d="M33.67,7H34L47.85,7a12.67,12.67,0,0,1,3.82.42,5.15,5.15,0,0,1,3.48,3.1,4.34,4.34,0,0,1-2.49,5.5c-.87.3-1.75.55-2.62.82l-.22.08c.82.16,1.62.29,2.41.49A6.45,6.45,0,0,1,55.3,19.2a5.23,5.23,0,0,1-1.7,8.17,11.1,11.1,0,0,1-4.08.94c-5.23.29-10.47.17-15.71.19h-.14ZM48.83,22.64V12.86H39.75v9.78Z"/><path class="cls-1" d="M79,12.84H64.79v9.81H79v5.9h-.35c-4.64-.06-9.28-.11-13.92-.18a12.64,12.64,0,0,1-2.62-.21,4.11,4.11,0,0,1-3.47-3.94c-.11-1.79-.16-3.58-.17-5.37,0-2.73.05-5.46.09-8.19a1.2,1.2,0,0,1,.14-.5,5.37,5.37,0,0,1,1.52-2,5.14,5.14,0,0,1,3-1.06c4,0,8,0,12-.08H79Z"/></g></svg>