<svg id="圖層_1" data-name="圖層 1" xmlns="http://www.w3.org/2000/svg" viewBox="0 0 250.16 48.59"><defs><style>.cls-1{fill:#5e2200;}.cls-2{fill:#231815;}.cls-3{fill:#fff;}</style></defs><title>工作區域 1</title><polyline class="cls-1" points="19.56 41.62 19.56 41.62 19.57 41.62 19.56 41.62"/><path class="cls-1" d="M19.48,41.47c0,.09,0,.12.08.15s0-.13-.08-.15"/><polyline class="cls-1" points="19.56 41.62 19.56 41.63 19.57 41.62 19.56 41.62"/><path class="cls-1" d="M35.78,12.44a.44.44,0,0,0-.39-.15c-.13,0-.13.09-.1.18s.12.14.14.26a.33.33,0,0,0,.23.24c.09,0,0,0,.11.06a.17.17,0,0,0,.24-.12c0-.11.05-.11,0-.2s-.17-.16-.24-.27"/><path class="cls-1" d="M35.6,11.82a.1.1,0,0,0,0-.17l-.1,0a.22.22,0,0,0-.27.08.35.35,0,0,1-.21.16c-.06,0,0,0-.09.05a.17.17,0,0,0,0,.18c0,.06,0,.07.12.08a.23.23,0,0,0,.23-.1.38.38,0,0,1,.24-.16.44.44,0,0,0,.15-.08"/><path class="cls-1" d="M36.39,12.12A.29.29,0,0,0,36.1,12a.16.16,0,0,0-.12.2c0,.09,0,.06.05.16a.54.54,0,0,0,.27.32l.18,0c.07,0,.09,0,.12-.07a.48.48,0,0,0,.08-.16.11.11,0,0,0,0-.15l-.26-.27"/><path class="cls-1" d="M34.49,12.08s0-.05-.11,0l-.26.08a.22.22,0,0,0-.16.16.11.11,0,0,0,.09.15l.12,0a.35.35,0,0,0,.3-.06l.1-.1s0-.07,0-.1a.28.28,0,0,0-.08-.11"/><path class="cls-1" d="M33.7,12.26l-.17-.07a.32.32,0,0,0-.17,0l-.35.05c-.11,0-.17.06-.16.12s.1.08.2.09l.19,0a.84.84,0,0,0,.41,0c.05,0,.07,0,.09-.07s0,0,0-.07"/><path class="cls-1" d="M35,13.73a1.31,1.31,0,0,1-.15,0,.54.54,0,0,0-.28.17l0,.09s0,.05.06.05l.15,0a.19.19,0,0,0,.14,0,2.44,2.44,0,0,0,.23-.16c.07-.05.1-.1.07-.15a.17.17,0,0,0-.18,0"/><path class="cls-1" d="M35,11.46a.22.22,0,0,0,.18-.12c0-.06.07-.07.09-.1a.08.08,0,0,0,0-.06.09.09,0,0,0,0,0c-.17,0-.39,0-.54,0a.33.33,0,0,0-.28.2s.06.05.11.06l.27,0c.07,0,.12,0,.2,0"/><path class="cls-1" d="M35.76,13.25a1.25,1.25,0,0,1-.18.06s-.07,0-.12.07a.17.17,0,0,0,0,.17c0,.06,0,.08,0,.12a.07.07,0,0,0,0,.06h.05c.09-.07.22-.15.3-.22a.24.24,0,0,0,0-.28s-.06,0-.1,0"/><path class="cls-1" d="M51.25,20.94c-.1-.34-.4-.75-.53-1.12a6.25,6.25,0,0,0-1-2.46A3.18,3.18,0,0,0,47.86,16a3.07,3.07,0,0,1-.45-.33l-.13.59-.22-.15a4.2,4.2,0,0,1-.33,1.46c-.3.59-1,.7-1.4,1.38s0,1.41,0,1.67-.51.49-.76.64-.47.86-.7,1.42-.55.8-.71,1.2A11.53,11.53,0,0,0,41,23.2l.18-.19a6.56,6.56,0,0,0,.61-1.42l1-.08L42,20.82l.49-1.49.81-.31-.65-.28a6.86,6.86,0,0,0,.19-1.42l.65-.36-.68-.26a5.62,5.62,0,0,0-.28-1.36l.67-.72-1.15-.35a4.64,4.64,0,0,0-.33-.48s-.16-.68-.37-.55-1.34-.25-1-.76a1.46,1.46,0,0,0-.08-1c1,.21,2.15,1.76,2.15,1.76s.91,2.05.16-1a3.79,3.79,0,0,0-3-2.56,1,1,0,0,1-.12-.3,8.86,8.86,0,0,0-1-1.75,5.87,5.87,0,0,0-2.06-1.74A4.62,4.62,0,0,0,35,5.5a7.91,7.91,0,0,0-5.41,1.1l-.49,0V5.79L28,6.47,27.88,6l-.62-.21-.06-.54.22-.11A9.7,9.7,0,0,0,30.8,1.38c.36-.73.41-2.45-.89-.42A6.36,6.36,0,0,1,26.8,3.61l-.06,0c-.07-.11-.14-.23-.23-.35a.94.94,0,0,0-.39-.4,2.55,2.55,0,0,0,.43-1.35c0-.82-.71-.93-1,.06a3.93,3.93,0,0,1-1.21,1.72.83.83,0,0,0-.25-.06.93.93,0,0,0-.56.46c-.41,0,.15-.54-.37-.82s-.92.53-1,1.21-.62.82-.54.37-.11-.74-.49-.77S20.45,4,20.2,5a1.78,1.78,0,0,1-.13.37c-.6.24-2.75,1.08-3.66,1.59-1.06.59-2.56,1.44-3.54,2.11s-.4,1.95-.32,2.37A3.84,3.84,0,0,1,12.3,13a1.34,1.34,0,0,1-1.34.89,1.56,1.56,0,0,0-1.34.76l-.16.14,0,0a.49.49,0,0,1-.25.12c-.15.1-.23.13-.28.21a3,3,0,0,1-1,.17,1.2,1.2,0,0,1-.9-.76c-.14-1.66,1.59-1.33,3-2.28s2.22-1.46,1.93-4.07,1.41-1.73,2.29-2a5.69,5.69,0,0,0,1.75-1,23.17,23.17,0,0,1-2.88.53A2.58,2.58,0,0,0,10.9,7.87a10.7,10.7,0,0,0,0,1.79,1.92,1.92,0,0,1-1.13,1.8C8.9,12,6.5,12.79,6.06,13.72A1.56,1.56,0,0,0,7.73,16l1.1-.1a1.41,1.41,0,0,0,.1.36l-.65.22.69.25-.49.42.73.26-.65.72L9.7,18l-.53.76.9-.08.41.63.56-.51.49.73L11.7,19l.4-.43,0,.76.49-.76.41.85.36-.64.33.47.57-.68a3.72,3.72,0,0,1,.28.59,4.27,4.27,0,0,0,.33.68,4.28,4.28,0,0,0-.25,1.2c-.26-.29-.5-.59-.74-.91a2.27,2.27,0,0,0,.29,1.92l.12.06h0a5.18,5.18,0,0,0,1.75.33,3.57,3.57,0,0,0,.92-.12l.31-.06a8.82,8.82,0,0,0-.68,1,11.55,11.55,0,0,0-2.2-.21,11.08,11.08,0,0,0-6.7,2.23,2.29,2.29,0,0,1-.7-.79,7.26,7.26,0,0,1-.16-4.07c.3-.84.62-1.64,0-1.91s-.8-.36-.8-.36a2.16,2.16,0,0,1-.54.05c-.14,0-.4.2-.48.34s-.54-.18-.63-.23a.5.5,0,0,0-.65.07c-.27.27-.3.54-.7.52s-.89-.28-1.46,0A3.41,3.41,0,0,0,.55,20s-.05.25.16.14.24-.32.51-.47.89-.2,1.07.09A2.35,2.35,0,0,1,2.57,21,2.33,2.33,0,0,0,3,22.36a1.84,1.84,0,0,1,0,1.54.85.85,0,0,1-1-.71c-.15-.74-.06-.83-.15-1.19s-.27-.6-.24-.9-.11-.69-.57-.64S0,21.87,0,22.16s.27.48.39.06.37-.75.66-.6a1.06,1.06,0,0,1,.43.45,3.06,3.06,0,0,1,0,.47,2,2,0,0,0,.79,1.76c.7.41,1.25,2.07,1.42,2.64a2.78,2.78,0,0,0,0,.92,2.3,2.3,0,0,0,.89,1.31,9.88,9.88,0,0,0-.77,2.28.82.82,0,0,1-1.06-.66,1.33,1.33,0,0,0,.89,1.89,7.38,7.38,0,0,0,0,.82A10.72,10.72,0,0,0,14.43,44a10.8,10.8,0,0,0,2.2-.22c1.7,2.9,5.63,4.81,10,4.81s8.32-1.91,10-4.81a10.87,10.87,0,0,0,2.2.22,11.05,11.05,0,0,0,7-2.45.48.48,0,0,0,.52-.11c.29-.25.51-.59.42-.74a6,6,0,0,0,.42-.46.47.47,0,0,0,.55-.17.68.68,0,0,0,.17-.75c.07-.09.13-.19.19-.28a.54.54,0,0,0,.56-.35c.15-.33.24-.69.09-.8.15-.33.29-.66.41-1a.88.88,0,0,0,.63-.74c.12-.39.08-.78-.21-.85a9.64,9.64,0,0,0,.17-1.8,10.07,10.07,0,0,0-.56-3.3,9.21,9.21,0,0,0,1.53-3.51,13.06,13.06,0,0,0,.18-2.62c0-.29.35-.63.48-1.41a3.83,3.83,0,0,0-.13-1.72M8.8,15.74l-.91.1h0a1.65,1.65,0,0,1-1.12-.25,1.58,1.58,0,0,1-.22-2.09A8.35,8.35,0,0,1,9.34,12,2.44,2.44,0,0,0,11.1,9.84c.06-1.13-.24-2,.38-2.8A2.2,2.2,0,0,1,13.3,5.92a6.08,6.08,0,0,0,1.95-.34,4.36,4.36,0,0,1-1.19.51c-.46,0-2.19-.26-2.41,1.21-.06.87.32,1.75,0,2.71s-.65,1.49-2.09,2.31c-1,.56-2.58.78-2.77,1.57a1.35,1.35,0,0,0,.39,1.45,1.4,1.4,0,0,0,.69.21,5.33,5.33,0,0,0,.92-.13.5.5,0,0,0,0,.32m.11-.56h0m5.36,6.48a1.43,1.43,0,0,1-.22-1.05,5.71,5.71,0,0,0,.68.71c.52.48-.31.57-.46.34m31-.05c.43-.19.78-1,.78-1a1.85,1.85,0,0,0,.73-.74c.27-.53.6-1.12.78-1.08s.51.55.78.89A6.84,6.84,0,0,1,49,21.17s0,.15-.11.25a1.31,1.31,0,0,0-.15-.5l0,0a1.1,1.1,0,0,0-.68-.66.87.87,0,0,0-.93.41,1.21,1.21,0,0,0-.12,1,.61.61,0,0,0,.32.44.86.86,0,0,0,.81-.16.23.23,0,0,0,0-.31.22.22,0,0,0-.3,0,.55.55,0,0,1-.31,0,.23.23,0,0,1-.07-.14.83.83,0,0,1,.06-.63.44.44,0,0,1,.46-.22c.19,0,.32.25.4.42l0,.05c.13.27.22.46-.11,1.2a.09.09,0,0,1,0,.05.53.53,0,0,1-.46.19c-.45-.08-.35,0-.35,0s.48.47.33.73-.68.45-1.23,0-.7-.66-.85-.48.87,1.35,1,1.91a4,4,0,0,1-.91-.64,4.22,4.22,0,0,1-1-1.52.77.77,0,0,1,.43-.94M48.71,33.5a9.2,9.2,0,0,1-.44,2.79.78.78,0,0,1-.22,0,3.44,3.44,0,0,1-.55,0A8.34,8.34,0,0,0,48,33.5a9,9,0,0,0-9.15-8.8c-.3,0-.63,0-1,.06a1.32,1.32,0,0,0-.2-.12.78.78,0,0,0-.63-.06.82.82,0,0,0-.53.62.64.64,0,0,0,.2.63.29.29,0,0,0,.43,0,.3.3,0,0,0,0-.43s0,0,0-.06a.21.21,0,0,1,.13-.16.21.21,0,0,1,.16,0,.47.47,0,0,1,.23.23.61.61,0,0,1-.38.77.84.84,0,0,1-.64,0,.83.83,0,0,1-.42-.48,1.07,1.07,0,0,1,.09-.89,1.12,1.12,0,0,1,.6-.54,10.14,10.14,0,0,1,2-.19,9.67,9.67,0,0,1,9.86,9.45m-14.1-8.71a.63.63,0,0,0,.63-.22A.79.79,0,0,0,35,23.3a1.14,1.14,0,0,0-.44-.11c-1.63-2-4.64-3.16-7.91-3.16s-6.28,1.21-7.91,3.16a1.09,1.09,0,0,0-.43.11.82.82,0,0,0-.43.47.83.83,0,0,0,.17.8.65.65,0,0,0,.63.22.29.29,0,0,0,.24-.36.3.3,0,0,0-.35-.24.06.06,0,0,1-.06,0,.24.24,0,0,1-.05-.21s.05-.07.13-.11a.46.46,0,0,1,.32,0,.6.6,0,0,1,.38.77.81.81,0,0,1-.41.48.79.79,0,0,1-.64,0,1.08,1.08,0,0,1-.65-.57v0a1,1,0,0,1-.06-.74c1.51-2.59,5.09-4.3,9.12-4.3s7.62,1.71,9.12,4.3a1,1,0,0,1,0,.74s0,0,0,0a1.06,1.06,0,0,1-.64.57.84.84,0,0,1-.64,0,.83.83,0,0,1-.42-.48.62.62,0,0,1,.39-.77.46.46,0,0,1,.32,0,.26.26,0,0,1,.12.11.27.27,0,0,1,0,.21.06.06,0,0,1-.06,0,.31.31,0,0,0-.36.24.31.31,0,0,0,.24.36M18.14,21.36l-.75-.48a2.53,2.53,0,0,1,.94-.48c.43-.08.23.55.08.76l-.11.09-.16.11m1.16-.87a4.89,4.89,0,0,1,.61-1.83,1.81,1.81,0,0,1,.79-.93,4.7,4.7,0,0,0,1.63,1.34,11.9,11.9,0,0,0-3,1.42m7.34-2.07h-.43A5.35,5.35,0,0,0,27.26,18c.43.18.74,0,1.18.1A4.88,4.88,0,0,0,33,16.37c1.34-1.56,1.87-1.18,1.87-1.18,1.83,1.14,1.62,3.3,1.62,5.29a2.25,2.25,0,0,1-.68,1.63,12.27,12.27,0,0,0-9.21-3.69m.94-5.06c0-.1-.32-.1-.26-.34a.2.2,0,0,1,.29-.13,1.53,1.53,0,0,1,.33.61c.07.3-.33.68-.33.68s-.62,0-.29-.24a.55.55,0,0,0,.26-.58m.44,3-.36.2-.08,0a6.32,6.32,0,0,1-.59-.66c.08-.42.39,0,1,.41m-.54-1.5c-.09-.24-.09-.38.33-.44a13.92,13.92,0,0,1,2.28.68l-.75.47-.51.05a2.83,2.83,0,0,1-.46-.22c-.13-.1-.92-.27-.89-.54m4.89-6.95c.09.17.22,0,.43.07a.3.3,0,0,1,.27.13s-.38.09-.24.25.41-.05.46-.21.31-.09.34,0,.22.07.24-.07.53-.23.62-.12-.15.39-.45.47-.46,0-.67.18-.64,0-.88,0-.36-.35-.36-.35l-.08-.61c-.18-.4.26-.47.26-.47s.3,0,.27.28-.29.23-.21.41m.92-.43.21.14s-.08.27-.16.29a1.13,1.13,0,0,1-.43-.1c-.06,0,0-.21.05-.36a.19.19,0,0,0-.09-.27c-.06,0,.17-.25.17-.25s.24-.15.28-.1-.1.31-.13.39a.24.24,0,0,0,.1.26m-1.08,2.94c.59-.33,1.18-1.15,1.84-1.39.23-.07.43-.13.42,0s-.43.48-.79.92-1.18,1.4-1.74,1.95a3.72,3.72,0,0,1-2.75,1C28,13,28,12.48,28,12s.29-.44,1.34-.54a5.25,5.25,0,0,0,1.87-.55,6.89,6.89,0,0,0,1-.48M29,14.28a2.18,2.18,0,0,1-.82-.13,1.43,1.43,0,0,1-.06-.69c.06-.34.49-.3.49-.3a2,2,0,0,0,1,.17c.62,0,2.06-.07,2.06-.07a4.47,4.47,0,0,1,1.18.2.25.25,0,0,1,0,.19l-1.58.44-.92.13s-1,0-1.38.06m3.68,1.16a2.27,2.27,0,0,1-1.54.75,2,2,0,0,1-.73-.07l.8-.54.35-.24h0c.66-.2,1.25-.17,1.12.1M30.6,17a2.93,2.93,0,0,1-1.9.37l-.11,0L29,17l.24-.16A4.47,4.47,0,0,0,30.6,17m8.63-.22a1.14,1.14,0,0,1,.43-.23c.3,0,.14.31.14.31a2.48,2.48,0,0,1-.35.28c-.08,0-.33.2-.33.06s-.08-.26.11-.42m-.3-.57c-.08-.09,0-.25.11-.28a3.06,3.06,0,0,0,.33-.2c.13-.2.35.37.21.51a.63.63,0,0,1-.4.14,1.33,1.33,0,0,1-.25-.17m.79-.59a.22.22,0,0,1-.14-.37A1.26,1.26,0,0,1,40,15c.17-.05.46.32.3.48s-.38.12-.54.12m.14-.76c-.28.16-.47.08-.57.25s-.06.34-.14.51-.41,0-.49-.2a.29.29,0,0,1,.19-.37.6.6,0,0,0,.33-.42c0-.23.38-.37.38-.37s.57.43.3.6m-.74-.68c-.16.11-.13.28-.27.51s-.38.48-.57.48-.19-.45-.08-.51a1.23,1.23,0,0,1,.35-.17c.09,0,.11-.34.19-.54s.19-.14.19-.14c.19,0,.36.26.19.37m-.73-.42a.36.36,0,0,0-.21.31l-.06.33s-.27.12-.32,0a1.78,1.78,0,0,1-.06-.56c0-.09.19-.17.35-.2a.32.32,0,0,0,.22-.31c0-.08.3,0,.3,0s.21.17.19.25-.33.12-.41.15m-.43-.3c-.29.17-.37-.08-.53.13s.08.25.08.25v.38a.32.32,0,0,0-.41.13c-.12.25.21.34.41.25s.2.21.08.34,0,.26.16.17.45.3.37.47-.49.16-.69,0-.16-.42-.45-.46-.28-.55-.32-.81.24-.59.24-.59l.65-.55c.37-.47.61-.13.61-.13a.43.43,0,0,1-.2.47m-.39,2.77c0,.23-.3.42-.42.62a.41.41,0,0,1-.55,0,.37.37,0,0,1,.16-.45c.16-.06.47-.59.47-.59.28-.13.34.15.34.38m-.83-.8c0-.15.34.08.18.29l-.35.55s-.2.19-.3,0-.14-.29.06-.42.39-.29.41-.44m-.57.33c-.22.11-.33-.4-.33-.4a1.92,1.92,0,0,0,.38-.39c.14-.21.33.28.33.28a1.16,1.16,0,0,1-.38.51m6.46-1c.62-.09-.89.47-.89,1.06s.85,1.1,1.26,1.18-.9,0-1.06.68a1.08,1.08,0,0,0,.81,1.4c.66.08-1.13-.09-1.42.5s.49,1.44.9,1.78-.94-.21-1.3-.09-.29.34-.25.73a3.11,3.11,0,0,1,0,.67H40l-.61.42-.28-.08a34.8,34.8,0,0,0,2.07-4.65c.28-1.23.53-3-.2-4.07a3.94,3.94,0,0,0,1.66.47M39.45,19l.43-.17c.41-.28.68.14.57.23a6.07,6.07,0,0,0-.57.31c-.08.08-.43,0-.38-.06s0-.31,0-.31m.19.73.13,0a3.14,3.14,0,0,0,.44-.23.25.25,0,0,1,.4.09c0,.08-.32.28-.32.28L40,20s-.05.25-.13.25-.2.25-.25.37.11.19.16.3a.31.31,0,0,1-.13.4c-.16.09-.27.06-.25-.11a1,1,0,0,0-.21-.59c-.08-.09-.36-.2-.28-.23s.09-.23.22-.28.19,0,.3-.2a.45.45,0,0,1,.22-.2m1.45-3c-.08.47-.49.13-.49.13a.44.44,0,0,0-.16.29c0,.17-.12.22-.29.22s0,.25,0,.25a1,1,0,0,0,.49-.25c.12-.17.36-.17.37-.09s-.33.34-.33.34a1.36,1.36,0,0,1,0,.59c-.08.21.24.22.21.38s-.17.09-.17.09a5.56,5.56,0,0,1-.65-.21c-.16-.09-.45.17-.45.17l-.24.12a4.17,4.17,0,0,1-.45,0c-.16,0,0-.25,0-.25a2.71,2.71,0,0,1,.49-.13c.12,0,.16-.42-.12-.46s-.53.46-.53.46l-.32,0s0-.34-.21-.38-.32.21-.32.21v.29l-.37.09a1.83,1.83,0,0,0,.12.51c.08.12.45,0,.45-.3s.24-.13.24-.13l.29.13.12.25s-.32.09-.41.3.61-.13.61-.13.49-.12.41.17a.55.55,0,0,1-.28.38l-.33-.12s-.28-.21-.37,0,.37.29.37.29l-.12.21a1.69,1.69,0,0,0-.37.3.14.14,0,0,0,.17.21,2.5,2.5,0,0,1,.48,0s.29.21.17.3,0,.3,0,.42,0,.25-.25.25-.12-.42-.28-.55-.49,0-.53.26.41.21.53.25,0,.59,0,.59l.41-.13-.05.35-.24.12-.32.09-.29,0L38,22s-.33-.34-.45,0,.16.68.08.8-.4-.12-.48,0a.66.66,0,0,0,0,.3l-.42.07c-.05-.19-.1-.41-.21-.41s-.24-.34-.12-.38-.12-.3,0-.46.24-.13.37-.13.2-.21.2-.21l-.37-.25s.17-.34.29-.18.24.13.33,0,.2-.29.32-.29.12-.34.12-.34a2.11,2.11,0,0,1-.61-.08c-.16-.09.08-.56.12-.68s.57,0,.7,0,.16-.21.16-.21a3.64,3.64,0,0,1-.65-.05c-.16,0-.13-.46-.13-.46s0-.43-.12-.51a.52.52,0,0,1,.17-.68,4.56,4.56,0,0,0,.61-.29l.16-.22.2-.08s-.08-.46.12-.55,0-.55-.24-.42-.33.72-.33.72.17.21-.2.42a.61.61,0,0,1-.69-.09,1.5,1.5,0,0,1,.69-.54,7.82,7.82,0,0,0,.29-.73c0-.16.12-.21.32-.25s.2-.17.45-.13.08.3,0,.51.2.17.32.26,0,.29-.12.34-.32.08-.24.29a.29.29,0,0,0,.32.17s0,.25-.12.34-.16.17,0,.38.29-.42.29-.42l.33,0a4.23,4.23,0,0,1,.36-.48c.16,0,.32-.24.53-.29s.12-.38,0-.34-.45,0-.49-.21.24-.25.41-.29.36.21.36.21l.08.38s.45-.21.37.25m-.8-2.85c.11.17.19.26.32.26s.22.28.19.59,0,.4-.19.34-.35,0-.27-.2,0-.56-.08-.62-.46,0-.51-.14,0-.31-.06-.45-.32-.06-.49-.06-.08-.37-.16-.48-.16,0-.32,0-.38-.17-.27-.31a.74.74,0,0,1,.37-.2c.11,0,.3.06.28.2s0,.23.19.12.43.14.43.25.14.34.3.34.16.22.27.39m-1-3.69c.08,0,.07.14,0,.2a1.26,1.26,0,0,1-.26.13.61.61,0,0,0-.31.19c-.05.07-.09.08,0,.13a2.11,2.11,0,0,0,.43.2.41.41,0,0,0,.21,0,.24.24,0,0,0,.21-.1.16.16,0,0,0,0-.17c0-.06,0,0,0-.07a.17.17,0,0,1,.11-.2.43.43,0,0,1,.22,0,2.19,2.19,0,0,1,.67.16.24.24,0,0,1,.13.07,1,1,0,0,0,.3.13c.11,0,.15.13.27.21a1.06,1.06,0,0,1,.32.5s-.06,0-.07,0l-.08,0a2.58,2.58,0,0,1-.7-.36.6.6,0,0,0-.33-.12,3,3,0,0,0-.52,0c-.1,0-.1-.05-.16,0s-.06.1-.11.16-.12.15-.21.17-.09.06-.17.11a.38.38,0,0,1-.29.11,2,2,0,0,0-.48.05,0,0,0,0,0,0,0s0,.05,0,.1-.13.17-.18.23a.42.42,0,0,1-.15.11.56.56,0,0,0-.2.14,2,2,0,0,1-.38.33,1,1,0,0,0-.26.22c-.08.06-.1.09-.18.1a.6.6,0,0,0-.28.12c-.05,0-.07.05-.1.05a.4.4,0,0,0-.34.24,2.77,2.77,0,0,1-.21.29c-.06.07,0,.05-.08.08a1,1,0,0,0-.26.21c-.06.06-.15-.05-.21,0s-.14.13-.21.18a1.84,1.84,0,0,1-.25.17.33.33,0,0,1-.17,0h-.38c-.08,0-.08,0-.16,0a1.91,1.91,0,0,1-.32-.16C34,14.1,34,14.08,34,14s0-.06.09-.11l.24-.15.43-.25c.09-.06.07-.07.13-.14a.46.46,0,0,1,.26-.15.44.44,0,0,0,.21-.07s0-.05,0-.1a.1.1,0,0,0-.06-.1l-.11,0a.18.18,0,0,1-.12-.12c0-.06,0-.05,0-.12a.18.18,0,0,0-.23-.1c-.11.05-.22.07-.35.13a1,1,0,0,1-.53,0l-.24-.06A2.25,2.25,0,0,0,33,12.6H32.9a3.22,3.22,0,0,0-.37,0,.15.15,0,0,1-.14-.18c0-.07,0-.06,0-.1a.34.34,0,0,1,.14-.09.31.31,0,0,0,.12-.09.33.33,0,0,1,.22-.13,1,1,0,0,1,.38,0,.35.35,0,0,0,.17,0,.41.41,0,0,0,.32-.11,1.94,1.94,0,0,1,.34-.22l.09-.05s0-.07,0-.1l-.14-.07a1.49,1.49,0,0,1-.24-.14.14.14,0,0,1-.05-.18c0-.06.09-.13.19-.09a.47.47,0,0,0,.31,0,.39.39,0,0,0,.25-.16c0-.06.06-.06.11-.06a.81.81,0,0,1,.55.1s-.05.11,0,.16a.72.72,0,0,0,.28.12c.09,0,.14,0,.19.18a.48.48,0,0,0,.43.26,1.25,1.25,0,0,0,.24,0,.09.09,0,0,0,.06-.13s0-.06,0-.06-.15-.1-.25-.13a.47.47,0,0,1-.26-.22c0-.09-.09-.08-.15-.12s-.2-.06-.26-.1-.11-.06-.11-.13a.19.19,0,0,1,.1-.14s0,0,.08,0l.18,0a.57.57,0,0,0,.32-.16.46.46,0,0,1,.55,0c.1.11,0,.14,0,.19s-.13,0-.19.05a1.29,1.29,0,0,0-.19,0,.18.18,0,0,0-.12.12.12.12,0,0,0,.06.15.83.83,0,0,0,.15,0,1.42,1.42,0,0,1,.16.05.16.16,0,0,1,.12.12.24.24,0,0,0,.15.21c.13,0,.18.26.22.36s.21.16.14.25-.18,0-.24-.05-.11-.26-.24-.21-.11.23-.11.3,0,.05,0,.08h0a1,1,0,0,1,.18.09s0,.17.07.2.08,0,.14,0a.19.19,0,0,0,.18-.11.31.31,0,0,1,.2-.15,1.43,1.43,0,0,0,.28-.13c.07-.05.14-.07.13-.17s-.08-.14-.16-.22a1,1,0,0,0-.35-.24.3.3,0,0,1-.2-.24c0-.08,0-.11-.05-.16s-.08-.06-.07-.1a.12.12,0,0,1,.17,0,.62.62,0,0,0,.19.14,2.39,2.39,0,0,1,.48.33,3.88,3.88,0,0,1,.33.23.47.47,0,0,0,.46,0s0,0,0,0,0-.14,0-.21-.12-.26-.27-.26a.55.55,0,0,1-.31-.06c-.08,0,0,0-.07-.06s0-.22.12-.24l.2,0,.21,0a.32.32,0,0,0,.21-.2c0-.1,0-.13-.08-.15s-.24,0-.25-.12.07-.09.11-.14a.2.2,0,0,1,.23,0c.06,0,0,0,.09.08a.84.84,0,0,0,.4.17c.11,0,.07,0,.16,0m-4.21-3A.77.77,0,0,1,35.39,7a2,2,0,0,1,.27,0c.1,0,.05.13,0,.16a2.63,2.63,0,0,0-.23.16c-.06.12-.43-.13-.35-.23m1.85,2.89a.17.17,0,0,1,.17-.11.45.45,0,0,1,.37.1.71.71,0,0,1,.18.37c0,.11-.14.13-.21.14s-.1,0-.14-.1a.69.69,0,0,0-.25-.2l0,0s-.11-.1-.07-.17M36,6.92a.92.92,0,0,1,.37,0c.25.1.09.28.09.28a1.21,1.21,0,0,1-.3.07c-.07,0-.28,0-.27-.09S35.87,7,36,6.92M37.88,8a3.14,3.14,0,0,1,1,1.37c0,.1-.65-.14-1-.07l-1.25.27-.06-.92a1.64,1.64,0,0,0-.43.24c-.1.1-.56.23-.72-.11s.26-.4.26-.4c.36-.65,1.74-.62,2.2-.38M35.05,6.73a.75.75,0,0,1,.27-.17c.14,0,.51.13.41.24s-.31.1-.45.12-.32-.1-.23-.19m-.79,0c0-.11.65-.39.6-.12s-.21.41-.16.54.21.12.29.23-.27.34-.44.37-.2-.14-.15-.24a.31.31,0,0,0-.11-.37c-.13-.1,0-.41,0-.41m-.38,0c0,.17.13.2.21.38a.73.73,0,0,1,0,.63c-.1.16-.42,0-.4-.07a1.13,1.13,0,0,1,.08-.35c0-.08-.18-.19-.27-.31a.15.15,0,0,1,0-.21c.11-.16.37-.24.36-.07M32.21,6c1-.24,1.77,0,1.37.11a4.49,4.49,0,0,0-1,.47A4,4,0,0,0,31.08,8a5.38,5.38,0,0,1-.84.88,11.42,11.42,0,0,1-1,.78c-.43.31-1.84.34-2.17.65a1.39,1.39,0,0,0-.39,1c0,.21.17,0,.3-.3s.59-.69,1.6-.86A4.08,4.08,0,0,0,30.6,9.3,3.29,3.29,0,0,1,32,8.89a10.43,10.43,0,0,1-1.74,1.91,3.54,3.54,0,0,1-2,.38.61.61,0,0,0-.72.37,2.14,2.14,0,0,0,0,.86,2.45,2.45,0,0,1-.32.2c-.2.1-.2-.72-.46-.78s-.14.3-.24.34-.39,0-.35-.28-.2-.34-.3-.44.26-.44.36-.47.07-.35-.16-.48-.3.13-.3.23a4,4,0,0,1-.33.86.86.86,0,0,0,.07.65.42.42,0,0,1,.46.24c.16.3.33.27.43.23a.92.92,0,0,1,.68.52c.14.34-.1.31-.16.47s-.13.38-.36.45,0-.82-.16-.92-.47.17-.56.17,0-.31-.1-.51a4.29,4.29,0,0,0-.36-.55s-.26-.34-.59-.72-.33-.68-.16-.75l.68-.27s-.06-.34-.06-.45.16-.2.36-.23.06-.41.26-.51.26.37.43.57.19-.34.32-.54.6-.07.95-.1a8,8,0,0,0,2.46-2A3.26,3.26,0,0,1,32.21,6M32,8.37a.19.19,0,0,1-.33,0l-.11-.26s0-.27.14-.32.2,0,.19.12.11.33.11.42m-5.72,6.46a.46.46,0,0,0-.39-.17s.06-.31-.2-.31-.53.14-.53,0,.13-.34-.09-.55-.27.07-.27.07l-.23,0s-.29-.59,0-.71-.11-.57-.08-.74-.3-.3-.52-.39-.08.23-.16.39a.67.67,0,0,0,0,.6c.11.2.27-.06.46.2s0,.39,0,.73.36.2.44.56a1.25,1.25,0,0,1-.38,1c-.17.17-.44-.22-.19-.53S24,14.1,24,14.1a1.87,1.87,0,0,1-.33-.59c-.11-.34-.51-.23-.62-.37a1,1,0,0,1-.08-.87c.13-.2.46-.14.57-.31a.63.63,0,0,0,0-.45,4.69,4.69,0,0,1-.17-.95c0-.34.46-.37.65-.41s0-.3.2-.44.46-.24.56,0,.42.65.26.68-.39.24-.42.11-.33-.14-.33,0,0,.31-.3.31-.43.2-.29.2a.57.57,0,0,1,.52.21c.13.2.07.64.23.78s.53.21.66.38-.13.78,0,1,.36,0,.42.24.1.51.46.47.23.38.23.38.13.34.29.34.14.51.14.51l-.33,0a.88.88,0,0,0-.13-.54m-4.41-.08c-.08-.51-1.55-.54-1.55-.54a1.53,1.53,0,0,1,2.47.6c.17.7-.81,1.55-1,1.57a.24.24,0,0,1-.24-.39,1.84,1.84,0,0,0,.35-1.24m-.92-2.17c0,.22-.27.73-.46.7s-.19-.31-.06-.56a2.23,2.23,0,0,0,.17-.74c.54-.31.32.37.35.6m.81-.74a.64.64,0,0,1,.6.26.72.72,0,0,1,.11.59c-.08.25.13.2.24.37s.22.45.35.67-.13.37-.35.34-.38-.56-.43-.93-.38-.25-.41-.39-.3-.17-.41-.17-.13-.26-.13-.4a1.55,1.55,0,0,0-.22-.48s.35-.48.65-.53.25.39.25.39h-.3c-.27.11-.17.31,0,.28M23,8.69a5.93,5.93,0,0,0,1.49-.43c.41-.25.44-.14.44-.14s.16.45.11.53.35.26.43-.22a.58.58,0,0,0,0-.48s.49-.42.52-.59a11.83,11.83,0,0,0,.27-1.16V6s.49-.17.54.14a1.28,1.28,0,0,1-.24,1.27,6.32,6.32,0,0,0-.68,1.13l-.11.22a2.66,2.66,0,0,1-1,.4c-.32,0-.46.17-.62.22a.94.94,0,0,0-.41.34c-.05.12-.46.31-.57.4s-.1.36-.08.7.14,1.07-.27,1.19-.43-.29-.38-.57a.6.6,0,0,0-.32-.67,3.8,3.8,0,0,0,.73-1,1.57,1.57,0,0,0,.13-1M21.1,13.2a.53.53,0,0,0,.08-.4c.43-.25.46.23.43.37s0,.37-.27.42a.24.24,0,0,1-.24-.39m1.21,3.43a4.11,4.11,0,0,1,2.56-.13,9.08,9.08,0,0,0,1.36.67,11.34,11.34,0,0,1-1.41.73c-1.74.23-1.9.53-3.31-.84.38-.25.52-.26.8-.43m6.75-9.57a.77.77,0,0,1,.61.09c-.47.44-1,.87-1.46,1.27a3.26,3.26,0,0,1-.79.54c-.13.06-.8.33-.9.13s.25-.41.31-.52a3.76,3.76,0,0,1,1.64-1.26,2.55,2.55,0,0,1,.59-.25M28.34,7,26.8,8l.06-.65ZM27.6,3.42h0m-2.3-.74c.41-.57.62-1.64.95-1.36a2.37,2.37,0,0,1-.55,1.55h0s0,0,0,0a.66.66,0,0,0-.33.45c-.13.16-.25.3-.36.41a.89.89,0,0,0-.29-.36,4.48,4.48,0,0,0,.61-.71m-1.53,1.5A.87.87,0,0,1,24,3.81s0,0,.05-.05a.4.4,0,0,1,.5.11c.13.13.13.34.2.51a.32.32,0,0,0,.17.19c.26.11.47-.12.56-.33s.08-.22.12-.33a2.22,2.22,0,0,1,.09-.37c.08-.16.16-.27.27-.26s.37.32.49.48a1,1,0,0,0,.3.29A.41.41,0,0,0,27.16,4a2.88,2.88,0,0,1,.35-.26c.14-.07.27-.15.4-.23a6.85,6.85,0,0,0,.9-.71,7.6,7.6,0,0,0,.69-.7c.24-.27.43-.57.65-.85,1.47-1.83-.13.85-.38,1.19A9.38,9.38,0,0,1,26.22,5.2a17.59,17.59,0,0,0-2.6,1.3,1.1,1.1,0,0,1-1.49-.28L22.45,6a3.23,3.23,0,0,0,1.32-1.78M20.5,5.35c.19-.62.31-1,.52-1.12.46-.09-.08,1.21.62,1,.87-.37.73-1.76,1.17-1.95s0,.73.46.85h.05l-.06.13a1.09,1.09,0,0,0-.08.15,3.59,3.59,0,0,1-1.89,1.68,2.76,2.76,0,0,1-.62.1,2.31,2.31,0,0,1-.72-.1,1.35,1.35,0,0,0,.55-.73M19.14,6.66a.7.7,0,0,1,.44-.14c.22,0,.43.07.65.07.43,0,.85-.23,1.29-.26s.54.79,1.11.86a4.29,4.29,0,0,0,2.26-1A1.3,1.3,0,0,1,26,5.75a5.82,5.82,0,0,1-1.09,1.78,2,2,0,0,1-2,.53.3.3,0,0,0-.42.21A2.87,2.87,0,0,1,21.94,10a4.11,4.11,0,0,1-2.3,1.7,1.35,1.35,0,0,1-1.34-.34c0-.15.32-.13.53-.13a1.89,1.89,0,0,0,1-.23,1.76,1.76,0,0,0,.85-1.31.94.94,0,0,0,0-.31c-.07-.21-.27-.08-.42.19l-.07.07a1.6,1.6,0,0,1-.53.33c-.16.07-.25,0-.32-.18a2.88,2.88,0,0,1,0-.78.06.06,0,0,0-.12,0,5.38,5.38,0,0,1-.65,1,.4.4,0,0,1-.18.08s-.06,0-.09,0a1.56,1.56,0,0,1-.07-.56h0a.06.06,0,0,0,0-.07.07.07,0,0,0-.1,0,5.54,5.54,0,0,1-.59.94.48.48,0,0,1-.34.16c-.08,0-.1-.29-.13-.43h0a.07.07,0,0,0-.07-.07.09.09,0,0,0-.11.07,2.92,2.92,0,0,1-.27.63,1.48,1.48,0,0,1-.38.37c-.08,0-.23.16-.33.14s-.09-.19,0-.21.73-.28.14-.47-.73.74-1,.8-.33-.44-.09-.78a3.76,3.76,0,0,1,1.45-.8c.43-.19.47-.61.63-1a3.29,3.29,0,0,1,1-1.15A8.43,8.43,0,0,1,18.68,7a4.92,4.92,0,0,0,.46-.37m-4.05,8.19a.67.67,0,0,1-.67-.11l-1,0c.16-.63,1.1-1.08,1.53-1.23a1.64,1.64,0,0,1,1.22.13,2.31,2.31,0,0,0,1.4-.13c.24-.14.49-.52.77-.27s0,.57-.1.68a6.22,6.22,0,0,1-1.54.15c-.43,0-1.37,0-1.55.16s.26.47-.06.64m-.59-1.5c-.14.21-.37.1-.43-.11s-.57-.38-.69-.45-.36,0-.28-.31.26-.28.26-.28l.65.4c.39.24.63.54.49.75M14.28,12c.18-.13.48-.13.56.06s.43.34.45.57,0,.41-.22.49-.35.09-.51-.3a.93.93,0,0,0-.49-.5.3.3,0,0,1,.21-.32m-.74-.06c0-.24-.32-.47-.57-.47s-.1-.38-.1-.38.33-.13.51.19.51.7.47.8-.31.09-.31-.14m-.42,1a1.1,1.1,0,0,1,.43.15c.22.13.4.39.26.56s-.29.1-.29.1a2.85,2.85,0,0,0-.27-.25c-.18-.15-.34,0-.38-.28s.25-.28.25-.28m4.59-1.17s.11-.14.16-.09a.57.57,0,0,1,.14.57c-.11.34-.16.62-.3.53s.11-.25.11-.59-.11-.42-.11-.42m.14-1a11.57,11.57,0,0,0-1.6.93c-.61.34-.73-.17-.63-.21a2.46,2.46,0,0,1,.39-.09,1.13,1.13,0,0,0,.47-.15,1,1,0,0,0,.29-.41.75.75,0,0,0,.05-.16.4.4,0,0,0,.24.14.66.66,0,0,0,.52-.24,2.21,2.21,0,0,0,.34-.48,1,1,0,0,0,0,.16.31.31,0,0,0,.33.18.62.62,0,0,0,.29-.15A2,2,0,0,0,19,9.78,1,1,0,0,0,19,10a.55.55,0,0,0,.21.34.47.47,0,0,0,.43,0,1.39,1.39,0,0,0,.21-.11,1.54,1.54,0,0,1-.5.37,9.22,9.22,0,0,1-1.51.13m-1.36,2c.37,0,.1-.6.1-.6a1.21,1.21,0,0,1,.55-.31c.43-.15.43.52.33.76a1,1,0,0,1-1.12.49c-.69-.07-.65-.68-.55-.79s.35-.08.35-.08,0,.55.34.53M18.69,14c.24-.25,1.08-.06.73,0a.57.57,0,0,0-.41.45H18.5c-.44.05-.06-.23.19-.48m.24-1.44a.47.47,0,0,1,.08-.25c.06-.09.35.05.46.22s-.11.2-.27.4-.27-.23-.27-.37m.35.82c-.05-.11.19-.34.36-.45s.08-.48.08-.48c.05-.17.43-.14.48,0a1.18,1.18,0,0,1-.27.79c-.19.25-.59.25-.65.14m-5.76-4.2a37.33,37.33,0,0,1,4.11-2.25l.57-.08a14.82,14.82,0,0,1-1.59,1.61,4.47,4.47,0,0,0-1.46.51c-.45.33-.65,1.6-.65,1.6s0,.53-.22.68a.29.29,0,0,1-.43.08s-.08-.1-.08-.63c-.17-.42,0-.93-.12-1.14a.48.48,0,0,1-.13-.38m-.75,1c.06-.21.2-.21.2-.21s.35-.13.33.15.18.93,0,.72-.61-.45-.55-.66m-.08,3.36c.22,0,.7.23.7.37s-.09.19-.18.25a1.45,1.45,0,0,1-.73-.25c-.11-.09,0-.35.21-.37m-.09.71c.69.09.31.61.31.61l-.52,0s-.24-.09-.27-.27c0-.34-.21-.46.48-.38m-1.12,4.07a1.1,1.1,0,0,1-.84-.23c-.2-.15-.65-.25-.84-.55a3.55,3.55,0,0,0-.56-.61c-.1-.13-.4-.51-.08-.56a1,1,0,0,0,.37.41c.2.08.23.42.42.66a3.9,3.9,0,0,0,1.41.56,8.27,8.27,0,0,0,1.42-.33c.16,0-.65.63-1.3.65m3.14-1.6c-.2,0-.28.17-.45.34s-.36-.26-.12-.38a.41.41,0,0,0,.12-.64c-.16-.21-.65-.08-.93,0a4.63,4.63,0,0,1-.57,0,1.23,1.23,0,0,0-.28-.46.25.25,0,0,0-.41.21c0,.25.37.17.37.17a2.45,2.45,0,0,1,0,.55c0,.12-.29.29-.78.29a4.09,4.09,0,0,1-1.09,0c-.33-.08-.13-.38-.53-.47s-.29.09-.61-.29l-.07-.1h0c0-.07,0-.15,0-.21s.13-.46.23-.47.13-.06.3-.14a.21.21,0,0,0,.13-.24,1.47,1.47,0,0,1,.17-.16,1.71,1.71,0,0,1,1.44-.37,1.25,1.25,0,0,1,.65.8s.25.32.37.3a2.17,2.17,0,0,0,.57-.26c.28-.17.93.13,1.22.09s.56.5.56.5.05.55.05.68-.09.34-.29.3m.28-1.4a3.44,3.44,0,0,1,1.65-.92c.82-.11,2.06.06,3.9,2.15s2.93,2.22,4.8,1.57a17.44,17.44,0,0,0,2.56-1.27l.51-.29,1.13-.68,1-.64s1.51-1,1.75-1.12-1,1.14-1.07,1.18l-.1.08L30,16l-1.16.73-.61.36a19,19,0,0,1-2.63,1.32h0a5.54,5.54,0,0,1-2.56.41h0c-.86-.15-1.66-.77-3-2.19-2.27-2.55-3.16-2.1-3.32-2a4,4,0,0,0-1.6.77c-.43.48-.3-.13-.3-.13m0,3a.71.71,0,0,1,.58-.62,5.12,5.12,0,0,0,1.22-.7l.79-.07c.37,0,.48-.24.49-.33s-.22-.22-.48-.24-.67,0-.55-.26,1.06-.43,1.47-.4.78.65.78.65a8.79,8.79,0,0,1-.81,1.09,9.63,9.63,0,0,0-.82,1.26c-.14.15-.73.06-.73.06l-1.43-.11c-.3,0-.52-.19-.51-.33m.7,3.28a2.13,2.13,0,0,1-.53-.81,3.23,3.23,0,0,0,1.69.3,1.56,1.56,0,0,0,.14.48c-.56,0-1.06.17-1.3,0m1.29-.93a5.24,5.24,0,0,0,.84.65c.63.42-.24.66-.44.44a1.57,1.57,0,0,1-.4-1.09m-12,3a.89.89,0,0,0,0-.71,3.62,3.62,0,0,1-.23-1.66,3.07,3.07,0,0,0,.16-1.4c-.1-.34-.17-.84.28-.91s.65.24.57.51A.92.92,0,0,1,5.3,20c-.13.05-.22.24-.07.47s.46.24.34.74a4.16,4.16,0,0,0-.35,1.64,3.92,3.92,0,0,0,.28,1,2.24,2.24,0,0,1-.58,1,5.54,5.54,0,0,0-.63.72,4.22,4.22,0,0,1,.1-1.26,6.7,6.7,0,0,0,.52-.64M3.86,26.31a17.58,17.58,0,0,1-.23-2.06c.1-.28.36-.57.24-1A4.62,4.62,0,0,0,3.42,22a1.67,1.67,0,0,1-.19-1.47c.16-.5-.1-.93.07-1.14a.39.39,0,0,1,.63-.07,1.2,1.2,0,0,1,.34.9,11.65,11.65,0,0,0-.18,1.5c0,.55.21,1.83.21,1.83s-.45.41-.39.82.08,1.05.15,1.5a4.09,4.09,0,0,0-.2.42m.38.73c.08-.83,1.14-1.51,1.3-1.6a6,6,0,0,0-.61,1.79c0,.71.1,1.2-.22,1.24s-.55-.6-.47-1.43M17,42.23a1.1,1.1,0,0,1-.6.53,10.25,10.25,0,0,1-2,.2A9.67,9.67,0,0,1,4.58,33.5a9.67,9.67,0,0,1,9.85-9.45,10.24,10.24,0,0,1,2,.19,1.12,1.12,0,0,1,.6.54,1.1,1.1,0,0,1,.08.89.83.83,0,0,1-.42.48.81.81,0,0,1-.63,0,.61.61,0,0,1-.39-.77.51.51,0,0,1,.23-.23.19.19,0,0,1,.3.13s0,.05,0,.06a.3.3,0,0,0,0,.43.31.31,0,0,0,.44,0,.67.67,0,0,0,.2-.63.84.84,0,0,0-.53-.62.81.81,0,0,0-.64.06,1.22,1.22,0,0,0-.19.12c-.37,0-.69-.06-1-.06a9,9,0,0,0-9.14,8.8,9,9,0,0,0,9.14,8.8,9.19,9.19,0,0,0,1-.06l.19.13a.9.9,0,0,0,.64.06.85.85,0,0,0,.53-.62.68.68,0,0,0-.2-.64.31.31,0,0,0-.44,0,.3.3,0,0,0,0,.43s0,0,0,.06a.21.21,0,0,1-.14.16.27.27,0,0,1-.16,0,.48.48,0,0,1-.23-.24.62.62,0,0,1,.39-.77.81.81,0,0,1,.63,0,.83.83,0,0,1,.42.48,1.11,1.11,0,0,1-.08.89m18.74,1c-1.5,2.59-5.09,4.3-9.12,4.3s-7.61-1.71-9.12-4.3a1,1,0,0,1,.06-.74v0a1.14,1.14,0,0,1,.65-.57.83.83,0,0,1,1.05.53.61.61,0,0,1-.38.77.46.46,0,0,1-.32,0,.3.3,0,0,1-.13-.11.23.23,0,0,1,.05-.21.08.08,0,0,1,.06,0,.29.29,0,0,0,.35-.24.3.3,0,0,0-.24-.36.69.69,0,0,0-.63.22.84.84,0,0,0-.17.8.79.79,0,0,0,.43.47,1.05,1.05,0,0,0,.43.11C20.36,45.76,23.37,47,26.64,47s6.29-1.21,7.92-3.16A1.14,1.14,0,0,0,35,43.7a.82.82,0,0,0,.43-.47.87.87,0,0,0-.18-.8.68.68,0,0,0-.63-.22.32.32,0,0,0-.24.36.3.3,0,0,0,.36.24.08.08,0,0,1,.06,0,.25.25,0,0,1,0,.21.32.32,0,0,1-.12.11.46.46,0,0,1-.32,0,.62.62,0,0,1-.39-.77.84.84,0,0,1,1.06-.53,1.12,1.12,0,0,1,.64.57s0,0,0,0a1,1,0,0,1,0,.74m-.16-2.1c0,.1-.05.2-.07.3a1.43,1.43,0,0,0-.28-.13,1.45,1.45,0,0,0-1.83.91,1.22,1.22,0,0,0,.49,1.4,10,10,0,0,1-7.27,2.73,10,10,0,0,1-7.26-2.73,1.21,1.21,0,0,0,.48-1.4,1.38,1.38,0,0,0-.3-.51v0a.17.17,0,0,0,0-.07.1.1,0,0,0,0,0A1.45,1.45,0,0,0,18,41.32a1.43,1.43,0,0,0-.28.13,1.09,1.09,0,0,0-.07-.3,1.43,1.43,0,0,0-.72-.84,1.47,1.47,0,0,0-1.11-.08,1.22,1.22,0,0,0-.79,1.43l-.63,0A8.37,8.37,0,0,1,5.9,33.5a8.37,8.37,0,0,1,8.53-8.18l.63,0a1.22,1.22,0,0,0,.79,1.43,1.48,1.48,0,0,0,.46.08A1.51,1.51,0,0,0,17,26.7a1.46,1.46,0,0,0,.72-.84,1.09,1.09,0,0,0,.07-.3,1.39,1.39,0,0,0,.28.12,1.43,1.43,0,0,0,1.11-.07,1.46,1.46,0,0,0,.72-.84,1.21,1.21,0,0,0-.48-1.4,10,10,0,0,1,7.26-2.73,10,10,0,0,1,7.27,2.73,1.22,1.22,0,0,0-.49,1.4,1.43,1.43,0,0,0,1.83.91,1.39,1.39,0,0,0,.28-.12c0,.1,0,.2.07.3a1.43,1.43,0,0,0,1.83.91,1.23,1.23,0,0,0,.8-1.43l.62,0a8.37,8.37,0,0,1,8.54,8.18,7.8,7.8,0,0,1-1,3.86l0,0v.06a7.94,7.94,0,0,1-1.42,1.84h0v0a8.69,8.69,0,0,1-6.06,2.43l-.62,0a1.23,1.23,0,0,0-.8-1.43,1.45,1.45,0,0,0-1.1.08,1.41,1.41,0,0,0-.73.84m11-2.95a1.43,1.43,0,0,0,.49.53,4,4,0,0,1-.29.39.67.67,0,0,1-.2-.18,3.84,3.84,0,0,1-.28-.34c.1-.13.19-.26.28-.4M38.85,43a10.15,10.15,0,0,1-2-.2,1.1,1.1,0,0,1-.6-.53,1.08,1.08,0,0,1-.09-.89.83.83,0,0,1,.42-.48.84.84,0,0,1,.64,0,.61.61,0,0,1,.38.77.45.45,0,0,1-.23.24.27.27,0,0,1-.16,0,.21.21,0,0,1-.13-.16s0-.06,0-.06a.31.31,0,0,0-.41-.46.65.65,0,0,0-.2.64.83.83,0,0,0,.53.62.88.88,0,0,0,.63-.06,1.37,1.37,0,0,0,.2-.13,9,9,0,0,0,1,.06,9.35,9.35,0,0,0,5.91-2.09,1.46,1.46,0,0,0,.25.67A10.07,10.07,0,0,1,38.85,43m6.84-2c-.08,0-.36,0-.63-.5a1.23,1.23,0,0,1-.13-.94,1.72,1.72,0,0,0,.89,1.2s0,.21-.13.24m-.1-.56a.72.72,0,0,1-.22-.24c-.07-.11-.14-.22-.19-.32A8.45,8.45,0,0,0,46,39a1.49,1.49,0,0,0,.35.65,9.63,9.63,0,0,1-.71.72M47,39.68c-.07,0-.35.09-.71-.39a1.23,1.23,0,0,1-.26-.91s.32.89,1.06,1c0,0,0,.21-.09.25m.78-1.11c-.06.06-.31.18-.79-.18a1.28,1.28,0,0,1-.52-.79,1.75,1.75,0,0,0,1.32.7s.05.21,0,.27m-.34-.46a.67.67,0,0,1-.29-.12,3,3,0,0,1-.32-.21,8.66,8.66,0,0,0,.52-1.06A1.81,1.81,0,0,0,48,37a8.55,8.55,0,0,1-.55,1.09m.73-1.32a1.42,1.42,0,0,1-1-.38,2,2,0,0,0,1.65-.23s.19.16.17.25-.16.37-.83.36m1.09-13.51c0,.93-.4,1.69-.5,2.88-.07.84-.14,1.92-.26,2.49a10.8,10.8,0,0,0-1.82-2.43.29.29,0,0,1,.12-.09c.32-.16.88.74.88.74s.07.26.07-.82a2.53,2.53,0,0,0-.51-1.64s-.12,0,.21-.41.7-.22.86-.49-.18-.74.14-.82.59-.93.59-.93c.45-.16.24.6.22,1.52m.85,3.85c-.35.41-.3,0-.3,0s0-1,0-1.88h0c0-.25.54-.8.62-.47v0a3.57,3.57,0,0,1-.3,2.31m.78-5.29c-.06.35-.51.59-.35.26h0a.47.47,0,0,0,.09-.35.59.59,0,0,1,0-.45.39.39,0,0,0-.24-.45c-.17,0-.2-.08-.12-.2a.21.21,0,0,0-.1-.32.46.46,0,0,0-.38-.08c-.16.06-.07.32,0,.4s.22.1.24.23-.19.34-.08.44.42.18.34.36-.28.23-.34.41.16.25.19.41-.15.43-.24.57.06.19.19.29.21-.12.25-.25a2.73,2.73,0,0,0,.14-.36h0c.05-.17.25-.35.23-.23-.08.34-.16.66-.23.94h0c-.06.28-.21.2-.29.4s.05.36-.15.56c-.06,0-.33.27-.32-.09s0-.43,0-.56c0-.61,0-1.33,0-1.72h0c0-.11.09-.19.07-.31s-.12-.11-.14-.19h0a1.8,1.8,0,0,0-.09-.28h0c0-.13.27-.24.17-.39s-.35-.06-.4-.19h0c-.06-.14-.12-.29-.19-.43h0c-.05-.14,0-.25.16-.4s.09-.27.22-.35,0-.25-.15-.25-.09,0-.16.09-.09.37-.15.37-.16,0-.25-.08h0l0,0h0c-.1-.17-.07-.39-.15-.57s-.23-.09-.45-.3h0a3,3,0,0,0-.38-.4h0a.29.29,0,0,1,0-.48c.17-.11.06-.37,0-.4a.3.3,0,0,0-.36.17c-.08.2,0,.47-.24.6h0a.92.92,0,0,0-.47.64,6,6,0,0,1-.43,1c-.18.26-.8.23-.58-.48a2.09,2.09,0,0,1,.63-1.05,10.13,10.13,0,0,0,1-1c.09-.16.2-.34.28-.49a.42.42,0,0,1,.52-.17l.23.11c.24.18-.23.63-.19.89s0,.81.34.85.26.27.47.49.64.22.73.05-.21-.58-.39-.49-.3,0-.17-.18.13-.45-.08-.36-.56,0-.43-.27a.39.39,0,0,1,.62-.1,2.85,2.85,0,0,1,.78,1.24c0,.07.05.16.08.24s-.11.5-.32.5-.23.25-.18.33.34.12.44,0,.23-.2.33,0h0a2.74,2.74,0,0,0,.19.44h0c.07.13-.11.2-.11.33s.28,0,.34.22a2.84,2.84,0,0,1,0,.94"/><path class="cls-1" d="M37.59,39.77A1.69,1.69,0,0,1,38.71,41a.25.25,0,0,0,.25.19,7.88,7.88,0,0,0,7.94-7.7A7.87,7.87,0,0,0,39,25.81a.23.23,0,0,0-.25.19,1.73,1.73,0,0,1-1.12,1.24,2.17,2.17,0,0,1-.62.1,2,2,0,0,1-1.76-1.14,2,2,0,0,1-.42.05A2,2,0,0,1,33,24.93a1.69,1.69,0,0,1,.14-1.39.24.24,0,0,0,0-.31,10.09,10.09,0,0,0-6.42-2.1,10.06,10.06,0,0,0-6.41,2.1.24.24,0,0,0,0,.31,1.72,1.72,0,0,1,.14,1.39,1.93,1.93,0,0,1-1,1.11,1.89,1.89,0,0,1-.87.21,2,2,0,0,1-.42-.05,1.87,1.87,0,0,1-.89.93,1.89,1.89,0,0,1-.87.21,2.11,2.11,0,0,1-.61-.1A1.73,1.73,0,0,1,14.58,26a.24.24,0,0,0-.25-.19A7.87,7.87,0,0,0,6.39,33.5a7.88,7.88,0,0,0,7.94,7.7.27.27,0,0,0,.25-.19,1.69,1.69,0,0,1,1.12-1.24,1.81,1.81,0,0,1,.61-.1,2,2,0,0,1,.87.2,1.91,1.91,0,0,1,.89.93,2,2,0,0,1,.42,0,1.94,1.94,0,0,1,1.84,1.32,1.7,1.7,0,0,1-.14,1.38.25.25,0,0,0,0,.31,10.05,10.05,0,0,0,6.42,2.1,10,10,0,0,0,6.42-2.1.24.24,0,0,0,0-.31A1.66,1.66,0,0,1,33,42.08a1.92,1.92,0,0,1,1.83-1.32,2,2,0,0,1,.42,0,1.93,1.93,0,0,1,.9-.93,2,2,0,0,1,.86-.2,1.87,1.87,0,0,1,.62.1"/><path class="cls-2" d="M64.81,33.62a4,4,0,0,0-2.6-.78H59.33v.21a1.45,1.45,0,0,1,.44.55,2.31,2.31,0,0,1,.14.92v4.16a2.27,2.27,0,0,1-.14.93,1.21,1.21,0,0,1-.44.52v.23h2.45A4.14,4.14,0,0,0,65,39.24a4.2,4.2,0,0,0,.92-2.91,3.39,3.39,0,0,0-1.07-2.71m-.73,5.23a2.14,2.14,0,0,1-1.9,1H61V33.38h1.15c1.61,0,2.42,1,2.42,3.14a4.49,4.49,0,0,1-.52,2.33"/><path class="cls-2" d="M71.75,38.93,70,36.21a3.21,3.21,0,0,0,1.36-.54,1.72,1.72,0,0,0,.73-1.38,1.21,1.21,0,0,0-.66-1.13,3.27,3.27,0,0,0-1.57-.32H67v.22a1.34,1.34,0,0,1,.44.54,2.31,2.31,0,0,1,.14.92v4.16a2.33,2.33,0,0,1-.14.93,1.21,1.21,0,0,1-.44.52v.23h2.28v-.23a1.23,1.23,0,0,1-.45-.52,2.55,2.55,0,0,1-.13-.93V36.21l2.62,4.15H73.1v-.23a1.74,1.74,0,0,1-.76-.48,5.48,5.48,0,0,1-.59-.72m-3.06-5.64h.56a2.63,2.63,0,0,1,1.12.21,1,1,0,0,1,.48.86,1.49,1.49,0,0,1-.49,1.16,2.6,2.6,0,0,1-1.67.46Z"/><path class="cls-2" d="M79.7,39.66a4,4,0,0,1-.37-.8L77.2,32.68h-.7l-2.36,6a10,10,0,0,1-.5,1.05,1.27,1.27,0,0,1-.47.43v.23H75v-.23c-.35,0-.41-.39-.17-1.08l.58-1.61h2.31l.59,1.73c.21.58.13.93-.24,1v.23h2.21v-.23a1.17,1.17,0,0,1-.53-.47M75.54,36.9l1-2.9.93,2.9Z"/><path class="cls-2" d="M85,36.07a1.19,1.19,0,0,1,.37.48,3,3,0,0,1,.13,1v2.4l-.6,0a2.49,2.49,0,0,1-2-.8,4.39,4.39,0,0,1-.65-2.56,4.61,4.61,0,0,1,.65-2.51,2.17,2.17,0,0,1,1.84-.88,1.13,1.13,0,0,1,.63.17l1.14.83h.22v-1.3a9.92,9.92,0,0,0-1.9-.24A3.66,3.66,0,0,0,82,33.77a4.34,4.34,0,0,0-1,3,4.08,4.08,0,0,0,.89,2.79,3.39,3.39,0,0,0,2.55.95,11.61,11.61,0,0,0,2.23-.25V37.53a2.75,2.75,0,0,1,.14-1,1.11,1.11,0,0,1,.37-.48v-.23H85Z"/><path class="cls-2" d="M91.62,32.68a3.08,3.08,0,0,0-2.7,1.42,5.2,5.2,0,0,0,0,5,3.26,3.26,0,0,0,5.38,0,5.13,5.13,0,0,0,0-5,3.06,3.06,0,0,0-2.68-1.42M93.28,39A1.74,1.74,0,0,1,91.69,40,1.78,1.78,0,0,1,90,39a5.19,5.19,0,0,1-.48-2.33,5.46,5.46,0,0,1,.38-2.35,1.79,1.79,0,0,1,3.26-.06,5.14,5.14,0,0,1,.49,2.32,5.31,5.31,0,0,1-.4,2.35"/><path class="cls-2" d="M100.91,33.06a1.46,1.46,0,0,1,.41.64,3.1,3.1,0,0,1,.09.82V37l-4-4.16H96.07v.22a1.46,1.46,0,0,1,.41.64,3.1,3.1,0,0,1,.09.82v4.16a3.15,3.15,0,0,1-.09.82,1.43,1.43,0,0,1-.41.63v.23h1.67v-.23a1.28,1.28,0,0,1-.41-.63,3.15,3.15,0,0,1-.09-.82V34.33l4.17,4.3v0a3.15,3.15,0,0,1-.09.82,1.43,1.43,0,0,1-.41.63v.23h1.67v-.23a1.28,1.28,0,0,1-.41-.63,3.15,3.15,0,0,1-.09-.82V34.52a3.1,3.1,0,0,1,.09-.82,1.3,1.3,0,0,1,.41-.64v-.22h-1.67Z"/><path class="cls-2" d="M115.62,39.66a3.5,3.5,0,0,1-.38-.8l-2.12-6.18h-.7l-2.37,6a8.27,8.27,0,0,1-.5,1.05,1.27,1.27,0,0,1-.47.43v.23h1.78v-.23c-.35,0-.4-.39-.16-1.08l.57-1.61h2.32l.58,1.73c.21.58.13.93-.24,1v.23h2.21v-.23a1.1,1.1,0,0,1-.52-.47m-4.17-2.76,1-2.9.92,2.9Z"/><path class="cls-2" d="M121.66,38.93,120,36.21a3.31,3.31,0,0,0,1.37-.54,1.71,1.71,0,0,0,.72-1.38,1.21,1.21,0,0,0-.66-1.13,3.25,3.25,0,0,0-1.57-.32H116.9v.22a1.45,1.45,0,0,1,.45.54,2.5,2.5,0,0,1,.14.92v4.16a2.52,2.52,0,0,1-.14.93,1.3,1.3,0,0,1-.45.52v.23h2.28v-.23a1.15,1.15,0,0,1-.44-.52,2.33,2.33,0,0,1-.14-.93V36.21l2.62,4.15H123v-.23a1.65,1.65,0,0,1-.75-.48,5.58,5.58,0,0,1-.6-.72m-3.06-5.64h.56a2.63,2.63,0,0,1,1.12.21,1,1,0,0,1,.49.86,1.49,1.49,0,0,1-.5,1.16,2.58,2.58,0,0,1-1.67.46Z"/><path class="cls-2" d="M123.15,34.35h.23l.88-.8a.92.92,0,0,1,.59-.17h.71v5.3a2.84,2.84,0,0,1-.13.93,1.16,1.16,0,0,1-.45.52v.23h2.29v-.23a1.11,1.11,0,0,1-.45-.52,2.56,2.56,0,0,1-.14-.93v-5.3h.72a.89.89,0,0,1,.58.17l.88.8h.23V32.84h-5.94Z"/><path class="cls-2" d="M139.73,39.66a1,1,0,0,1-.63.26h-1.74V36.29h.84a2.34,2.34,0,0,1,.92.16,1.82,1.82,0,0,1,.61.53H140V35.16h-.23a1.71,1.71,0,0,1-.61.53,2.35,2.35,0,0,1-.92.15h-.84V33.29h1.42a1,1,0,0,1,.58.17l.89.79h.22V32.84h-4.81v.21a1.57,1.57,0,0,1,.45.55,2.53,2.53,0,0,1,.13.92v4.16a2.55,2.55,0,0,1-.13.93,1.3,1.3,0,0,1-.45.52v.23h5.06l.2-1.52h-.23Z"/><path class="cls-2" d="M146.76,33.06a1.3,1.3,0,0,1,.41.64,3.1,3.1,0,0,1,.09.82V37l-4-4.16h-1.33v.22a1.3,1.3,0,0,1,.41.64,3.1,3.1,0,0,1,.09.82v4.16a3.15,3.15,0,0,1-.09.82,1.28,1.28,0,0,1-.41.63v.23h1.67v-.23a1.43,1.43,0,0,1-.41-.63,3.15,3.15,0,0,1-.09-.82V34.33l4.17,4.3v0a3.15,3.15,0,0,1-.09.82,1.28,1.28,0,0,1-.41.63v.23h1.67v-.23a1.43,1.43,0,0,1-.41-.63,3.15,3.15,0,0,1-.09-.82V34.52a3.1,3.1,0,0,1,.09-.82,1.46,1.46,0,0,1,.41-.64v-.22h-1.67Z"/><path class="cls-2" d="M149.27,34.35h.23l.88-.8a.92.92,0,0,1,.59-.17h.71v5.3a2.84,2.84,0,0,1-.13.93,1.16,1.16,0,0,1-.45.52v.23h2.29v-.23a1.11,1.11,0,0,1-.45-.52,2.56,2.56,0,0,1-.14-.93v-5.3h.72a.89.89,0,0,1,.58.17l.88.8h.23V32.84h-5.94Z"/><path class="cls-2" d="M160.12,39.66a1,1,0,0,1-.63.26h-1.75V36.29h.85a2.34,2.34,0,0,1,.92.16,1.82,1.82,0,0,1,.61.53h.23V35.16h-.23a1.71,1.71,0,0,1-.61.53,2.35,2.35,0,0,1-.92.15h-.85V33.29h1.43a1,1,0,0,1,.58.17l.88.79h.23V32.84h-4.81v.21a1.45,1.45,0,0,1,.44.55,2.31,2.31,0,0,1,.14.92v4.16a2.33,2.33,0,0,1-.14.93,1.21,1.21,0,0,1-.44.52v.23h5l.21-1.52h-.23Z"/><path class="cls-2" d="M167.07,38.93l-1.71-2.72a3.27,3.27,0,0,0,1.36-.54,1.71,1.71,0,0,0,.72-1.38,1.2,1.2,0,0,0-.65-1.13,3.27,3.27,0,0,0-1.57-.32h-2.91v.22a1.34,1.34,0,0,1,.44.54,2.31,2.31,0,0,1,.14.92v4.16a2.33,2.33,0,0,1-.14.93,1.21,1.21,0,0,1-.44.52v.23h2.28v-.23a1.23,1.23,0,0,1-.45-.52,2.52,2.52,0,0,1-.14-.93V36.21l2.63,4.15h1.79v-.23a1.74,1.74,0,0,1-.76-.48,5.48,5.48,0,0,1-.59-.72M164,33.29h.57a2.66,2.66,0,0,1,1.12.21,1,1,0,0,1,.48.86,1.49,1.49,0,0,1-.49,1.16A2.61,2.61,0,0,1,164,36Z"/><path class="cls-2" d="M168.56,34.35h.23l.88-.8a.89.89,0,0,1,.58-.17H171v5.3a2.87,2.87,0,0,1-.12.93,1.3,1.3,0,0,1-.45.52v.23h2.28v-.23a1.15,1.15,0,0,1-.44-.52,2.36,2.36,0,0,1-.14-.93v-5.3h.72a.84.84,0,0,1,.57.17l.89.8h.23V32.84h-5.94Z"/><path class="cls-2" d="M181.51,39.66a4,4,0,0,1-.37-.8L179,32.68h-.7l-2.36,6a10,10,0,0,1-.5,1.05,1.27,1.27,0,0,1-.47.43v.23h1.77v-.23c-.34,0-.4-.39-.16-1.08l.58-1.61h2.31l.59,1.73c.2.58.13.93-.24,1v.23H182v-.23a1.17,1.17,0,0,1-.53-.47m-4.16-2.76,1-2.9.93,2.9Z"/><path class="cls-2" d="M182.8,33.06a1.45,1.45,0,0,1,.45.54,2.49,2.49,0,0,1,.13.92v4.16a2.59,2.59,0,0,1-.13.93,1.3,1.3,0,0,1-.45.52v.23h2.28v-.23a1.23,1.23,0,0,1-.45-.52,2.56,2.56,0,0,1-.14-.93V34.52a2.47,2.47,0,0,1,.14-.92,1.36,1.36,0,0,1,.45-.54v-.22H182.8Z"/><path class="cls-2" d="M191,33.06a1.3,1.3,0,0,1,.41.64,3.05,3.05,0,0,1,.1.82V37l-4-4.16h-1.33v.22a1.3,1.3,0,0,1,.41.64,3.05,3.05,0,0,1,.1.82v4.16a3.11,3.11,0,0,1-.1.82,1.28,1.28,0,0,1-.41.63v.23h1.68v-.23a1.37,1.37,0,0,1-.42-.63,3.15,3.15,0,0,1-.09-.82V34.33l4.18,4.3v0a3.11,3.11,0,0,1-.1.82,1.28,1.28,0,0,1-.41.63v.23h1.67v-.23a1.43,1.43,0,0,1-.41-.63,3.15,3.15,0,0,1-.09-.82V34.52a3.1,3.1,0,0,1,.09-.82,1.46,1.46,0,0,1,.41-.64v-.22H191Z"/><path class="cls-2" d="M198,36.81l-2.31-4h-1.84v.22a1.46,1.46,0,0,1,.41.64,3.1,3.1,0,0,1,.09.82v4.16a3.15,3.15,0,0,1-.09.82,1.43,1.43,0,0,1-.41.63v.23h1.67v-.23a1.43,1.43,0,0,1-.41-.63,3.15,3.15,0,0,1-.09-.82V33.87l2.47,4.3h.45l2.54-4.23v4.74a2.52,2.52,0,0,1-.14.93,1.29,1.29,0,0,1-.45.52v.23h2.28v-.23a1.27,1.27,0,0,1-.44-.52,2.79,2.79,0,0,1-.13-.93V34.52a2.77,2.77,0,0,1,.13-.92,1.34,1.34,0,0,1,.44-.54v-.22h-1.79Z"/><path class="cls-2" d="M207.35,39.66a1,1,0,0,1-.63.26H205V36.29h.85a2.34,2.34,0,0,1,.92.16,1.82,1.82,0,0,1,.61.53h.23V35.16h-.23a1.71,1.71,0,0,1-.61.53,2.35,2.35,0,0,1-.92.15H205V33.29h1.42a1,1,0,0,1,.59.17l.88.79h.23V32.84h-4.81v.21a1.45,1.45,0,0,1,.44.55,2.5,2.5,0,0,1,.14.92v4.16a2.52,2.52,0,0,1-.14.93,1.21,1.21,0,0,1-.44.52v.23h5.05l.21-1.52h-.23Z"/><path class="cls-2" d="M214.38,33.06a1.46,1.46,0,0,1,.41.64,3.1,3.1,0,0,1,.09.82V37l-4-4.16h-1.33v.22a1.46,1.46,0,0,1,.41.64,3.1,3.1,0,0,1,.09.82v4.16a3.15,3.15,0,0,1-.09.82,1.43,1.43,0,0,1-.41.63v.23h1.67v-.23a1.35,1.35,0,0,1-.41-.63,3.15,3.15,0,0,1-.09-.82V34.33l4.17,4.3v0a3.15,3.15,0,0,1-.09.82,1.43,1.43,0,0,1-.41.63v.23h1.67v-.23a1.28,1.28,0,0,1-.41-.63,3.15,3.15,0,0,1-.09-.82V34.52a3.1,3.1,0,0,1,.09-.82,1.3,1.3,0,0,1,.41-.64v-.22h-1.67Z"/><path class="cls-2" d="M216.89,34.35h.23l.88-.8a.89.89,0,0,1,.58-.17h.71v5.3a2.87,2.87,0,0,1-.12.93,1.3,1.3,0,0,1-.45.52v.23H221v-.23a1.15,1.15,0,0,1-.44-.52,2.36,2.36,0,0,1-.14-.93v-5.3h.72a.84.84,0,0,1,.57.17l.89.8h.23V32.84h-5.94Z"/><path class="cls-2" d="M229.4,33.06a1.34,1.34,0,0,1,.44.54,2.28,2.28,0,0,1,.14.92v4.16a2.36,2.36,0,0,1-.14.93,1.21,1.21,0,0,1-.44.52v.23h2.28v-.23a1.16,1.16,0,0,1-.45-.52,2.56,2.56,0,0,1-.14-.93V34.52a2.47,2.47,0,0,1,.14-.92,1.28,1.28,0,0,1,.45-.54v-.22H229.4Z"/><path class="cls-2" d="M237.63,33.06a1.3,1.3,0,0,1,.41.64,3.1,3.1,0,0,1,.09.82V37l-4-4.16h-1.33v.22a1.3,1.3,0,0,1,.41.64,3.05,3.05,0,0,1,.1.82v4.16a3.11,3.11,0,0,1-.1.82,1.28,1.28,0,0,1-.41.63v.23h1.68v-.23a1.37,1.37,0,0,1-.42-.63,3.15,3.15,0,0,1-.09-.82V34.33l4.17,4.3v0a3.15,3.15,0,0,1-.09.82,1.28,1.28,0,0,1-.41.63v.23h1.67v-.23a1.43,1.43,0,0,1-.41-.63,3.15,3.15,0,0,1-.09-.82V34.52a3.1,3.1,0,0,1,.09-.82,1.46,1.46,0,0,1,.41-.64v-.22h-1.67Z"/><path class="cls-2" d="M244.83,39.81a1.17,1.17,0,0,1-.65.17,2.14,2.14,0,0,1-2.09-1.31,5.07,5.07,0,0,1-.39-2.06,4.56,4.56,0,0,1,.65-2.51,2.17,2.17,0,0,1,1.84-.88,1.13,1.13,0,0,1,.63.17l1.13.83h.23v-1.3a9.65,9.65,0,0,0-1.9-.24,3.65,3.65,0,0,0-2.84,1.09,4.34,4.34,0,0,0-1,3,4.27,4.27,0,0,0,.58,2.34,3.45,3.45,0,0,0,3.12,1.4,10.53,10.53,0,0,0,2.06-.24V39H246Z"/><path class="cls-2" d="M248.59,39.28a.77.77,0,0,0-1,0,.73.73,0,0,0-.21.52.7.7,0,0,0,.21.52.77.77,0,0,0,1,0,.71.71,0,0,0,.22-.52.74.74,0,0,0-.22-.52"/><path class="cls-2" d="M76.58,25.86a2.59,2.59,0,0,1-1.46,1.56,1.14,1.14,0,0,1-.61.08,2.09,2.09,0,0,1-.64-.17,8,8,0,0,0-1.79-.44c-.79-.13-1.86-.24-3.21-.34a.65.65,0,0,0-.51.1.79.79,0,0,0-.13.6,3.15,3.15,0,0,1-.13,1.28,1,1,0,0,1-.75.44c-.43.07-.71,0-.83-.19a2.28,2.28,0,0,1-.11-1.24,1.13,1.13,0,0,0-.18-.83.74.74,0,0,0-.62-.22c-.69,0-1.36.06-2,.1s-1.27.11-1.83.19-1,.16-1.48.25a5.29,5.29,0,0,0-1,.28c-.45.21-.77.23-1,.07s-.19-.44,0-.81a1.73,1.73,0,0,1,.59-.86.65.65,0,0,1,.58-.08,1.64,1.64,0,0,0,.45.11,2.6,2.6,0,0,0,.55,0c.49-.07,1.2-.13,2.12-.17s2-.07,3.11-.09a.74.74,0,0,0,.48-.11.44.44,0,0,0,.14-.32c0-.1,0-.17,0-.19a.24.24,0,0,0-.16,0l-2.32.06c-.59,0-1,0-1.38,0s-.57,0-.72,0l-.29.05a.36.36,0,0,1-.37,0,.27.27,0,0,1-.15-.29,1.14,1.14,0,0,1,.25-.6.39.39,0,0,1,.23-.15.46.46,0,0,1,.26,0A1,1,0,0,0,62,24l.5,0c.13,0,.19-.07.17-.18s0-.26-.07-.37,0-.21,0-.33-.07-.13-.2-.12a7.88,7.88,0,0,0-1.07.15,5.18,5.18,0,0,0-.86.26.4.4,0,0,1-.37,0,.33.33,0,0,1-.19-.28.94.94,0,0,1,.12-.52,2.3,2.3,0,0,1,.54-.66.39.39,0,0,1,.5-.1,1.12,1.12,0,0,0,.39.1,5.76,5.76,0,0,0,.59,0h.17l.18,0a.18.18,0,0,0,.18-.14.89.89,0,0,1,.28-.6,1,1,0,0,1,.5-.22.67.67,0,0,1,.49.13,1.29,1.29,0,0,1,.35.67c0,.11.09.16.17.16h2a.19.19,0,0,0,.13,0,.24.24,0,0,0,0-.15v-.83c0-.1-.07-.14-.2-.14-1.14,0-2.07,0-2.78.07a7,7,0,0,0-1.57.2.44.44,0,0,1-.41,0,.32.32,0,0,1-.14-.29,1.13,1.13,0,0,1,.36-.72.66.66,0,0,1,.29-.22.3.3,0,0,1,.29,0,.91.91,0,0,0,.38.13,1.83,1.83,0,0,0,.52,0l.28,0h.38c.11,0,.12,0,0-.08a.67.67,0,0,1-.24-.28,1.87,1.87,0,0,1-.13-.4.17.17,0,0,0-.09-.1.53.53,0,0,0-.28,0c-.36,0-.68,0-.95.06a5.88,5.88,0,0,0-.7.1,4.16,4.16,0,0,0-.56.14l-.5.19a.38.38,0,0,1-.44-.1.56.56,0,0,1-.11-.55,1.14,1.14,0,0,1,.2-.42,2,2,0,0,1,.44-.44.49.49,0,0,1,.49-.09,1.06,1.06,0,0,0,.37.09,1.41,1.41,0,0,0,.41,0h1.35a.25.25,0,0,0,.2-.06.45.45,0,0,0,.07-.26,1.09,1.09,0,0,1,.27-.71,1.27,1.27,0,0,1,1.37,0,1.14,1.14,0,0,1,.28.71.74.74,0,0,0,.08.3.28.28,0,0,0,.21.06h3.45a.17.17,0,0,0,.15,0,.75.75,0,0,0,.09-.24,1.33,1.33,0,0,1,.26-.7.93.93,0,0,1,.62-.23.85.85,0,0,1,1.05.89.7.7,0,0,0,.06.29s.09.06.19.06l1.38,0a8.41,8.41,0,0,1,.89,0,.69.69,0,0,1,.36.13.41.41,0,0,1,.07.32.74.74,0,0,1-.15.43.4.4,0,0,1-.32.08c-.29,0-.63,0-1-.05l-1.37,0c-.16,0-.24.05-.25.14a1.22,1.22,0,0,1-.27.55.92.92,0,0,1-.61.15.67.67,0,0,1-.56-.12.79.79,0,0,1-.18-.56c0-.12-.1-.18-.28-.18h-2l-1.84,0a.23.23,0,0,0-.25.16,1.11,1.11,0,0,1-.43.68s0,.05,0,.07,0,0,.08,0h7a4.93,4.93,0,0,1,.61,0l.43,0a.46.46,0,0,1,.32.1.54.54,0,0,1,.11.34.44.44,0,0,1-.07.3c0,.05-.16.07-.34.06-.47,0-1.09-.05-1.87-.05H68.5q-.21,0-.21.15v.88c0,.09.07.14.21.14h1.66q.21,0,.21-.12a1.11,1.11,0,0,1,.24-.71.94.94,0,0,1,.58-.22.69.69,0,0,1,.61.17,1.28,1.28,0,0,1,.25.72c0,.12.09.18.22.18l1.11,0c.32,0,.57,0,.74,0a.37.37,0,0,1,.26.1.67.67,0,0,1,0,.35.51.51,0,0,1-.22.39,1.14,1.14,0,0,1-.65.08,5.79,5.79,0,0,0-.65,0l-.72,0c-.12,0-.18,0-.2.13a3.25,3.25,0,0,1-.19.84c0,.12,0,.18.1.18l.5,0,.32,0a.64.64,0,0,1,.33.1.5.5,0,0,1,.1.35.49.49,0,0,1-.07.29.44.44,0,0,1-.32.06c-.46,0-1.06,0-1.8,0s-1.54,0-2.4,0c-.13,0-.2.05-.2.15,0,.32.17.47.49.47h.67l1,0,1.09,0,1,0c.35,0,.73,0,1.12,0h2.08l.65,0c.2,0,.27.07.19.29M66.47,22.93c0-.09-.07-.13-.2-.13l-1,0c-.31,0-.62,0-.92,0-.1,0-.17,0-.19,0a.21.21,0,0,0-.06.15c0,.11,0,.22-.06.35a3.29,3.29,0,0,1-.1.37c0,.12,0,.18.1.18h2.22a.24.24,0,0,0,.15,0,.19.19,0,0,0,0-.13c0-.14,0-.28,0-.42s0-.27,0-.42m4.12.9a3,3,0,0,1-.09-.43c0-.14,0-.29-.07-.45a.13.13,0,0,0-.15-.13c-.3,0-.61,0-.91,0h-.93a.13.13,0,0,0-.15.15c0,.12,0,.24,0,.37v.47c0,.11.08.16.22.16h1.91c.13,0,.18,0,.16-.14"/><path class="cls-2" d="M95.87,25.92a2.86,2.86,0,0,1-.59.52,3.2,3.2,0,0,1-1,.36,3.68,3.68,0,0,1-.41.08,3.13,3.13,0,0,1-.52,0q-.33,0-.81-.12l-1.27-.24q-.27-.06-.72-.12l-1.12-.12c-.07,0-.12,0-.12,0s0,.05.11.08l.28.11a3.89,3.89,0,0,1,.38.16l.55.21c.27.1.59.2,1,.3l.46.16c.18.06.35.13.54.21l.5.24a2.75,2.75,0,0,1,.36.19c.33.21.44.38.31.51s-.6.13-1.41,0l-.57-.1-.38-.08-.26-.07L91,28.15a.3.3,0,0,0-.26,0,12.84,12.84,0,0,1-1.37.53,5.08,5.08,0,0,1-1.2.23,7.43,7.43,0,0,1-1.31-.06c-.47-.07-1-.17-1.68-.31a5,5,0,0,0-1.3-.15,11.35,11.35,0,0,0-1.41.13,1.66,1.66,0,0,1-1-.07.59.59,0,0,1-.34-.44.55.55,0,0,1,.22-.56,2.88,2.88,0,0,1,1.28-.32,6.61,6.61,0,0,0,1.65-.3,2.29,2.29,0,0,0,.87-.5s0-.08-.1-.08l-1.06,0-.87,0a15.94,15.94,0,0,0-2.18.24,13.77,13.77,0,0,0-1.72.46,1.42,1.42,0,0,1-.69.13.77.77,0,0,1-.45-.18c-.2-.2-.22-.39,0-.57a4.87,4.87,0,0,1,.49-.42,3.16,3.16,0,0,1,.72-.32,2.37,2.37,0,0,1,.65-.15,3.31,3.31,0,0,1,.66.05,3.3,3.3,0,0,0,.57.06H82l.82,0,.7,0c.77-.05,1.55-.09,2.35-.12s1.72,0,2.77,0q1,0,2.1,0h4.73a.66.66,0,0,1,.51.12c.07.09.06.21-.06.35M83.2,19.28a2.69,2.69,0,0,0-.23-.43.28.28,0,0,0-.22-.07c-.81,0-1.41.07-1.81.11a4,4,0,0,0-.92.18,2.22,2.22,0,0,1-.61.15.34.34,0,0,1-.27-.15.42.42,0,0,1-.09-.42,2.28,2.28,0,0,1,.58-.66,1.42,1.42,0,0,1,.6-.31,1,1,0,0,1,.57,0,2,2,0,0,0,.62.12,13,13,0,0,0,1.33,0,.41.41,0,0,0,.21,0,.28.28,0,0,0,.1-.19c0-.11,0-.2.07-.29a.73.73,0,0,1,.09-.22.54.54,0,0,1,.28-.22,1.63,1.63,0,0,1,.45-.09,1.17,1.17,0,0,1,.49.05,1.06,1.06,0,0,1,.42.22.81.81,0,0,1,.23.49c0,.17.13.25.28.25H87l1.94,0a.25.25,0,0,0,.19-.07.52.52,0,0,0,.12-.28.92.92,0,0,1,.06-.25,1.43,1.43,0,0,1,.08-.22.51.51,0,0,1,.29-.21,1,1,0,0,1,.47-.07,1.48,1.48,0,0,1,.5.1.9.9,0,0,1,.4.26,2.08,2.08,0,0,1,.19.49.45.45,0,0,0,.12.23.5.5,0,0,0,.29.06l1.8.06a7.43,7.43,0,0,1,.86,0c.28,0,.45.1.5.24s0,.3-.19.48a.71.71,0,0,1-.33.12,7.32,7.32,0,0,1-.82,0l-1,0H91.4a.3.3,0,0,0-.2.09c-.06.07-.19.22-.37.47a.63.63,0,0,1-.33.26c-.12,0-.16.09-.14.17a1,1,0,0,1,.06.33c0,.08.07.12.2.12h.29l.21,0a.34.34,0,0,0,.32-.08,1.2,1.2,0,0,1,.55-.13,1.65,1.65,0,0,1,.66.13c.26.11.4.23.43.36a.79.79,0,0,1-.28.56,1.46,1.46,0,0,0-.3.68,1.51,1.51,0,0,0,0,.74.56.56,0,0,0,.27.38,2.49,2.49,0,0,0,.82.11,1.44,1.44,0,0,0,.68-.11,2,2,0,0,0,.67-.49c.2-.21.35-.28.48-.21s.14.25.07.52a6.72,6.72,0,0,1-.39,1,2.77,2.77,0,0,1-.4.62,1.2,1.2,0,0,1-.43.31,1.54,1.54,0,0,1-.46.11,4.4,4.4,0,0,1-.5,0,2.18,2.18,0,0,1-.38-.05,1.34,1.34,0,0,1-.36-.14,3.29,3.29,0,0,1-.42-.25,2,2,0,0,1-1-1.6c0-.22,0-.48,0-.77a4.51,4.51,0,0,1,.07-.73c0-.23,0-.34-.23-.36h-.21l-.26,0c-.13,0-.21.05-.23.1a3.6,3.6,0,0,1-.09.42c0,.1-.08.22-.15.36a.48.48,0,0,0-.07.31c0,.07.1.13.25.18a1.17,1.17,0,0,1,.58.37.23.23,0,0,1,0,.33,1.11,1.11,0,0,1-.44.25.69.69,0,0,1-.49,0l-.21-.1a.91.91,0,0,1-.16-.1c-.14-.09-.23-.1-.3,0a3.26,3.26,0,0,1-.49.57,2.89,2.89,0,0,1-.54.39,1.19,1.19,0,0,1-.65.2,1.68,1.68,0,0,1-.78-.3c-.15-.09-.23-.18-.22-.27s.06-.15.16-.18l.47-.17a2,2,0,0,0,.36-.18,2.27,2.27,0,0,0,.32-.22c.09-.09.2-.2.32-.34s.1-.21,0-.28a1,1,0,0,1-.41-.36.27.27,0,0,1,0-.26.48.48,0,0,1,.33-.1,1.1,1.1,0,0,1,.51.08.19.19,0,0,0,.2-.05.38.38,0,0,0,.09-.28c0-.12,0-.17-.16-.14l-.48,0a2.74,2.74,0,0,0-.51.06l-.21,0a.56.56,0,0,0-.2.09.66.66,0,0,1-.37.1h-.7c-.11,0-.12,0,0,.12a1.37,1.37,0,0,0,.6.41c.18.06.27.15.26.25s-.1.17-.24.2a1.54,1.54,0,0,1-.55,0,2.59,2.59,0,0,1-.57-.22,2,2,0,0,1-.45-.3c-.12-.11-.19-.2-.19-.28s-.05-.12-.15-.12h-2c-.08,0-.11,0-.1.08a.43.43,0,0,1,0,.36,1.24,1.24,0,0,1-.4.32,5.93,5.93,0,0,1-.86.38,9.43,9.43,0,0,1-1,.32,4.19,4.19,0,0,1-.81.15.47.47,0,0,1-.37-.09c-.15-.13-.13-.23.06-.31a8.09,8.09,0,0,0,1.09-.46,7.22,7.22,0,0,0,.92-.55s.06-.06,0-.08,0,0-.11,0a3.69,3.69,0,0,0-.56.11,2.87,2.87,0,0,0-.44.12.51.51,0,0,1-.36,0,.36.36,0,0,1-.21-.19.48.48,0,0,1,0-.29.45.45,0,0,1,.2-.24,3,3,0,0,1,.57-.23,1,1,0,0,1,.54,0,1.76,1.76,0,0,0,.41,0c.21,0,.42,0,.63,0h.84c.19,0,.29-.07.29-.21a.17.17,0,0,0-.07-.15,1.07,1.07,0,0,0-.36-.07l-.33,0-.45,0-.46,0-.36,0c-.22,0-.36,0-.4-.12s0-.27.26-.46a1.18,1.18,0,0,1,.47-.29,1.44,1.44,0,0,1,.59.05,1.55,1.55,0,0,0,.42.07l.49,0c.15,0,.21-.05.18-.16s0-.13,0-.17a.19.19,0,0,0,0-.24m3,4.55a4.2,4.2,0,0,1-.48.07L85.1,24l-.58.05-.5,0-1,.08c-.35,0-.71.05-1.06.09a4.56,4.56,0,0,0-1.27.28c-.32.11-.54.1-.63-.05s0-.34.18-.58a1.17,1.17,0,0,1,.52-.29,1.14,1.14,0,0,1,.58,0,.85.85,0,0,0,.25,0l.57-.05.32,0,.36,0a.28.28,0,0,0,.31-.31s0-.07-.07-.1a1.18,1.18,0,0,0-.36-.08,3.19,3.19,0,0,0-.49,0l-.56.08c-.18,0-.3,0-.34-.11s0-.24.24-.38a1.22,1.22,0,0,1,.41-.15.77.77,0,0,1,.39,0,1.37,1.37,0,0,0,.25.05,1.88,1.88,0,0,0,.34,0c.13,0,.18-.05.17-.17a.43.43,0,0,1,.13-.54,1.37,1.37,0,0,1,.93,0,.88.88,0,0,1,.48.16c.07.06.08.21,0,.43s0,.17.12.17h1.07a2.49,2.49,0,0,1,.68.08c.07,0,.07.1,0,.18a.71.71,0,0,1-.61.25H84.78c-.18,0-.29.05-.31.16s0,.26.27.23l.63,0h.8c.17,0,.25.06.25.19s-.08.2-.25.22m5.7.92a.3.3,0,0,1-.2.21A1.61,1.61,0,0,1,91,25H85.82l-1.92.09a9.6,9.6,0,0,0-1,.11,4.09,4.09,0,0,1-.82.07.69.69,0,0,1-.43-.19.23.23,0,0,1-.07-.31,1,1,0,0,1,.54-.33,2.6,2.6,0,0,1,.74-.19,2.34,2.34,0,0,1,.76.07l.16,0h6.88c.33,0,.55,0,.65,0,.4,0,.59.15.57.35m-2.62-5.66a.63.63,0,0,0-.17-.29.2.2,0,0,0-.14-.06l-1.75-.06c-.56,0-1.18,0-1.84,0a.38.38,0,0,0-.23.1,3.7,3.7,0,0,0-.4.52.51.51,0,0,0,0,.35c0,.12.09.18.14.18h1.25q.51,0,.63.15a.19.19,0,0,1,.05.26.6.6,0,0,1-.21.21,1.24,1.24,0,0,1-.39,0H84.88c-.18,0-.29.06-.31.16s.08.2.29.2h2a.27.27,0,0,0,.23-.11.92.92,0,0,1,.47-.37.82.82,0,0,1,.47-.06h.72c.2,0,.28-.05.26-.16a1.34,1.34,0,0,0-.12-.37.36.36,0,0,1,0-.28.35.35,0,0,1,.28-.21c.11,0,.13-.1.08-.23m.23,8.37c.08-.05.06-.1,0-.15a5.35,5.35,0,0,0-.55-.16L88.29,27c-.3-.06-.46-.17-.49-.32s0-.27.24-.38.12-.12,0-.12h-.55a.61.61,0,0,0-.19,0s0,.06,0,.12a.19.19,0,0,1-.08.16,1.31,1.31,0,0,1-.37.15,7.32,7.32,0,0,0-.8.3,2.38,2.38,0,0,0-.41.23,1.12,1.12,0,0,0-.29.23s0,.08.08.1a3.61,3.61,0,0,0,.9.18c.4,0,.81.05,1.23.05s.82,0,1.19-.08a2.21,2.21,0,0,0,.79-.21"/><path class="cls-2" d="M104.2,26.56c-.13.29-.36.36-.7.2l-.48-.22-.38-.19a.22.22,0,0,0-.29,0,6.88,6.88,0,0,1-1.26,1,5,5,0,0,1-1.18.56,2.9,2.9,0,0,1-1.06.14,1.81,1.81,0,0,1-.83-.26c-.38-.22-.56-.43-.54-.62s.2-.31.54-.35a7.11,7.11,0,0,0,1.62-.41,5.85,5.85,0,0,0,1.4-.84c.14-.11.15-.22,0-.33a3.55,3.55,0,0,1-1.27-1.54,3,3,0,0,1-.1-1.61c0-.15,0-.23-.23-.23a2.59,2.59,0,0,0-1.44.37c-.23.12-.39.09-.48-.1a1.12,1.12,0,0,1,.1-.9,1.37,1.37,0,0,1,.56-.6.8.8,0,0,1,.71,0,1.17,1.17,0,0,0,.33.09.63.63,0,0,0,.32-.09l.19-.07.26,0c.07,0,.15-.11.23-.27a17.77,17.77,0,0,1,.74-1.75,4.28,4.28,0,0,1,.63-1,.86.86,0,0,1,.57-.35,1.12,1.12,0,0,1,.6.12.7.7,0,0,1,.36.62,1.5,1.5,0,0,1-.32.94c-.21.3-.37.54-.47.71s-.22.37-.35.6-.06.32.09.33a1.68,1.68,0,0,0,.63,0,2.08,2.08,0,0,0,.53-.2.42.42,0,0,1,.35,0,1.85,1.85,0,0,1,.55.41.88.88,0,0,1,.23.59,1,1,0,0,1-.18.6,1.74,1.74,0,0,0-.15.39,4.8,4.8,0,0,0-.18.66,10.8,10.8,0,0,1-.31,1.16,6,6,0,0,1-.37.89.28.28,0,0,0,0,.18.33.33,0,0,0,.1.14,3.92,3.92,0,0,0,.32.25l.4.27c.18.12.29.23.31.32a.53.53,0,0,1-.08.38m-1.6-4.19c0-.61-.21-.87-.74-.76a1.61,1.61,0,0,0-.39.09.34.34,0,0,0-.16.22,2.12,2.12,0,0,0-.09,1.15,2.51,2.51,0,0,0,.62,1.09c.12.13.22.11.31-.05a3.71,3.71,0,0,0,.29-.81,5.86,5.86,0,0,0,.16-.93M114,24.14c.37,0,.67,0,.92,0a6.74,6.74,0,0,0,.68,0,.22.22,0,0,1,.26.11.43.43,0,0,1-.08.37,2.34,2.34,0,0,1-.36.51,4.21,4.21,0,0,1-.66.57c-.29.22-1,.14-2.06-.24a6.8,6.8,0,0,0-.89-.19c-.4-.07-.92-.13-1.55-.2a1,1,0,0,0-.57.08,1,1,0,0,0-.37.39c-.17.3-.33.57-.48.8a5.58,5.58,0,0,1-.47.64,5.11,5.11,0,0,1-.52.52,4.42,4.42,0,0,1-.62.48,3,3,0,0,1-2,.74,1.91,1.91,0,0,1-1.41-.89.43.43,0,0,1-.1-.41c0-.11.17-.17.4-.2a6,6,0,0,0,1.83-.43,3.21,3.21,0,0,0,1.43-1.23c.16-.23.24-.38.21-.45s-.17-.1-.43-.1a11.14,11.14,0,0,0-1.72.11,6.2,6.2,0,0,0-1.23.34.37.37,0,0,1-.45,0,.53.53,0,0,1-.07-.51,1.39,1.39,0,0,1,.56-.9.86.86,0,0,1,.47-.19,1,1,0,0,1,.49.07,2.08,2.08,0,0,0,.82.1,5.32,5.32,0,0,1,.69,0c.23,0,.57,0,1,0a.41.41,0,0,0,.39-.18,2.32,2.32,0,0,0,.21-.91c0-.12,0-.2,0-.23a.3.3,0,0,0-.18,0l-.85,0c-.23,0-.42,0-.57.05l-.38.07a1.42,1.42,0,0,0-.29.1,2.27,2.27,0,0,1-.71.17.84.84,0,0,1-.52-.19.63.63,0,0,1-.1-.94,1.14,1.14,0,0,0,.11-.33c0-.16.06-.33.08-.53a5.68,5.68,0,0,0,0-.59c0-.21,0-.39,0-.56a1,1,0,0,1,.06-.59,1.09,1.09,0,0,1,.54-.35.58.58,0,0,1,.57.07.61.61,0,0,1,.23.58c0,.63-.06,1.15-.11,1.56a.82.82,0,0,0,0,.49c.06.12.19.16.38.13.52-.05,1.05-.09,1.57-.11s1,0,1.48,0,.9,0,1.29.05.71.08,1,.13a.62.62,0,0,0,.33,0,1.47,1.47,0,0,0,.42-.18,1.08,1.08,0,0,1,.44-.14.69.69,0,0,1,.43,0,.59.59,0,0,1,.33.39,1.26,1.26,0,0,1-.09.62,3.42,3.42,0,0,0-.14.55,6,6,0,0,0,0,.8.28.28,0,0,0,.06.2s.14.05.29.05m-1.07-5.4c0,.22-.07.44-.1.66s-.05.52-.08.9a1.47,1.47,0,0,1-.13.46.85.85,0,0,1-.37.32.91.91,0,0,1-.43.06,1.22,1.22,0,0,1-.49-.12l-.36,0-.72,0-.87,0-.8,0a3.5,3.5,0,0,0-.46.07,2.14,2.14,0,0,0-.42.15.52.52,0,0,1-.35,0,.64.64,0,0,1-.38-.23,1.1,1.1,0,0,1-.15-.55c0-.38-.06-.73-.11-1a4.82,4.82,0,0,0-.14-.72,1.26,1.26,0,0,1,0-.92.77.77,0,0,1,.59-.5q.33-.11.45,0a2.06,2.06,0,0,0,1,.37c.58,0,1.06,0,1.43,0s.67,0,.88,0a2.46,2.46,0,0,0,.46,0,.37.37,0,0,0,.19-.09.8.8,0,0,1,1,0,1,1,0,0,1,.33.5,1.37,1.37,0,0,1,0,.73m-1.52.13a.26.26,0,0,0-.1-.22,1.11,1.11,0,0,0-.43-.11,14.54,14.54,0,0,0-2.22-.06.59.59,0,0,0-.42.16.83.83,0,0,0-.09.57,1,1,0,0,0,.12.55.64.64,0,0,0,.46.19h.8l1.35-.07a.7.7,0,0,0,.35-.08.43.43,0,0,0,.12-.17,3.53,3.53,0,0,0,.06-.77m-1.45,4a3,3,0,0,0-.06.92c0,.14.16.22.36.23l.69,0,1,0c.11,0,.17-.1.2-.3a2.41,2.41,0,0,0,0-.66.51.51,0,0,0-.12-.36.35.35,0,0,0-.25-.09l-.62,0-.9-.06c-.15,0-.24.09-.28.28m4.28,5.75c0,.08-.14.12-.29.11a3,3,0,0,1-.69-.18,10.88,10.88,0,0,1-1.6-.78,7.1,7.1,0,0,1-1.21-1,.8.8,0,0,1-.22-.63.93.93,0,0,1,.26-.66.71.71,0,0,1,.58-.18,1.1,1.1,0,0,1,.69.43,11.89,11.89,0,0,0,1.21,1.28,7.13,7.13,0,0,0,1.11.85.51.51,0,0,1,.16.72"/><path class="cls-2" d="M134.42,27.66a2.09,2.09,0,0,1-1.3.84,2.49,2.49,0,0,1-1.67-.45c-.83-.5-1.6-1-2.3-1.47s-1.36-1-2-1.46c-.14-.1-.22-.07-.22.1,0,.47,0,.85,0,1.14s0,.49,0,.6a6.53,6.53,0,0,1,0,.92,1.51,1.51,0,0,1-.1.58.62.62,0,0,1-.29.33,2.17,2.17,0,0,1-.52.2c-.42.1-.72.05-.88-.15a2.49,2.49,0,0,1-.21-1.44q0-.24,0-.78c0-.35,0-.76,0-1.25,0-.1,0-.15-.07-.16s-.13,0-.26.14a16.45,16.45,0,0,1-1.94,1.36,18.61,18.61,0,0,1-2.18,1.12,4.4,4.4,0,0,1-1,.36,2,2,0,0,1-.82,0,1.64,1.64,0,0,1-.65-.37,3.89,3.89,0,0,1-.59-.69.27.27,0,0,1,0-.3c0-.1.16-.16.35-.19a12.25,12.25,0,0,0,1.44-.26,13.89,13.89,0,0,0,1.52-.45c.51-.17,1-.36,1.49-.56s.93-.41,1.36-.62c.12-.06.18-.12.17-.16s-.09-.05-.26,0c-1,0-1.81.09-2.48.15a10.09,10.09,0,0,0-1.45.22,3.49,3.49,0,0,1-1.16.16.39.39,0,0,1-.38-.36.64.64,0,0,1,.15-.51,3.19,3.19,0,0,1,.69-.62,1.46,1.46,0,0,1,.59-.25.84.84,0,0,1,.5.05l.23.07a1.94,1.94,0,0,0,.33.05l.51,0H125c.12,0,.18-.05.18-.16a3.11,3.11,0,0,1,0-.7c0-.1,0-.15-.1-.15l-.37,0a.28.28,0,0,0-.2,0,.34.34,0,0,0-.13.14c0,.11-.14.16-.3.18a.4.4,0,0,1-.42-.2.88.88,0,0,1-.14-.6c0-.2,0-.41,0-.65s0-.47,0-.72,0-.49-.06-.74-.06-.48-.1-.68a1.64,1.64,0,0,1,.07-1.11c.14-.17.28-.22.42-.12a.43.43,0,0,0,.32,0,.56.56,0,0,0,.29-.13,1.09,1.09,0,0,0,.29-.63.79.79,0,0,1,.41-.68,1.1,1.1,0,0,1,1,.06c.27.12.42.25.46.41a.42.42,0,0,1-.17.43l-.22.17-.19.16c-.07.06-.09.12-.08.16s.07.05.18.05h.54a3,3,0,0,1,.41,0,.7.7,0,0,0,.32,0l.19-.08a.54.54,0,0,1,.66.07.63.63,0,0,1,.21.43,2.3,2.3,0,0,1,0,.69c0,.11,0,.13.08.06a1.43,1.43,0,0,1,.37-.28,3.87,3.87,0,0,0,.93-.67,2.72,2.72,0,0,0,.69-1,.72.72,0,0,1,.53-.52,1,1,0,0,1,.82.25.6.6,0,0,1,.23.51c0,.17-.19.36-.49.58l-.63.48a8.47,8.47,0,0,0-.7.62c-.27.26-.4.45-.38.57s.17.17.44.15a.82.82,0,0,1,.21,0l.16,0c.2,0,.32-.07.37-.14a3.24,3.24,0,0,0,.24-.31c.06-.1.13-.21.19-.33a.92.92,0,0,1,.63-.5.61.61,0,0,1,.66.24.49.49,0,0,1,.12.4.61.61,0,0,1-.29.38l-1.11.81c-.35.26-.7.53-1,.82s-.34.36-.28.47.27.15.65.11l.48-.08.42-.09c.17-.06.2-.15.1-.28a.46.46,0,0,1-.09-.45c0-.17.19-.27.44-.31a.54.54,0,0,1,.4.06.37.37,0,0,1,.2.23,6.05,6.05,0,0,0,.2.73,4.53,4.53,0,0,0,.33.78c.1.22.1.35,0,.4s-.25,0-.43-.15a1.71,1.71,0,0,1-.21-.19l-.24-.24s-.1,0-.2,0a1.82,1.82,0,0,1-.58.28,1.93,1.93,0,0,1-.57.09,3.84,3.84,0,0,0-.78.07,4.94,4.94,0,0,0-.64.17.87.87,0,0,1-.69,0,.62.62,0,0,1-.37-.54.72.72,0,0,1,.07-.41.79.79,0,0,1,.36-.29,1.63,1.63,0,0,0,.43-.29,2.76,2.76,0,0,0,.47-.55c.13-.19.07-.28-.17-.28a1.57,1.57,0,0,0-.49.08.75.75,0,0,1-.51,0,.72.72,0,0,1-.37-.22s0-.06-.08,0,0,0,0,.07c0,.43,0,1,0,1.64a1.11,1.11,0,0,1-.13.6.56.56,0,0,1-.47.25.22.22,0,0,1-.2-.05,1.12,1.12,0,0,1-.17-.2.43.43,0,0,0-.2-.12c-.08,0-.1,0-.08.1a.68.68,0,0,1,0,.31,1.41,1.41,0,0,0,0,.18v.17c0,.08,0,.13,0,.15a.57.57,0,0,0,.25,0l.9,0h1.29l1.6,0,1.81,0a.7.7,0,0,1,.44.12c.07.06.09.17,0,.33a.9.9,0,0,1-.33.54,1.51,1.51,0,0,1-.83.1c-1.4-.07-2.73-.11-4-.11-.22,0-.24,0-.06.13a25.43,25.43,0,0,0,3.16,1.27,15.5,15.5,0,0,0,2.74.65c.4.05.63.15.69.31s-.06.42-.36.8m-11.14-5.25c.06.22,0,.35,0,.4s-.21,0-.39-.15l-.1-.1-.14-.15c-.08-.08-.15-.09-.23,0l-.39.19a1.64,1.64,0,0,1-.41.12c-.46.08-.82.15-1.09.22a4.61,4.61,0,0,0-.61.21.86.86,0,0,1-.79,0,.65.65,0,0,1-.34-.55.67.67,0,0,1,.08-.47.86.86,0,0,1,.48-.29,1.35,1.35,0,0,0,.29-.15,5,5,0,0,0,.55-.44,1,1,0,0,0,.26-.25.2.2,0,0,0,0-.19.15.15,0,0,0-.12-.13,1.3,1.3,0,0,0-.44,0q-1,.08-1.23-.51c-.26-.61,0-1.05.76-1.31a3.49,3.49,0,0,0,1.22-.68,2.57,2.57,0,0,0,.67-.9,1,1,0,0,1,.57-.59.6.6,0,0,1,.68.18c.26.24.39.45.37.66s-.17.42-.48.65l-.7.52-.75.53c-.3.23-.47.4-.51.54s0,.27.22.38a.66.66,0,0,0,.33.12.45.45,0,0,0,.33-.1,2.5,2.5,0,0,0,.39-.33.93.93,0,0,0,.16-.25.74.74,0,0,1,.48-.44c.17,0,.35.07.53.32a.55.55,0,0,1,.15.4.44.44,0,0,1-.21.34l-1,.67c-.3.21-.61.42-.92.66s-.33.3-.3.37.18.07.44,0l.49-.09a1.35,1.35,0,0,0,.37-.13q.14-.06.09-.15a.4.4,0,0,1,0-.37.46.46,0,0,1,.34-.22.66.66,0,0,1,.4.06.4.4,0,0,1,.2.25c0,.2.07.39.12.59a4.42,4.42,0,0,0,.16.51m3.82-3.48q0-.27-.21-.27H125c-.13,0-.19.08-.17.25l0,.38c0,.14,0,.28,0,.42s.08.18.25.18l.46,0,.52,0h.72a.32.32,0,0,0,.21,0,.26.26,0,0,0,.08-.19Zm-.08,1.9a.45.45,0,0,0,0-.24s-.07-.06-.15-.06H126l-.88,0a.44.44,0,0,0-.2.07s0,.11,0,.23v.7c0,.1,0,.17.06.19a.32.32,0,0,0,.19,0,7.94,7.94,0,0,0,.86,0,7.42,7.42,0,0,0,.76,0,.36.36,0,0,0,.2-.06.28.28,0,0,0,0-.15,1.87,1.87,0,0,0,0-.34c0-.13,0-.25,0-.38"/><path class="cls-2" d="M155,26.74a4,4,0,0,1-2,2,1.61,1.61,0,0,1-1.06.12,2.91,2.91,0,0,1-1.29-.88l-.83-.83-.88-.83a.46.46,0,0,0-.28-.15.5.5,0,0,0-.29.15,8.46,8.46,0,0,1-1,.76,10.65,10.65,0,0,1-1.17.71,2,2,0,0,1-1.25.21,1.82,1.82,0,0,1-1.07-.53c-.09-.09-.15-.12-.18-.1a.48.48,0,0,0-.07.22,1.3,1.3,0,0,1-.25.61,1.15,1.15,0,0,1-.53.39,2.71,2.71,0,0,1-.54.13.32.32,0,0,1-.3-.09.63.63,0,0,1-.12-.38c0-.16,0-.39,0-.68,0-.66.05-1.25.07-1.77s0-1,.05-1.49a.32.32,0,0,0-.07-.22.41.41,0,0,0-.29-.07l-.43,0h-.42a.36.36,0,0,0-.4.33,7.7,7.7,0,0,1-.14,1,4.89,4.89,0,0,1-.22.76,2.67,2.67,0,0,1-.3.61c-.12.19-.25.37-.39.57a2.38,2.38,0,0,1-.91.81,2,2,0,0,1-1,.23,1.41,1.41,0,0,1-.85-.27,1.52,1.52,0,0,1-.56-.73,1.09,1.09,0,0,1-.12-.52.37.37,0,0,1,.26-.22,5,5,0,0,0,1.3-.7,3.91,3.91,0,0,0,1.06-1.16,4.77,4.77,0,0,0,.57-1.45,8.23,8.23,0,0,0,.21-1.7,8,8,0,0,0-.12-1.59,2.89,2.89,0,0,0-.41-1.15.82.82,0,0,1-.11-.81,1.11,1.11,0,0,1,.6-.64.64.64,0,0,1,.9.29.73.73,0,0,0,.19.25.57.57,0,0,0,.26.05h.3a.9.9,0,0,1,.25,0,1.29,1.29,0,0,0,.39,0,.85.85,0,0,0,.27-.09,1.09,1.09,0,0,1,.6-.28,1.43,1.43,0,0,1,.67.12,1.63,1.63,0,0,1,.32.22.76.76,0,0,1,.19.33,2.75,2.75,0,0,1,.05.56c0,.22,0,.51-.05.86s0,.48-.06.77,0,.6,0,.95c0,.13,0,.21.05.24s.1,0,.22,0a3.11,3.11,0,0,0,1.6-1.4,2.39,2.39,0,0,0,0-2,.59.59,0,0,1,0-.3,1,1,0,0,1,.1-.31.72.72,0,0,1,.21-.25.54.54,0,0,1,.28-.11,1.05,1.05,0,0,1,.68.19,1,1,0,0,0,.59.27c.31,0,.57,0,.77,0h.48a.42.42,0,0,0,.25-.06.4.4,0,0,0,.12-.1.76.76,0,0,1,.46-.37.85.85,0,0,1,.53.11,1,1,0,0,1,.54.57,1,1,0,0,1-.15.8,1.58,1.58,0,0,0-.13,1.17.76.76,0,0,0,.26.41,1.36,1.36,0,0,0,.54.26,2.23,2.23,0,0,0,.78,0,4.13,4.13,0,0,0,1-.27.76.76,0,0,1,.39-.05.47.47,0,0,1,.41.44.92.92,0,0,1,0,.33,1.33,1.33,0,0,1-.1.34,1.27,1.27,0,0,1-.16.23,2,2,0,0,1-.86.53,4.07,4.07,0,0,1-1.25.11,2.44,2.44,0,0,1-1.88-.68,2.93,2.93,0,0,1-.52-2.15.53.53,0,0,0-.12-.42.59.59,0,0,0-.37-.14l-.39,0a1.75,1.75,0,0,0-.39,0,.38.38,0,0,0-.22.08s-.07.12-.07.25a4.48,4.48,0,0,1-.49,1.87,3.5,3.5,0,0,1-1.4,1.43,1.76,1.76,0,0,1-.81.27,1.15,1.15,0,0,1-.66-.13c-.1-.07-.17-.09-.19-.07s0,.08,0,.18c0,.52,0,1.09,0,1.69s0,1.25.07,1.92a.75.75,0,0,0,.11.45.45.45,0,0,0,.39.06,6.72,6.72,0,0,0,1.93-.55,6.36,6.36,0,0,0,1.39-.87c.15-.11.17-.19.06-.26s-.46-.35-.64-.46a3.38,3.38,0,0,0-.51-.25,2.1,2.1,0,0,0-.45-.11l-.45,0c-.35,0-.55,0-.58-.15s.09-.35.39-.69a.78.78,0,0,1,.59-.23,1.6,1.6,0,0,1,.77.21c.26.15.52.28.77.41s.51.26.76.37.28,0,.39-.27a1.34,1.34,0,0,0,.12-.33c0-.1,0-.21.05-.31a.35.35,0,0,0-.19-.29,1.34,1.34,0,0,0-.5-.17,2.5,2.5,0,0,0-.67,0,2,2,0,0,0-.73.24.57.57,0,0,1-.45.08.53.53,0,0,1-.31-.23.78.78,0,0,1-.14-.49A.61.61,0,0,1,146,22a2.15,2.15,0,0,1,1-.44,2.83,2.83,0,0,1,1.14.09c.14,0,.33.08.57.12l.65.11a.84.84,0,0,1,.77.43,1.92,1.92,0,0,1-.1,1.19c0,.14-.09.29-.14.43s-.11.29-.17.43a.67.67,0,0,0-.05.31.27.27,0,0,0,.16.24c.51.23,1,.42,1.36.58s.78.29,1.15.4a11,11,0,0,0,1.13.28l1.26.24a.79.79,0,0,1,.29.08s0,.1,0,.23M142,20.08a2.05,2.05,0,0,0-.12-.85.44.44,0,0,0-.32-.24l-.39,0h-.41c-.21,0-.32.11-.32.29s0,.38,0,.59,0,.4,0,.59a.29.29,0,0,0,.08.23.65.65,0,0,0,.35.06h.8a.23.23,0,0,0,.22-.11,1.5,1.5,0,0,0,.05-.54m0,2a.37.37,0,0,0-.05-.3.46.46,0,0,0-.3-.07h-.38a2.48,2.48,0,0,0-.38,0,.64.64,0,0,0-.31.07.33.33,0,0,0-.08.26v.54c0,.16,0,.26.07.3a.53.53,0,0,0,.28.07,3.17,3.17,0,0,0,.43,0h.43c.18,0,.28-.08.28-.25v-.32c0-.11,0-.23,0-.34"/><path class="cls-2" d="M162,18a2.41,2.41,0,0,1-.35.67,5.3,5.3,0,0,1-.58.69,1.13,1.13,0,0,0-.41.8c0,.67,0,1.34,0,2s0,1.33,0,1.93,0,1.11-.06,1.56-.05.77-.06,1c0,.49-.07.86-.11,1.13a4,4,0,0,1-.11.61.58.58,0,0,1-.21.3,1.22,1.22,0,0,1-.39.15c-.27.06-.49.1-.65.12a.49.49,0,0,1-.38-.1.69.69,0,0,1-.19-.41,4.86,4.86,0,0,1,0-.82c0-.12,0-.43.05-.94s.08-1.1.13-1.79c0-.13,0-.33,0-.58s0-.54,0-.85,0-.64,0-1,0-.68,0-1,0-.35,0-.38-.16,0-.35.05a2.33,2.33,0,0,1-1.15.15,1.79,1.79,0,0,1-1.52-1.5.58.58,0,0,1,0-.35c0-.05.16-.1.38-.14.55-.1,1.05-.22,1.52-.34a13.32,13.32,0,0,0,1.35-.43c.43-.16.85-.34,1.25-.53s.81-.43,1.23-.69a.29.29,0,0,1,.23,0,.58.58,0,0,1,.25.12.51.51,0,0,1,.15.23.53.53,0,0,1,0,.35m9.67,6.12a6.48,6.48,0,0,1-.45,1.53,10.5,10.5,0,0,1-.88,1.6,5.26,5.26,0,0,1-.89,1.06,2.78,2.78,0,0,1-.83.54,2.14,2.14,0,0,1-3-1.46q-.23-.67.24-.36a1.88,1.88,0,0,0,2.26.1,3.36,3.36,0,0,0,.61-.59,6.32,6.32,0,0,0,.93-1.61,2.71,2.71,0,0,0,.2-.75,1.49,1.49,0,0,0,0-.57.62.62,0,0,0-.37-.38,1.75,1.75,0,0,0-.44-.16l-.59-.14a.38.38,0,0,0-.33.08,1.26,1.26,0,0,0-.22.33,11.23,11.23,0,0,1-1.58,2.33,9.84,9.84,0,0,1-1,1,5.42,5.42,0,0,1-1,.7c-.39.22-.72.38-1,.49a2.8,2.8,0,0,1-.68.22,1.61,1.61,0,0,1-.58,0,6.58,6.58,0,0,1-.64-.18,1.43,1.43,0,0,1-.44-.24,1,1,0,0,1-.3-.42.26.26,0,0,1,0-.28.3.3,0,0,1,.28-.15,2.8,2.8,0,0,0,.62-.15,6.45,6.45,0,0,0,.88-.33c.32-.13.63-.29,1-.46a6.42,6.42,0,0,0,.84-.52,10.87,10.87,0,0,0,1.27-1.07,6.19,6.19,0,0,0,.76-.91c.13-.2.18-.35.15-.44s-.13-.13-.31-.14a5.61,5.61,0,0,0-.83,0,2.26,2.26,0,0,0-.55.1,3.14,3.14,0,0,1-.89.22.32.32,0,0,1-.3-.18.6.6,0,0,1,0-.49,2.58,2.58,0,0,1,.68-.69,2.07,2.07,0,0,1,.83-.41.84.84,0,0,1,.61.06,2.18,2.18,0,0,0,.53.19,2,2,0,0,0,.59,0l.43,0,.75.06.75.08a3,3,0,0,1,.45.09,2.76,2.76,0,0,0,1.11.2.88.88,0,0,1,.45,0,1.07,1.07,0,0,1,.33.18,2,2,0,0,1,.58.84,2.69,2.69,0,0,1,0,1m-6-5.13a2.59,2.59,0,0,1-.32.49,6.34,6.34,0,0,1-.56.63,6.25,6.25,0,0,1-.65.61,3.73,3.73,0,0,1-.6.42,2.17,2.17,0,0,1-1.57.25,1.16,1.16,0,0,1-.81-.95.57.57,0,0,1,0-.34,1,1,0,0,1,.4-.21c.26-.09.55-.21.87-.35s.63-.3.93-.47.57-.34.83-.5a2.55,2.55,0,0,0,.55-.44c.25-.24.49-.28.71-.11a.71.71,0,0,1,.19,1m8.65,1.48a2.23,2.23,0,0,1-.88,1.29,1.86,1.86,0,0,1-1,.35,2,2,0,0,1-1.17-.39c-.2-.14-.41-.3-.61-.47a5.39,5.39,0,0,1-.48-.48,9.22,9.22,0,0,0-.7-.76,8.48,8.48,0,0,0-.84-.76c-.29-.24-.55-.44-.79-.62a2,2,0,0,0-.56-.32c-.24-.09-.35-.24-.33-.43a.63.63,0,0,1,.35-.47,1.34,1.34,0,0,1,.74-.23,1.12,1.12,0,0,1,.65.33,9.48,9.48,0,0,0,1.11.8,10.85,10.85,0,0,0,1.23.66,5.38,5.38,0,0,0,.63.24l.88.3.87.27c.27.09.48.14.61.17s.29.09.32.15a.63.63,0,0,1,0,.37"/><path class="cls-2" d="M193.59,19.21a2.73,2.73,0,0,1-.71.92,3.84,3.84,0,0,1-1.4.62,2.17,2.17,0,0,1-.8,0,4.69,4.69,0,0,1-1-.3,9.18,9.18,0,0,0-2.1-.47,26.19,26.19,0,0,0-3-.19.19.19,0,0,0-.18.1,6.66,6.66,0,0,1-.64,1q-.1.12-.06.21c0,.06.09.09.2.11a13.49,13.49,0,0,0,2.22.11,3.17,3.17,0,0,0,1.33-.23,1.53,1.53,0,0,1,.38-.13,1.75,1.75,0,0,1,.46,0,2.39,2.39,0,0,1,.45.09,1.06,1.06,0,0,1,.35.19,1.28,1.28,0,0,1,.38.75,2.89,2.89,0,0,1-.05,1.12,6,6,0,0,0-.09.78c0,.33,0,.69,0,1.09s0,.83.07,1.27.08.88.15,1.31c0,.21,0,.38,0,.52a.63.63,0,0,1-.13.35.81.81,0,0,1-.36.24,4.49,4.49,0,0,1-.66.2,1.52,1.52,0,0,1-.89.07c-.12-.07-.18-.27-.18-.58V25.88a.17.17,0,0,0-.19-.19,34.82,34.82,0,0,0-3.54,0,.16.16,0,0,0-.17.15,5.79,5.79,0,0,1-.33,1.1,3.3,3.3,0,0,1-.44.75,2.68,2.68,0,0,1-.53.49,4.3,4.3,0,0,1-.6.32,2.12,2.12,0,0,1-.71.18,2.21,2.21,0,0,1-.73-.05,2.05,2.05,0,0,1-.67-.27,1.67,1.67,0,0,1-.5-.49c-.2-.31-.09-.51.31-.58a4.79,4.79,0,0,0,1.72-.73,2.54,2.54,0,0,0,1-1.5,5.94,5.94,0,0,0,.18-2.2.21.21,0,0,0-.12-.2.21.21,0,0,0-.21.06c-.34.23-.7.46-1.09.68s-.78.43-1.17.62-.75.35-1.1.49-.65.23-.9.3a4.22,4.22,0,0,1-1,.12,2.14,2.14,0,0,1-.83-.12,1.42,1.42,0,0,1-.6-.42,1.21,1.21,0,0,1-.25-.73c0-.15,0-.24.06-.28a.33.33,0,0,1,.21-.06,9.19,9.19,0,0,0,1.43-.13,13.9,13.9,0,0,0,1.73-.4,12.43,12.43,0,0,0,1.68-.64,5.54,5.54,0,0,0,1.31-.8,3.18,3.18,0,0,0,.49-.54,4.7,4.7,0,0,0,.37-.65c.09-.21,0-.3-.2-.27l-1.07.07c-.37,0-.72.05-1.07.09a13.88,13.88,0,0,0-1.77.25,9.43,9.43,0,0,0-1.26.37.87.87,0,0,1-1.09-.2c-.11-.13-.1-.32,0-.59a2,2,0,0,1,.67-.79,1.66,1.66,0,0,1,1.8-.37,2.12,2.12,0,0,0,.73.1c.38,0,.93,0,1.65,0a9.08,9.08,0,0,1,.91-.05l.92,0c.11,0,.17-.06.2-.18a1.8,1.8,0,0,0,0-.46,3.29,3.29,0,0,0-.07-.36.66.66,0,0,1,.18-.78,1.23,1.23,0,0,1,1.07-.15,1.3,1.3,0,0,1,.8.36A2.08,2.08,0,0,1,185,18a.68.68,0,0,1,0,.18,1.66,1.66,0,0,1,0,.24c0,.15,0,.22.2.22,1.13,0,2.18,0,3.16,0s1.77.06,2.38.12c.38,0,.8,0,1.27,0s.91,0,1.33,0a.34.34,0,0,1,.28.06c.06.06,0,.18,0,.37m-6.15,4.95c0-.15,0-.23-.2-.23-.58,0-1.15,0-1.69,0s-1.11,0-1.68.05q-.18,0-.18.21v.16a.47.47,0,0,1,0,.16c0,.15,0,.23.2.23l1.74,0,1.62,0a.17.17,0,0,0,.19-.19v-.19a1,1,0,0,1,0-.17m.08-1.3a.48.48,0,0,0-.55-.59l-1.45,0-1.59,0c-.13,0-.2.07-.2.22v.37c0,.13.07.19.2.19l1.74,0,1.65,0c.13,0,.2-.06.2-.19"/><path class="cls-2" d="M201.46,23.48a1.79,1.79,0,0,1-.82,1.43,4.19,4.19,0,0,1-2,.66.49.49,0,0,0-.24.07.25.25,0,0,0-.06.2c0,.13,0,.27,0,.4l0,.42a9.75,9.75,0,0,1,0,1.15,3,3,0,0,1-.16.73.93.93,0,0,1-.32.4,1.14,1.14,0,0,1-.48.16c-.39.07-.65,0-.76-.19a2.64,2.64,0,0,1-.1-1.23c.05-.76.09-1.47.11-2.14s0-1.33,0-2,0-1.32,0-2,0-1.35,0-2.06c0-.11,0-.16-.05-.18a1.09,1.09,0,0,0-.28,0,.82.82,0,0,1-.6-.06.49.49,0,0,1-.24-.39.9.9,0,0,1,.23-.58,2.77,2.77,0,0,1,.71-.61.57.57,0,0,1,.47-.12,2.85,2.85,0,0,1,.41.14,2.55,2.55,0,0,0,.58.17,2.48,2.48,0,0,0,.65,0,1.52,1.52,0,0,1,.33,0h.44l.42,0a.82.82,0,0,1,.27,0l.32.05a1.78,1.78,0,0,0,.31,0,.71.71,0,0,1,.8.82,2.15,2.15,0,0,1-.4,1.18A5.13,5.13,0,0,1,200,21.27c-.28.24-.26.36.06.38a1.32,1.32,0,0,1,1.11.58,2,2,0,0,1,.34,1.25M198.92,19a1,1,0,0,0-.5.08.27.27,0,0,0-.11.23l0,.76c0,.24,0,.47,0,.69s.1.27.3.15a3.12,3.12,0,0,0,1-.75.8.8,0,0,0,.21-.6.57.57,0,0,0-.3-.41,1,1,0,0,0-.53-.15m1.19,4a.71.71,0,0,0-.41-.48,2.94,2.94,0,0,0-1.13-.24c-.12,0-.2,0-.24,0a.25.25,0,0,0-.06.19c0,.25,0,.51,0,.79s0,.57,0,.89a.31.31,0,0,0,.07.24.43.43,0,0,0,.23,0,2.19,2.19,0,0,0,1.19-.59,1,1,0,0,0,.31-.84m13.33,4.18a3.55,3.55,0,0,1-.63.77,3.22,3.22,0,0,1-.58.42,2.86,2.86,0,0,1-1,.39,1.85,1.85,0,0,1-1-.12,4.05,4.05,0,0,1-1.11-.68,14.11,14.11,0,0,1-1.41-1.31l-.61-.65-.5-.52a.31.31,0,0,0-.15-.09s-.05,0-.05.05a3.69,3.69,0,0,1-.67.89,10.4,10.4,0,0,1-1,.93,9.38,9.38,0,0,1-1.17.81,6.43,6.43,0,0,1-1.09.54,1.82,1.82,0,0,1-.74.12,1.09,1.09,0,0,1-.66-.44.66.66,0,0,1-.16-.56,1.13,1.13,0,0,1,.43-.69,2.17,2.17,0,0,0,.5-1.07,10.37,10.37,0,0,0,.23-1.88c0-.74,0-1.55,0-2.44s-.13-1.81-.26-2.75a1,1,0,0,1,0-.35,1.66,1.66,0,0,1,.11-.38,1.21,1.21,0,0,1,.22-.32.69.69,0,0,1,.3-.2.8.8,0,0,1,.49,0,1.25,1.25,0,0,1,.49.27l.22.18s.12,0,.23,0a22,22,0,0,1,2.34-.1c.7,0,1.35,0,1.93.08a.86.86,0,0,0,.43,0,.69.69,0,0,0,.3-.2.58.58,0,0,1,.27-.15,1.15,1.15,0,0,1,.38,0,2.33,2.33,0,0,1,.38.08.59.59,0,0,1,.27.16,1.52,1.52,0,0,1,.28,1.5,1.8,1.8,0,0,0-.06.32,3.85,3.85,0,0,0,0,.4c0,.16,0,.35,0,.59s0,.53,0,.9a1.1,1.1,0,0,1-.08.4,1,1,0,0,1-.21.32.67.67,0,0,1-.33.18.62.62,0,0,1-.4,0,4.36,4.36,0,0,0-.62-.18,2.43,2.43,0,0,0-.49,0l-1.19,0-1,0-.94,0H204a.48.48,0,0,0-.3.09.53.53,0,0,0-.1.32c0,.54,0,1,0,1.49s0,.87,0,1.26a1,1,0,0,0,.1.61c.09.1.24.11.46,0l.57-.23.56-.25.5-.25a2.66,2.66,0,0,0,.36-.21c.07-.05.1-.1.1-.13s-.05-.09-.14-.16a3.53,3.53,0,0,0-.64-.54l-.66-.38c-.26-.13-.41-.26-.43-.39a.49.49,0,0,1,.17-.43.47.47,0,0,1,.46-.15,2.19,2.19,0,0,1,.83.42c.23.17.44.31.62.43l.47.33a.82.82,0,0,0,.31.13.51.51,0,0,0,.3-.13,4.25,4.25,0,0,0,.63-.46,2.61,2.61,0,0,0,.44-.45,1.53,1.53,0,0,1,.74-.63.73.73,0,0,1,.65.27c.3.3.43.54.39.71s-.2.31-.49.43-.61.26-.86.35-.49.17-.72.23-.26.09-.24.16a1.75,1.75,0,0,0,.55.41,9.51,9.51,0,0,0,1.1.52,12.78,12.78,0,0,0,1.28.42c.45.13.87.23,1.27.31a5.52,5.52,0,0,0,1.06.11c.37,0,.43.21.17.59m-4.76-6.34a.27.27,0,0,0-.31-.3h-1.2l-1,0-1,.05-1.12.09a.74.74,0,0,0-.35.12.34.34,0,0,0-.08.29.63.63,0,0,0,.07.35.35.35,0,0,0,.28.06l1.24,0h1.06c.33,0,.66,0,1-.05l1-.1a.47.47,0,0,0,.36-.16.58.58,0,0,0,.09-.38m0-1.51a.41.41,0,0,0-.43-.45l-1.2,0-.94,0-.92,0-1.14.07a.63.63,0,0,0-.32.11c-.05.05-.07.17-.07.38a.81.81,0,0,0,.09.42c0,.06.15.07.32.05l1.25-.06,1,0h2c.14,0,.23,0,.27-.07s.05-.18,0-.4"/><path class="cls-2" d="M221.78,19a11.86,11.86,0,0,1-.79.91,9.16,9.16,0,0,1-1,.91,9.63,9.63,0,0,1-1.26.78,6.11,6.11,0,0,1-1.47.52,3.24,3.24,0,0,1-.94.07,3.34,3.34,0,0,1-.91-.18,2.36,2.36,0,0,1-.73-.45,1.43,1.43,0,0,1-.41-.7c-.06-.27-.05-.44,0-.52s.28-.12.58-.09a7.77,7.77,0,0,0,1.72-.11,9.31,9.31,0,0,0,1.71-.44,8.81,8.81,0,0,0,1.52-.7,5.35,5.35,0,0,0,1.14-.88.55.55,0,0,1,.4-.15.57.57,0,0,1,.4.15.72.72,0,0,1,.19.39.61.61,0,0,1-.15.49m7.59,8.1a.67.67,0,0,1-.48.18,1.73,1.73,0,0,1-.67-.1,3.24,3.24,0,0,1-.35-.15l-.45-.2a.47.47,0,0,0-.29-.08.84.84,0,0,0-.3.12l-1,.57c-.35.21-.64.39-.87.56a9.75,9.75,0,0,1-1.2.61,2.22,2.22,0,0,1-1,.14,3.5,3.5,0,0,1-1.17-.36c-.43-.21-1-.52-1.67-.94a3.11,3.11,0,0,0-.91-.37,1.89,1.89,0,0,0-.75,0,1.4,1.4,0,0,1-.49.05.88.88,0,0,1-.37-.22.74.74,0,0,1-.26-.75,1.4,1.4,0,0,1,.68-.78c.63-.37,1.18-.72,1.63-1a9.38,9.38,0,0,0,1.18-.95,7.08,7.08,0,0,0,.83-.94,11.63,11.63,0,0,0,.65-1.07.94.94,0,0,1,.69-.56,1.28,1.28,0,0,1,.93.31.72.72,0,0,1,.31.46,1.14,1.14,0,0,1-.06.67,2.25,2.25,0,0,1-.52.78,4.45,4.45,0,0,1-1.12.82,6.75,6.75,0,0,0-1.14.76,2.49,2.49,0,0,0-.52.65.67.67,0,0,0,0,.57,1,1,0,0,0,.49.54,3.29,3.29,0,0,0,2.07.53,3.53,3.53,0,0,0,2.05-1,.35.35,0,0,0,.14-.29c0-.09-.13-.22-.35-.39a3.67,3.67,0,0,1-.37-.32,4,4,0,0,1-.41-.44.68.68,0,0,1-.12-.86.39.39,0,0,1,.35-.18,2.16,2.16,0,0,1,.82.2,10.92,10.92,0,0,1,1.92,1,11.57,11.57,0,0,1,1.89,1.46c.43.38.51.71.25,1M233,20.9a2.73,2.73,0,0,1-.3,1,1.64,1.64,0,0,1-.56.58,3.44,3.44,0,0,1-.65.31,2.18,2.18,0,0,1-.63.09,2.54,2.54,0,0,1-.68-.13c-.24-.08-.52-.19-.85-.33a8.78,8.78,0,0,1-.82-.44c-.31-.19-.63-.39-1-.61l-1-.64c-.33-.21-.62-.41-.88-.6l-.51-.35-.34-.24-.26-.19-.24-.17a.7.7,0,0,1-.22-.31,1.14,1.14,0,0,1-.07-.41,1.2,1.2,0,0,1,.07-.42.74.74,0,0,1,.21-.31.44.44,0,0,1,.29-.09,1.2,1.2,0,0,1,.36.05,1.33,1.33,0,0,1,.35.19,1,1,0,0,1,.26.28,2.65,2.65,0,0,0,.69.71,5.78,5.78,0,0,0,1.33.7,14.65,14.65,0,0,0,2.07.6,20.3,20.3,0,0,0,2.88.41.91.91,0,0,1,.39.11c.07.05.09.13.06.26"/><path class="cls-2" d="M247.6,20.42a.5.5,0,0,1,0,.21.62.62,0,0,1-.23.17,2,2,0,0,1-.46.09,4.77,4.77,0,0,1-.78,0h-.43l-.79,0L244,21l-.68,0-2.11.12-1.38.05h-1c-.27,0-.57,0-.88-.08a5.36,5.36,0,0,0-.58,0l-.69,0a6.57,6.57,0,0,0-.66.09c-.21,0-.38.07-.51.11a2.36,2.36,0,0,1-1,.17.63.63,0,0,1-.51-.26.55.55,0,0,1,0-.54,1.56,1.56,0,0,1,.63-.58,1.91,1.91,0,0,1,.74-.28,1.6,1.6,0,0,1,.69.11,1.18,1.18,0,0,0,.64.08c.14,0,.42,0,.83-.05s.89,0,1.44,0h5.1c.46,0,.8,0,1,0q1.71.07,2,.06c.34,0,.5.11.47.41m2.42-.59a5.58,5.58,0,0,0-.14.94,12,12,0,0,0,0,1.22c0,.42,0,.83,0,1.24a9.72,9.72,0,0,0,.12,1,4.07,4.07,0,0,1-.05,2.07,3.84,3.84,0,0,1-.75,1.37,3.55,3.55,0,0,1-1.4,1,4,4,0,0,1-1.7.16,7,7,0,0,1-2.2-.56,2.66,2.66,0,0,1-1.28-1.1c-.06-.13-.06-.23,0-.3s.21-.06.42.05a2.67,2.67,0,0,0,.71.18,7.32,7.32,0,0,0,1,.08,8.53,8.53,0,0,0,1,0,3.61,3.61,0,0,0,.81-.16,1.58,1.58,0,0,0,.89-.7,3.88,3.88,0,0,0,.46-1.3c0-.23.07-.55.1-.95s0-.85.06-1.35,0-1,0-1.54,0-1.05-.07-1.54a.91.91,0,0,0-.12-.41.56.56,0,0,0-.37-.16c-1-.07-2-.1-3-.11s-2,0-3.14,0l-.63,0-.91.06-.93.06c-.31,0-.55,0-.72.07a2.8,2.8,0,0,1-.83,0,.55.55,0,0,1-.36-.4.63.63,0,0,1,.11-.57,1.85,1.85,0,0,1,.83-.6,2.26,2.26,0,0,1,.7-.18,1.19,1.19,0,0,1,.65.12,1.19,1.19,0,0,0,.33.07c.16,0,.45,0,.88.07s.85,0,1.27.05l1.12,0q.5,0,.84,0h.42a4.93,4.93,0,0,1,.54-.05h.62c.23,0,.49,0,.78.05l1,.1a2,2,0,0,0,.61,0,3.54,3.54,0,0,0,.68-.31.87.87,0,0,1,.64-.09,1.16,1.16,0,0,1,.69.5,1.65,1.65,0,0,1,.37.81,2.55,2.55,0,0,1-.12,1M245.77,23c0,.06,0,.15,0,.3s0,.3,0,.46,0,.34,0,.49,0,.28,0,.37a1.72,1.72,0,0,1-.19.78,1.62,1.62,0,0,1-.42.5,1.13,1.13,0,0,1-.53.23A1.22,1.22,0,0,1,244,26a3.75,3.75,0,0,0-.79-.23,3.24,3.24,0,0,0-.63-.05l-.45,0-.71,0-.74,0h-.47a3.9,3.9,0,0,0-.66,0,2.37,2.37,0,0,0-.6.15,1.8,1.8,0,0,1-.47.12,1.06,1.06,0,0,1-.35,0,.41.41,0,0,1-.24-.11,1,1,0,0,1-.17-.31,3.71,3.71,0,0,1-.16-.57c0-.18-.09-.45-.17-.79s-.13-.7-.2-1.06a1.61,1.61,0,0,1,0-.82,1.35,1.35,0,0,1,.51-.63,1.13,1.13,0,0,1,.58-.25.72.72,0,0,1,.53.21.21.21,0,0,0,.16.06c.7-.06,1.39-.1,2.07-.1a16.27,16.27,0,0,1,2.08.14,2.19,2.19,0,0,0,1.31-.18.9.9,0,0,1,.42,0,1,1,0,0,1,.5.16,1.08,1.08,0,0,1,.39.44,1.73,1.73,0,0,1,0,.65m-1.78.2c0-.11,0-.17-.08-.2a.85.85,0,0,0-.29,0c-.88-.05-1.69-.06-2.43,0s-1.39.06-2,.12q-.18,0-.18.18a4,4,0,0,0,0,.6c0,.21.05.41.07.61s.08.17.2.17c1.12.06,2,.08,2.75.07a13.31,13.31,0,0,0,1.42-.05.87.87,0,0,0,.35-.1.2.2,0,0,0,.08-.17,3.4,3.4,0,0,0,.06-.52c0-.2,0-.41,0-.63"/><path class="cls-3" d="M26.24,35.87a2,2,0,0,1-1.15,1.22.86.86,0,0,1-.48.07,1.78,1.78,0,0,1-.5-.14,6.81,6.81,0,0,0-1.41-.35q-.91-.14-2.52-.27a.5.5,0,0,0-.39.09c-.09.08-.12.23-.11.47a2.48,2.48,0,0,1-.1,1,.74.74,0,0,1-.59.34c-.34.07-.56,0-.65-.14a1.79,1.79,0,0,1-.09-1,.89.89,0,0,0-.14-.65.58.58,0,0,0-.48-.18L16,36.44c-.52,0-1,.09-1.43.15s-.83.13-1.17.2a4.31,4.31,0,0,0-.75.21c-.36.17-.61.18-.75.06s-.15-.34,0-.64a1.34,1.34,0,0,1,.46-.67.52.52,0,0,1,.46-.07.93.93,0,0,0,.35.1,2.28,2.28,0,0,0,.43,0c.38,0,.94-.09,1.67-.13s1.53-.06,2.43-.07a.67.67,0,0,0,.38-.08.39.39,0,0,0,.11-.25c0-.09,0-.14,0-.16a.23.23,0,0,0-.13,0l-1.82.05-1.08,0a4.89,4.89,0,0,0-.56,0l-.23,0a.26.26,0,0,1-.29,0,.22.22,0,0,1-.13-.23.94.94,0,0,1,.2-.47.35.35,0,0,1,.19-.12.45.45,0,0,1,.2,0,.67.67,0,0,0,.22,0,3.3,3.3,0,0,0,.39,0c.1,0,.15-.06.14-.14s0-.21-.06-.29,0-.17,0-.26,0-.1-.15-.09a5,5,0,0,0-.84.11,4.58,4.58,0,0,0-.68.21.36.36,0,0,1-.29,0,.27.27,0,0,1-.14-.22.68.68,0,0,1,.09-.41,1.84,1.84,0,0,1,.42-.52.33.33,0,0,1,.4-.08.82.82,0,0,0,.31.08,3.48,3.48,0,0,0,.46,0h.13l.14,0c.08,0,.13,0,.14-.1a.68.68,0,0,1,.22-.48A.85.85,0,0,1,15.8,32a.51.51,0,0,1,.38.1,1,1,0,0,1,.28.53c0,.08.08.12.14.12h1.59s.09,0,.1,0,0,0,0-.12V32c0-.07,0-.11-.15-.11-.9,0-1.63,0-2.18.05a5.86,5.86,0,0,0-1.24.16.35.35,0,0,1-.32,0,.24.24,0,0,1-.1-.23.89.89,0,0,1,.27-.56.51.51,0,0,1,.23-.17.24.24,0,0,1,.23,0,.78.78,0,0,0,.3.1,1.42,1.42,0,0,0,.41,0l.22,0h.3q.12,0,0-.06a.51.51,0,0,1-.19-.22,1.09,1.09,0,0,1-.1-.32.16.16,0,0,0-.07-.07.43.43,0,0,0-.22,0l-.75.05-.55.07a2.83,2.83,0,0,0-.44.12l-.39.14a.29.29,0,0,1-.35-.07.44.44,0,0,1-.08-.43,1,1,0,0,1,.15-.33,1.65,1.65,0,0,1,.35-.35.37.37,0,0,1,.38-.07.88.88,0,0,0,.3.07h1.38a.22.22,0,0,0,.16-.05.46.46,0,0,0,0-.2.83.83,0,0,1,.21-.56,1,1,0,0,1,1.08,0,.94.94,0,0,1,.21.56.46.46,0,0,0,.07.23.22.22,0,0,0,.16.05h2.71a.16.16,0,0,0,.12,0,.54.54,0,0,0,.07-.19,1.11,1.11,0,0,1,.2-.55.77.77,0,0,1,.49-.18.66.66,0,0,1,.82.7.66.66,0,0,0,.05.23s.07.05.15.05h1.08a3.93,3.93,0,0,1,.7,0,.47.47,0,0,1,.28.1.29.29,0,0,1,.06.25.52.52,0,0,1-.12.33.28.28,0,0,1-.25.07c-.23,0-.5,0-.81,0l-1.07,0c-.13,0-.19,0-.2.11a.9.9,0,0,1-.21.43.73.73,0,0,1-.48.12.56.56,0,0,1-.44-.09.62.62,0,0,1-.15-.44c0-.09-.07-.14-.21-.14h-3a.2.2,0,0,0-.2.13.88.88,0,0,1-.34.53.09.09,0,0,0,0,.06s0,0,.06,0H22.5l.49,0,.33,0a.47.47,0,0,1,.26.08.51.51,0,0,1,.08.27.41.41,0,0,1-.05.23.33.33,0,0,1-.27,0c-.37,0-.86,0-1.47,0h-2c-.11,0-.17,0-.17.12v.69c0,.07.06.11.17.11H21.2c.11,0,.16,0,.16-.09a.85.85,0,0,1,.19-.56.72.72,0,0,1,.46-.18.54.54,0,0,1,.47.14,1,1,0,0,1,.2.57c0,.09.07.13.17.13l.87,0,.59,0a.26.26,0,0,1,.19.08.4.4,0,0,1,0,.27.42.42,0,0,1-.18.31.9.9,0,0,1-.51.06l-.51,0-.57,0c-.09,0-.14,0-.15.11a2.92,2.92,0,0,1-.15.66c0,.09,0,.14.07.14h.4l.25,0a.5.5,0,0,1,.26.08.38.38,0,0,1,.07.27.34.34,0,0,1-.05.23.32.32,0,0,1-.25.05c-.36,0-.83,0-1.41,0s-1.21,0-1.89,0q-.15,0-.15.12a.34.34,0,0,0,.38.37h.52l.79,0,.85,0,.75,0,.89,0h2.13c.17,0,.22,0,.16.23m-7.94-2.3c0-.07-.05-.11-.15-.11l-.8,0h-.72a.24.24,0,0,0-.15,0,.27.27,0,0,0-.05.13c0,.08,0,.17-.05.27a2.06,2.06,0,0,1-.07.29c0,.1,0,.14.07.14h1.75a.29.29,0,0,0,.12,0,.22.22,0,0,0,0-.1c0-.11,0-.22,0-.33s0-.22,0-.33m3.23.71c0-.12-.05-.23-.07-.34s0-.23-.05-.35a.11.11,0,0,0-.12-.11l-.72,0h-.72c-.09,0-.13,0-.13.13a2.48,2.48,0,0,1,0,.29v.37c0,.08.06.12.17.12h1.5c.1,0,.14,0,.12-.1"/><path class="cls-3" d="M41.37,35.91a2,2,0,0,1-.46.41,2.31,2.31,0,0,1-.75.28,2.06,2.06,0,0,1-.32.07,2.85,2.85,0,0,1-.4,0l-.64-.09-1-.2-.56-.09-.88-.09c-.06,0-.09,0-.1,0s0,0,.09.06l.22.08.3.13a4.44,4.44,0,0,0,.43.16c.21.08.47.16.76.24l.36.12.43.17.39.18.28.16c.27.16.35.29.24.4s-.47.1-1.1,0l-.45-.08-.3-.06-.2-.05-.15-.06a.23.23,0,0,0-.2,0,7.81,7.81,0,0,1-1.08.42,3.9,3.9,0,0,1-.94.18,5.26,5.26,0,0,1-1,0Q33.75,38.13,33,38a4.57,4.57,0,0,0-1-.12,10.1,10.1,0,0,0-1.11.1,1.27,1.27,0,0,1-.76-.05.48.48,0,0,1-.26-.35.42.42,0,0,1,.17-.43,2.3,2.3,0,0,1,1-.26,5.93,5.93,0,0,0,1.29-.23,1.87,1.87,0,0,0,.68-.39s0-.06-.07-.06c-.3,0-.58,0-.84,0l-.68,0a11.58,11.58,0,0,0-1.71.19,10.52,10.52,0,0,0-1.35.36,1.3,1.3,0,0,1-.54.1.6.6,0,0,1-.35-.15c-.17-.15-.18-.3,0-.44A2.52,2.52,0,0,1,27.8,36a2.28,2.28,0,0,1,.57-.25,1.56,1.56,0,0,1,.5-.12,3.56,3.56,0,0,1,.52,0,2.31,2.31,0,0,0,.45,0c.19,0,.4,0,.61,0l.64,0,.55,0c.61,0,1.22-.07,1.85-.09s1.35,0,2.17,0l1.65,0H41c.21,0,.34,0,.4.09s0,.16-.05.27m-9.94-5.2a1.3,1.3,0,0,0-.18-.34.21.21,0,0,0-.17-.06c-.64,0-1.11.06-1.42.09a3.37,3.37,0,0,0-.73.14,1.28,1.28,0,0,1-.47.11.27.27,0,0,1-.22-.11.38.38,0,0,1-.07-.33,1.75,1.75,0,0,1,.46-.52,1.1,1.1,0,0,1,.47-.24.78.78,0,0,1,.45,0,1.61,1.61,0,0,0,.49.1c.23,0,.58,0,1,0a.35.35,0,0,0,.16,0,.26.26,0,0,0,.08-.15c0-.08,0-.16.06-.22a.36.36,0,0,1,.07-.18.4.4,0,0,1,.22-.17,1.2,1.2,0,0,1,.35-.08,1.23,1.23,0,0,1,.38,0,.88.88,0,0,1,.33.18.65.65,0,0,1,.19.38c0,.13.1.2.21.2h1.3l1.52,0a.25.25,0,0,0,.15-.05.41.41,0,0,0,.09-.22,1,1,0,0,1,.05-.2l.06-.17a.42.42,0,0,1,.23-.17.9.9,0,0,1,.37-.05,1.34,1.34,0,0,1,.39.07.77.77,0,0,1,.31.21,1.27,1.27,0,0,1,.16.38.34.34,0,0,0,.09.19.43.43,0,0,0,.23,0l1.41.05.67,0c.23,0,.36.08.4.19s0,.23-.15.37a.42.42,0,0,1-.26.1,4.89,4.89,0,0,1-.65,0H37.86a.22.22,0,0,0-.15.08,3.14,3.14,0,0,0-.29.37.56.56,0,0,1-.26.2c-.09,0-.13.07-.11.13a.8.8,0,0,1,.05.26c0,.07,0,.1.15.1h.4a.29.29,0,0,0,.25-.06,1,1,0,0,1,.43-.1,1.34,1.34,0,0,1,.52.1c.2.08.31.18.33.28s0,.26-.21.44a1.12,1.12,0,0,0-.24.54,1.24,1.24,0,0,0,0,.58.45.45,0,0,0,.22.29,1.83,1.83,0,0,0,.64.09,1.34,1.34,0,0,0,.53-.08,1.6,1.6,0,0,0,.53-.39c.15-.17.28-.22.37-.16s.12.19.06.4a5.61,5.61,0,0,1-.31.8,2.5,2.5,0,0,1-.31.48,1,1,0,0,1-.34.25,1.55,1.55,0,0,1-.36.08h-.39l-.3,0a1.08,1.08,0,0,1-.28-.11,2.08,2.08,0,0,1-.33-.2,1.54,1.54,0,0,1-.78-1.25,5.53,5.53,0,0,1,0-.61,3.84,3.84,0,0,1,.06-.57c0-.18,0-.27-.19-.28h-.16l-.2,0c-.11,0-.17,0-.19.07a1.4,1.4,0,0,1-.07.33,2.28,2.28,0,0,1-.11.29.45.45,0,0,0-.06.24c0,.05.08.1.2.14a1,1,0,0,1,.46.29.18.18,0,0,1,0,.26.86.86,0,0,1-.34.19.53.53,0,0,1-.39,0l-.16-.08-.13-.08c-.1-.07-.18-.07-.23,0a2.94,2.94,0,0,1-.38.44,2.78,2.78,0,0,1-.43.31,1,1,0,0,1-.51.16,1.51,1.51,0,0,1-.61-.24q-.18-.1-.18-.21a.15.15,0,0,1,.13-.14l.37-.14a1.83,1.83,0,0,0,.28-.14,2.2,2.2,0,0,0,.25-.17,3.59,3.59,0,0,0,.25-.27c.08-.09.08-.17,0-.22a.76.76,0,0,1-.32-.28.23.23,0,0,1,0-.21s.12-.06.26-.07a.87.87,0,0,1,.4.06.14.14,0,0,0,.16,0,.29.29,0,0,0,.07-.22c0-.09,0-.13-.12-.11l-.38,0a2.5,2.5,0,0,0-.4.05l-.16,0a.43.43,0,0,0-.16.07.49.49,0,0,1-.29.08h-.56q-.12,0,0,.09a1.07,1.07,0,0,0,.48.32c.14.06.21.12.2.2s-.07.14-.19.16a1.1,1.1,0,0,1-.43,0,2.2,2.2,0,0,1-.45-.17,1.54,1.54,0,0,1-.35-.24c-.1-.09-.15-.16-.15-.22s0-.09-.12-.09H31.15c-.06,0-.08,0-.07.06a.31.31,0,0,1,0,.28.87.87,0,0,1-.31.25,3.63,3.63,0,0,1-.68.3c-.26.1-.53.18-.81.26a3.12,3.12,0,0,1-.64.11.36.36,0,0,1-.28-.07c-.12-.1-.11-.18.05-.24s.58-.23.85-.36a7,7,0,0,0,.73-.44s0,0,0-.06-.05,0-.1,0a3.29,3.29,0,0,0-.43.09,2.26,2.26,0,0,0-.35.1.39.39,0,0,1-.28,0,.26.26,0,0,1-.16-.15.32.32,0,0,1,.14-.42,1.66,1.66,0,0,1,.45-.17.75.75,0,0,1,.42,0,1.08,1.08,0,0,0,.32,0l.49,0h.66c.15,0,.23-.05.23-.17a.13.13,0,0,0-.05-.11.79.79,0,0,0-.29-.06h-.26l-.35,0-.36,0-.28,0c-.18,0-.28,0-.32-.1s0-.21.21-.36A.8.8,0,0,1,30.1,31a1.13,1.13,0,0,1,.46,0,1.63,1.63,0,0,0,.33.06l.39,0c.11,0,.15,0,.13-.12s0-.11,0-.14a.13.13,0,0,0,0-.18m2.33,3.57-.38,0-.46.05-.46,0-.39,0-.82.07c-.28,0-.56,0-.83.07a3.17,3.17,0,0,0-1,.22c-.25.09-.42.07-.5,0s0-.27.15-.45a.8.8,0,0,1,.41-.23.86.86,0,0,1,.45,0,.41.41,0,0,0,.2,0l.44,0h.25l.29,0q.23,0,.24-.24a.07.07,0,0,0-.05-.08,1.1,1.1,0,0,0-.28-.06,1.79,1.79,0,0,0-.39,0l-.44.06c-.14,0-.23,0-.27-.08s0-.19.19-.3a1.07,1.07,0,0,1,.32-.12.7.7,0,0,1,.31,0l.2,0h.26c.1,0,.15,0,.14-.13s0-.34.1-.43a1.09,1.09,0,0,1,.73,0,.78.78,0,0,1,.38.12c.05.05.05.16,0,.34s0,.13.1.13h.84a1.73,1.73,0,0,1,.53.07s.06.07,0,.13a.54.54,0,0,1-.47.2h-.89c-.14,0-.22,0-.24.13s0,.2.21.18l.49,0h.63c.13,0,.2,0,.2.15s-.07.16-.2.18m4.47.72c0,.07-.06.12-.15.16a1.38,1.38,0,0,1-.51.07H33.48c-.64,0-1.14,0-1.5.07s-.62,0-.8.08a2.37,2.37,0,0,1-.64.06.63.63,0,0,1-.34-.15.18.18,0,0,1-.05-.24.83.83,0,0,1,.42-.26,1.79,1.79,0,0,1,1.18-.1l.13,0h5.4a4.74,4.74,0,0,1,.51,0c.31,0,.46.12.44.28m-2-4.45a.82.82,0,0,0-.13-.23.17.17,0,0,0-.12,0l-1.37-.05c-.44,0-.92,0-1.44,0a.26.26,0,0,0-.18.08,2.39,2.39,0,0,0-.32.41.41.41,0,0,0,0,.27c0,.09.07.14.11.14h1a.9.9,0,0,1,.5.11.16.16,0,0,1,0,.21.36.36,0,0,1-.17.16.76.76,0,0,1-.31,0h-1c-.15,0-.23,0-.25.12s.07.16.23.16h1.55a.23.23,0,0,0,.18-.09.84.84,0,0,1,.37-.29.73.73,0,0,1,.37,0h.57c.15,0,.22,0,.2-.12a1.21,1.21,0,0,0-.1-.29.3.3,0,0,1,0-.22.26.26,0,0,1,.22-.16c.08,0,.1-.09.06-.19m.18,6.57c.06,0,0-.08,0-.12l-.43-.12-.46-.09c-.24,0-.37-.14-.39-.25s0-.22.19-.3.1-.1,0-.1h-.42a.42.42,0,0,0-.16,0s0,0,0,.09a.14.14,0,0,1-.06.12.89.89,0,0,1-.29.13,6.57,6.57,0,0,0-.63.23,2,2,0,0,0-.32.18.76.76,0,0,0-.23.18s0,.06.06.08a2.93,2.93,0,0,0,.71.14c.31,0,.64,0,1,0s.64,0,.93-.06a1.61,1.61,0,0,0,.62-.17"/></svg>