<svg id="圖層_1" data-name="圖層 1" xmlns="http://www.w3.org/2000/svg" viewBox="0 0 51.43 48.59"><defs><style>.cls-1{fill:#5e2200;}.cls-2{fill:#fff;}</style></defs><title>工作區域 1</title><path class="cls-1" d="M51.25,20.94c-.1-.34-.4-.75-.53-1.12a6.25,6.25,0,0,0-1-2.46A3.18,3.18,0,0,0,47.86,16a3.07,3.07,0,0,1-.45-.33l-.13.59-.22-.15a4.2,4.2,0,0,1-.33,1.46c-.3.59-1,.7-1.4,1.38s0,1.41,0,1.67-.51.49-.76.64-.47.86-.7,1.42-.55.8-.71,1.2A11.53,11.53,0,0,0,41,23.2l.18-.19a6.56,6.56,0,0,0,.61-1.42l1-.08L42,20.82l.49-1.49.81-.31-.65-.28a6.86,6.86,0,0,0,.19-1.42l.65-.36-.68-.26a5.62,5.62,0,0,0-.28-1.36l.67-.72-1.15-.35a4.64,4.64,0,0,0-.33-.48s-.16-.68-.37-.55-1.34-.25-1-.76a1.46,1.46,0,0,0-.08-1c1,.21,2.15,1.76,2.15,1.76s.91,2.05.16-1a3.79,3.79,0,0,0-3-2.56,1,1,0,0,1-.12-.3,8.86,8.86,0,0,0-1-1.75,5.87,5.87,0,0,0-2.06-1.74A4.62,4.62,0,0,0,35,5.5a7.91,7.91,0,0,0-5.41,1.1l-.49,0V5.79L28,6.47,27.88,6l-.62-.21-.06-.54.22-.11A9.7,9.7,0,0,0,30.8,1.38c.36-.73.41-2.45-.89-.42A6.36,6.36,0,0,1,26.8,3.61l-.06,0c-.07-.11-.14-.23-.23-.35a.94.94,0,0,0-.39-.4,2.55,2.55,0,0,0,.43-1.35c0-.82-.71-.93-1,.06a3.93,3.93,0,0,1-1.21,1.72.83.83,0,0,0-.25-.06.93.93,0,0,0-.56.46c-.41,0,.15-.54-.37-.82s-.92.53-1,1.21-.62.82-.54.37-.11-.74-.49-.77S20.45,4,20.2,5a1.78,1.78,0,0,1-.13.37c-.6.24-2.75,1.08-3.66,1.59-1.06.59-2.56,1.44-3.54,2.11s-.4,1.95-.32,2.37A3.84,3.84,0,0,1,12.3,13a1.34,1.34,0,0,1-1.34.89,1.56,1.56,0,0,0-1.34.76l-.16.14,0,0a.49.49,0,0,1-.25.12c-.15.1-.23.13-.28.21a3,3,0,0,1-1,.17,1.2,1.2,0,0,1-.9-.76c-.14-1.66,1.59-1.33,3-2.28s2.22-1.46,1.93-4.07,1.41-1.73,2.29-2a5.69,5.69,0,0,0,1.75-1,23.17,23.17,0,0,1-2.88.53A2.58,2.58,0,0,0,10.9,7.87a10.7,10.7,0,0,0,0,1.79,1.92,1.92,0,0,1-1.13,1.8C8.9,12,6.5,12.79,6.06,13.72A1.56,1.56,0,0,0,7.73,16l1.1-.1a1.41,1.41,0,0,0,.1.36l-.65.22.69.25-.49.42.73.26-.65.72L9.7,18l-.53.76.9-.08.41.63.56-.51.49.73L11.7,19l.4-.43,0,.76.49-.76.41.85.36-.64.33.47.57-.68a3.72,3.72,0,0,1,.28.59,4.27,4.27,0,0,0,.33.68,4.28,4.28,0,0,0-.25,1.2c-.26-.29-.5-.59-.74-.91a2.27,2.27,0,0,0,.29,1.92l.12.06h0a5.18,5.18,0,0,0,1.75.33,3.57,3.57,0,0,0,.92-.12l.31-.06a8.82,8.82,0,0,0-.68,1,11.55,11.55,0,0,0-2.2-.21,11.08,11.08,0,0,0-6.7,2.23,2.29,2.29,0,0,1-.7-.79,7.26,7.26,0,0,1-.16-4.07c.3-.84.62-1.64,0-1.91s-.8-.36-.8-.36a2.16,2.16,0,0,1-.54.05c-.14,0-.4.2-.48.34s-.54-.18-.63-.23a.5.5,0,0,0-.65.07c-.27.27-.3.54-.7.52s-.89-.28-1.46,0A3.41,3.41,0,0,0,.55,20s-.05.25.16.14.24-.32.51-.47.89-.2,1.07.09A2.35,2.35,0,0,1,2.57,21,2.33,2.33,0,0,0,3,22.36a1.84,1.84,0,0,1,0,1.54.85.85,0,0,1-1-.71c-.15-.74-.06-.83-.15-1.19s-.27-.6-.24-.9-.11-.69-.57-.64S0,21.87,0,22.16s.27.48.39.06.37-.75.66-.6a1.06,1.06,0,0,1,.43.45,3.06,3.06,0,0,1,0,.47,2,2,0,0,0,.79,1.76c.7.41,1.25,2.07,1.42,2.64a2.78,2.78,0,0,0,0,.92,2.3,2.3,0,0,0,.89,1.31,9.88,9.88,0,0,0-.77,2.28.82.82,0,0,1-1.06-.66,1.33,1.33,0,0,0,.89,1.89,7.38,7.38,0,0,0,0,.82A10.72,10.72,0,0,0,14.43,44a10.8,10.8,0,0,0,2.2-.22c1.7,2.9,5.63,4.81,10,4.81s8.32-1.91,10-4.81a10.87,10.87,0,0,0,2.2.22,11.05,11.05,0,0,0,7-2.45.48.48,0,0,0,.52-.11c.29-.25.51-.59.42-.74a6,6,0,0,0,.42-.46.47.47,0,0,0,.55-.17.68.68,0,0,0,.17-.75c.07-.09.13-.19.19-.28a.54.54,0,0,0,.56-.35c.15-.33.24-.69.09-.8.15-.33.29-.66.41-1a.88.88,0,0,0,.63-.74c.12-.39.08-.78-.21-.85a9.64,9.64,0,0,0,.17-1.8,10.07,10.07,0,0,0-.56-3.3,9.21,9.21,0,0,0,1.53-3.51,13.06,13.06,0,0,0,.18-2.62c0-.29.35-.63.48-1.41a3.83,3.83,0,0,0-.13-1.72M8.8,15.74l-.91.1h0a1.65,1.65,0,0,1-1.12-.25,1.58,1.58,0,0,1-.22-2.09A8.35,8.35,0,0,1,9.34,12,2.44,2.44,0,0,0,11.1,9.84c.06-1.13-.24-2,.38-2.8A2.2,2.2,0,0,1,13.3,5.92a6.08,6.08,0,0,0,1.95-.34,4.36,4.36,0,0,1-1.19.51c-.46,0-2.19-.26-2.41,1.21-.06.87.32,1.75,0,2.71s-.65,1.49-2.09,2.31c-1,.56-2.58.78-2.77,1.57a1.35,1.35,0,0,0,.39,1.45,1.4,1.4,0,0,0,.69.21,5.33,5.33,0,0,0,.92-.13.5.5,0,0,0,0,.32m.11-.56h0m5.36,6.48a1.43,1.43,0,0,1-.22-1.05,5.71,5.71,0,0,0,.68.71c.52.48-.31.57-.46.34m31-.05c.43-.19.78-1,.78-1a1.85,1.85,0,0,0,.73-.74c.27-.53.6-1.12.78-1.08s.51.55.78.89A6.84,6.84,0,0,1,49,21.17s0,.15-.11.25a1.31,1.31,0,0,0-.15-.5l0,0a1.1,1.1,0,0,0-.68-.66.87.87,0,0,0-.93.41,1.21,1.21,0,0,0-.12,1,.61.61,0,0,0,.32.44.86.86,0,0,0,.81-.16.23.23,0,0,0,0-.31.22.22,0,0,0-.3,0,.55.55,0,0,1-.31,0,.23.23,0,0,1-.07-.14.83.83,0,0,1,.06-.63.44.44,0,0,1,.46-.22c.19,0,.32.25.4.42l0,.05c.13.27.22.46-.11,1.2a.09.09,0,0,1,0,.05.53.53,0,0,1-.46.19c-.45-.08-.35,0-.35,0s.48.47.33.73-.68.45-1.23,0-.7-.66-.85-.48.87,1.35,1,1.91a4,4,0,0,1-.91-.64,4.22,4.22,0,0,1-1-1.52.77.77,0,0,1,.43-.94M48.71,33.5a9.2,9.2,0,0,1-.44,2.79.78.78,0,0,1-.22,0,3.44,3.44,0,0,1-.55,0A8.34,8.34,0,0,0,48,33.5a9,9,0,0,0-9.15-8.8c-.3,0-.63,0-1,.06a1.32,1.32,0,0,0-.2-.12.78.78,0,0,0-.63-.06.82.82,0,0,0-.53.62.64.64,0,0,0,.2.63.29.29,0,0,0,.43,0,.3.3,0,0,0,0-.43s0,0,0-.06a.21.21,0,0,1,.13-.16.21.21,0,0,1,.16,0,.47.47,0,0,1,.23.23.61.61,0,0,1-.38.77.84.84,0,0,1-.64,0,.83.83,0,0,1-.42-.48,1.07,1.07,0,0,1,.09-.89,1.12,1.12,0,0,1,.6-.54,10.14,10.14,0,0,1,2-.19,9.67,9.67,0,0,1,9.86,9.45m-14.1-8.71a.63.63,0,0,0,.63-.22A.79.79,0,0,0,35,23.3a1.14,1.14,0,0,0-.44-.11c-1.63-2-4.64-3.16-7.91-3.16s-6.28,1.21-7.91,3.16a1.09,1.09,0,0,0-.43.11.82.82,0,0,0-.43.47.83.83,0,0,0,.17.8.65.65,0,0,0,.63.22.29.29,0,0,0,.24-.36.3.3,0,0,0-.35-.24.06.06,0,0,1-.06,0,.24.24,0,0,1-.05-.21s.05-.07.13-.11a.46.46,0,0,1,.32,0,.6.6,0,0,1,.38.77.81.81,0,0,1-.41.48.79.79,0,0,1-.64,0,1.08,1.08,0,0,1-.65-.57v0a1,1,0,0,1-.06-.74c1.51-2.59,5.09-4.3,9.12-4.3s7.62,1.71,9.12,4.3a1,1,0,0,1,0,.74s0,0,0,0a1.06,1.06,0,0,1-.64.57.84.84,0,0,1-.64,0,.83.83,0,0,1-.42-.48.62.62,0,0,1,.39-.77.46.46,0,0,1,.32,0,.26.26,0,0,1,.12.11.27.27,0,0,1,0,.21.06.06,0,0,1-.06,0,.31.31,0,0,0-.36.24.31.31,0,0,0,.24.36M18.14,21.36l-.75-.48a2.53,2.53,0,0,1,.94-.48c.43-.08.23.55.08.76l-.11.09-.16.11m1.16-.87a4.89,4.89,0,0,1,.61-1.83,1.81,1.81,0,0,1,.79-.93,4.7,4.7,0,0,0,1.63,1.34,11.9,11.9,0,0,0-3,1.42m7.34-2.07h-.43A5.35,5.35,0,0,0,27.26,18c.43.18.74,0,1.18.1A4.88,4.88,0,0,0,33,16.37c1.34-1.56,1.87-1.18,1.87-1.18,1.83,1.14,1.62,3.3,1.62,5.29a2.25,2.25,0,0,1-.68,1.63,12.27,12.27,0,0,0-9.21-3.69m.94-5.06c0-.1-.32-.1-.26-.34a.2.2,0,0,1,.29-.13,1.53,1.53,0,0,1,.33.61c.07.3-.33.68-.33.68s-.62,0-.29-.24a.55.55,0,0,0,.26-.58m.44,3-.36.2-.08,0a6.32,6.32,0,0,1-.59-.66c.08-.42.39,0,1,.41m-.54-1.5c-.09-.24-.09-.38.33-.44a13.92,13.92,0,0,1,2.28.68l-.75.47-.51.05a2.83,2.83,0,0,1-.46-.22c-.13-.1-.92-.27-.89-.54m4.89-6.95c.09.17.22,0,.43.07a.3.3,0,0,1,.27.13s-.38.09-.24.25.41-.05.46-.21.31-.09.34,0,.22.07.24-.07.53-.23.62-.12-.15.39-.45.47-.46,0-.67.18-.64,0-.88,0-.36-.35-.36-.35l-.08-.61c-.18-.4.26-.47.26-.47s.3,0,.27.28-.29.23-.21.41m.92-.43.21.14s-.08.27-.16.29a1.13,1.13,0,0,1-.43-.1c-.06,0,0-.21.05-.36a.19.19,0,0,0-.09-.27c-.06,0,.17-.25.17-.25s.24-.15.28-.1-.1.31-.13.39a.24.24,0,0,0,.1.26m-1.08,2.94c.59-.33,1.18-1.15,1.84-1.39.23-.07.43-.13.42,0s-.43.48-.79.92-1.18,1.4-1.74,1.95a3.72,3.72,0,0,1-2.75,1C28,13,28,12.48,28,12s.29-.44,1.34-.54a5.25,5.25,0,0,0,1.87-.55,6.89,6.89,0,0,0,1-.48M29,14.28a2.18,2.18,0,0,1-.82-.13,1.43,1.43,0,0,1-.06-.69c.06-.34.49-.3.49-.3a2,2,0,0,0,1,.17c.62,0,2.06-.07,2.06-.07a4.47,4.47,0,0,1,1.18.2.25.25,0,0,1,0,.19l-1.58.44-.92.13s-1,0-1.38.06m3.68,1.16a2.27,2.27,0,0,1-1.54.75,2,2,0,0,1-.73-.07l.8-.54.35-.24h0c.66-.2,1.25-.17,1.12.1M30.6,17a2.93,2.93,0,0,1-1.9.37l-.11,0L29,17l.24-.16A4.47,4.47,0,0,0,30.6,17m8.63-.22a1.14,1.14,0,0,1,.43-.23c.3,0,.14.31.14.31a2.48,2.48,0,0,1-.35.28c-.08,0-.33.2-.33.06s-.08-.26.11-.42m-.3-.57c-.08-.09,0-.25.11-.28a3.06,3.06,0,0,0,.33-.2c.13-.2.35.37.21.51a.63.63,0,0,1-.4.14,1.33,1.33,0,0,1-.25-.17m.79-.59a.22.22,0,0,1-.14-.37A1.26,1.26,0,0,1,40,15c.17-.05.46.32.3.48s-.38.12-.54.12m.14-.76c-.28.16-.47.08-.57.25s-.06.34-.14.51-.41,0-.49-.2a.29.29,0,0,1,.19-.37.6.6,0,0,0,.33-.42c0-.23.38-.37.38-.37s.57.43.3.6m-.74-.68c-.16.11-.13.28-.27.51s-.38.48-.57.48-.19-.45-.08-.51a1.23,1.23,0,0,1,.35-.17c.09,0,.11-.34.19-.54s.19-.14.19-.14c.19,0,.36.26.19.37m-.73-.42a.36.36,0,0,0-.21.31l-.06.33s-.27.12-.32,0a1.78,1.78,0,0,1-.06-.56c0-.09.19-.17.35-.2a.32.32,0,0,0,.22-.31c0-.08.3,0,.3,0s.21.17.19.25-.33.12-.41.15m-.43-.3c-.29.17-.37-.08-.53.13s.08.25.08.25v.38a.32.32,0,0,0-.41.13c-.12.25.21.34.41.25s.2.21.08.34,0,.26.16.17.45.3.37.47-.49.16-.69,0-.16-.42-.45-.46-.28-.55-.32-.81.24-.59.24-.59l.65-.55c.37-.47.61-.13.61-.13a.43.43,0,0,1-.2.47m-.39,2.77c0,.23-.3.42-.42.62a.41.41,0,0,1-.55,0,.37.37,0,0,1,.16-.45c.16-.06.47-.59.47-.59.28-.13.34.15.34.38m-.83-.8c0-.15.34.08.18.29l-.35.55s-.2.19-.3,0-.14-.29.06-.42.39-.29.41-.44m-.57.33c-.22.11-.33-.4-.33-.4a1.92,1.92,0,0,0,.38-.39c.14-.21.33.28.33.28a1.16,1.16,0,0,1-.38.51m6.46-1c.62-.09-.89.47-.89,1.06s.85,1.1,1.26,1.18-.9,0-1.06.68a1.08,1.08,0,0,0,.81,1.4c.66.08-1.13-.09-1.42.5s.49,1.44.9,1.78-.94-.21-1.3-.09-.29.34-.25.73a3.11,3.11,0,0,1,0,.67H40l-.61.42-.28-.08a34.8,34.8,0,0,0,2.07-4.65c.28-1.23.53-3-.2-4.07a3.94,3.94,0,0,0,1.66.47M39.45,19l.43-.17c.41-.28.68.14.57.23a6.07,6.07,0,0,0-.57.31c-.08.08-.43,0-.38-.06s0-.31,0-.31m.19.73.13,0a3.14,3.14,0,0,0,.44-.23.25.25,0,0,1,.4.09c0,.08-.32.28-.32.28L40,20s-.05.25-.13.25-.2.25-.25.37.11.19.16.3a.31.31,0,0,1-.13.4c-.16.09-.27.06-.25-.11a1,1,0,0,0-.21-.59c-.08-.09-.36-.2-.28-.23s.09-.23.22-.28.19,0,.3-.2a.45.45,0,0,1,.22-.2m1.45-3c-.08.47-.49.13-.49.13a.44.44,0,0,0-.16.29c0,.17-.12.22-.29.22s0,.25,0,.25a1,1,0,0,0,.49-.25c.12-.17.36-.17.37-.09s-.33.34-.33.34a1.36,1.36,0,0,1,0,.59c-.08.21.24.22.21.38s-.17.09-.17.09a5.56,5.56,0,0,1-.65-.21c-.16-.09-.45.17-.45.17l-.24.12a4.17,4.17,0,0,1-.45,0c-.16,0,0-.25,0-.25a2.71,2.71,0,0,1,.49-.13c.12,0,.16-.42-.12-.46s-.53.46-.53.46l-.32,0s0-.34-.21-.38-.32.21-.32.21v.29l-.37.09a1.83,1.83,0,0,0,.12.51c.08.12.45,0,.45-.3s.24-.13.24-.13l.29.13.12.25s-.32.09-.41.3.61-.13.61-.13.49-.12.41.17a.55.55,0,0,1-.28.38l-.33-.12s-.28-.21-.37,0,.37.29.37.29l-.12.21a1.69,1.69,0,0,0-.37.3.14.14,0,0,0,.17.21,2.5,2.5,0,0,1,.48,0s.29.21.17.3,0,.3,0,.42,0,.25-.25.25-.12-.42-.28-.55-.49,0-.53.26.41.21.53.25,0,.59,0,.59l.41-.13-.05.35-.24.12-.32.09-.29,0L38,22s-.33-.34-.45,0,.16.68.08.8-.4-.12-.48,0a.66.66,0,0,0,0,.3l-.42.07c-.05-.19-.1-.41-.21-.41s-.24-.34-.12-.38-.12-.3,0-.46.24-.13.37-.13.2-.21.2-.21l-.37-.25s.17-.34.29-.18.24.13.33,0,.2-.29.32-.29.12-.34.12-.34a2.11,2.11,0,0,1-.61-.08c-.16-.09.08-.56.12-.68s.57,0,.7,0,.16-.21.16-.21a3.64,3.64,0,0,1-.65-.05c-.16,0-.13-.46-.13-.46s0-.43-.12-.51a.52.52,0,0,1,.17-.68,4.56,4.56,0,0,0,.61-.29l.16-.22.2-.08s-.08-.46.12-.55,0-.55-.24-.42-.33.72-.33.72.17.21-.2.42a.61.61,0,0,1-.69-.09,1.5,1.5,0,0,1,.69-.54,7.82,7.82,0,0,0,.29-.73c0-.16.12-.21.32-.25s.2-.17.45-.13.08.3,0,.51.2.17.32.26,0,.29-.12.34-.32.08-.24.29a.29.29,0,0,0,.32.17s0,.25-.12.34-.16.17,0,.38.29-.42.29-.42l.33,0a4.23,4.23,0,0,1,.36-.48c.16,0,.32-.24.53-.29s.12-.38,0-.34-.45,0-.49-.21.24-.25.41-.29.36.21.36.21l.08.38s.45-.21.37.25m-.8-2.85c.11.17.19.26.32.26s.22.28.19.59,0,.4-.19.34-.35,0-.27-.2,0-.56-.08-.62-.46,0-.51-.14,0-.31-.06-.45-.32-.06-.49-.06-.08-.37-.16-.48-.16,0-.32,0-.38-.17-.27-.31a.74.74,0,0,1,.37-.2c.11,0,.3.06.28.2s0,.23.19.12.43.14.43.25.14.34.3.34.16.22.27.39m-1-3.69c.08,0,.07.14,0,.2a1.26,1.26,0,0,1-.26.13.61.61,0,0,0-.31.19c-.05.07-.09.08,0,.13a2.11,2.11,0,0,0,.43.2.41.41,0,0,0,.21,0,.24.24,0,0,0,.21-.1.16.16,0,0,0,0-.17c0-.06,0,0,0-.07a.17.17,0,0,1,.11-.2.43.43,0,0,1,.22,0,2.19,2.19,0,0,1,.67.16.24.24,0,0,1,.13.07,1,1,0,0,0,.3.13c.11,0,.15.13.27.21a1.06,1.06,0,0,1,.32.5s-.06,0-.07,0l-.08,0a2.58,2.58,0,0,1-.7-.36.6.6,0,0,0-.33-.12,3,3,0,0,0-.52,0c-.1,0-.1-.05-.16,0s-.06.1-.11.16-.12.15-.21.17-.09.06-.17.11a.38.38,0,0,1-.29.11,2,2,0,0,0-.48.05,0,0,0,0,0,0,0s0,.05,0,.1-.13.17-.18.23a.42.42,0,0,1-.15.11.56.56,0,0,0-.2.14,2,2,0,0,1-.38.33,1,1,0,0,0-.26.22c-.08.06-.1.09-.18.1a.6.6,0,0,0-.28.12c-.05,0-.07.05-.1.05a.4.4,0,0,0-.34.24,2.77,2.77,0,0,1-.21.29c-.06.07,0,.05-.08.08a1,1,0,0,0-.26.21c-.06.06-.15-.05-.21,0s-.14.13-.21.18a1.84,1.84,0,0,1-.25.17.33.33,0,0,1-.17,0h-.38c-.08,0-.08,0-.16,0a1.91,1.91,0,0,1-.32-.16C34,14.1,34,14.08,34,14s0-.06.09-.11l.24-.15.43-.25c.09-.06.07-.07.13-.14a.46.46,0,0,1,.26-.15.44.44,0,0,0,.21-.07s0-.05,0-.1a.1.1,0,0,0-.06-.1l-.11,0a.18.18,0,0,1-.12-.12c0-.06,0-.05,0-.12a.18.18,0,0,0-.23-.1c-.11.05-.22.07-.35.13a1,1,0,0,1-.53,0l-.24-.06A2.25,2.25,0,0,0,33,12.6H32.9a3.22,3.22,0,0,0-.37,0,.15.15,0,0,1-.14-.18c0-.07,0-.06,0-.1a.34.34,0,0,1,.14-.09.31.31,0,0,0,.12-.09.33.33,0,0,1,.22-.13,1,1,0,0,1,.38,0,.35.35,0,0,0,.17,0,.41.41,0,0,0,.32-.11,1.94,1.94,0,0,1,.34-.22l.09-.05s0-.07,0-.1l-.14-.07a1.49,1.49,0,0,1-.24-.14.14.14,0,0,1-.05-.18c0-.06.09-.13.19-.09a.47.47,0,0,0,.31,0,.39.39,0,0,0,.25-.16c0-.06.06-.06.11-.06a.81.81,0,0,1,.55.1s-.05.11,0,.16a.72.72,0,0,0,.28.12c.09,0,.14,0,.19.18a.48.48,0,0,0,.43.26,1.25,1.25,0,0,0,.24,0,.09.09,0,0,0,.06-.13s0-.06,0-.06-.15-.1-.25-.13a.47.47,0,0,1-.26-.22c0-.09-.09-.08-.15-.12s-.2-.06-.26-.1-.11-.06-.11-.13a.19.19,0,0,1,.1-.14s0,0,.08,0l.18,0a.57.57,0,0,0,.32-.16.46.46,0,0,1,.55,0c.1.11,0,.14,0,.19s-.13,0-.19.05a1.29,1.29,0,0,0-.19,0,.18.18,0,0,0-.12.12.12.12,0,0,0,.06.15.83.83,0,0,0,.15,0,1.42,1.42,0,0,1,.16.05.16.16,0,0,1,.12.12.24.24,0,0,0,.15.21c.13,0,.18.26.22.36s.21.16.14.25-.18,0-.24-.05-.11-.26-.24-.21-.11.23-.11.3,0,.05,0,.08h0a1,1,0,0,1,.18.09s0,.17.07.2.08,0,.14,0a.19.19,0,0,0,.18-.11.31.31,0,0,1,.2-.15,1.43,1.43,0,0,0,.28-.13c.07-.05.14-.07.13-.17s-.08-.14-.16-.22a1,1,0,0,0-.35-.24.3.3,0,0,1-.2-.24c0-.08,0-.11-.05-.16s-.08-.06-.07-.1a.12.12,0,0,1,.17,0,.62.62,0,0,0,.19.14,2.39,2.39,0,0,1,.48.33,3.88,3.88,0,0,1,.33.23.47.47,0,0,0,.46,0s0,0,0,0,0-.14,0-.21-.12-.26-.27-.26a.55.55,0,0,1-.31-.06c-.08,0,0,0-.07-.06s0-.22.12-.24l.2,0,.21,0a.32.32,0,0,0,.21-.2c0-.1,0-.13-.08-.15s-.24,0-.25-.12.07-.09.11-.14a.2.2,0,0,1,.23,0c.06,0,0,0,.09.08a.84.84,0,0,0,.4.17c.11,0,.07,0,.16,0m-4.21-3A.77.77,0,0,1,35.39,7a2,2,0,0,1,.27,0c.1,0,.05.13,0,.16a2.63,2.63,0,0,0-.23.16c-.06.12-.43-.13-.35-.23m1.85,2.89a.17.17,0,0,1,.17-.11.45.45,0,0,1,.37.1.71.71,0,0,1,.18.37c0,.11-.14.13-.21.14s-.1,0-.14-.1a.69.69,0,0,0-.25-.2l0,0s-.11-.1-.07-.17M36,6.92a.92.92,0,0,1,.37,0c.25.1.09.28.09.28a1.21,1.21,0,0,1-.3.07c-.07,0-.28,0-.27-.09S35.87,7,36,6.92M37.88,8a3.14,3.14,0,0,1,1,1.37c0,.1-.65-.14-1-.07l-1.25.27-.06-.92a1.64,1.64,0,0,0-.43.24c-.1.1-.56.23-.72-.11s.26-.4.26-.4c.36-.65,1.74-.62,2.2-.38M35.05,6.73a.75.75,0,0,1,.27-.17c.14,0,.51.13.41.24s-.31.1-.45.12-.32-.1-.23-.19m-.79,0c0-.11.65-.39.6-.12s-.21.41-.16.54.21.12.29.23-.27.34-.44.37-.2-.14-.15-.24a.31.31,0,0,0-.11-.37c-.13-.1,0-.41,0-.41m-.38,0c0,.17.13.2.21.38a.73.73,0,0,1,0,.63c-.1.16-.42,0-.4-.07a1.13,1.13,0,0,1,.08-.35c0-.08-.18-.19-.27-.31a.15.15,0,0,1,0-.21c.11-.16.37-.24.36-.07M32.21,6c1-.24,1.77,0,1.37.11a4.49,4.49,0,0,0-1,.47A4,4,0,0,0,31.08,8a5.38,5.38,0,0,1-.84.88,11.42,11.42,0,0,1-1,.78c-.43.31-1.84.34-2.17.65a1.39,1.39,0,0,0-.39,1c0,.21.17,0,.3-.3s.59-.69,1.6-.86A4.08,4.08,0,0,0,30.6,9.3,3.29,3.29,0,0,1,32,8.89a10.43,10.43,0,0,1-1.74,1.91,3.54,3.54,0,0,1-2,.38.61.61,0,0,0-.72.37,2.14,2.14,0,0,0,0,.86,2.45,2.45,0,0,1-.32.2c-.2.1-.2-.72-.46-.78s-.14.3-.24.34-.39,0-.35-.28-.2-.34-.3-.44.26-.44.36-.47.07-.35-.16-.48-.3.13-.3.23a4,4,0,0,1-.33.86.86.86,0,0,0,.07.65.42.42,0,0,1,.46.24c.16.3.33.27.43.23a.92.92,0,0,1,.68.52c.14.34-.1.31-.16.47s-.13.38-.36.45,0-.82-.16-.92-.47.17-.56.17,0-.31-.1-.51a4.29,4.29,0,0,0-.36-.55s-.26-.34-.59-.72-.33-.68-.16-.75l.68-.27s-.06-.34-.06-.45.16-.2.36-.23.06-.41.26-.51.26.37.43.57.19-.34.32-.54.6-.07.95-.1a8,8,0,0,0,2.46-2A3.26,3.26,0,0,1,32.21,6M32,8.37a.19.19,0,0,1-.33,0l-.11-.26s0-.27.14-.32.2,0,.19.12.11.33.11.42m-5.72,6.46a.46.46,0,0,0-.39-.17s.06-.31-.2-.31-.53.14-.53,0,.13-.34-.09-.55-.27.07-.27.07l-.23,0s-.29-.59,0-.71-.11-.57-.08-.74-.3-.3-.52-.39-.08.23-.16.39a.67.67,0,0,0,0,.6c.11.2.27-.06.46.2s0,.39,0,.73.36.2.44.56a1.25,1.25,0,0,1-.38,1c-.17.17-.44-.22-.19-.53S24,14.1,24,14.1a1.87,1.87,0,0,1-.33-.59c-.11-.34-.51-.23-.62-.37a1,1,0,0,1-.08-.87c.13-.2.46-.14.57-.31a.63.63,0,0,0,0-.45,4.69,4.69,0,0,1-.17-.95c0-.34.46-.37.65-.41s0-.3.2-.44.46-.24.56,0,.42.65.26.68-.39.24-.42.11-.33-.14-.33,0,0,.31-.3.31-.43.2-.29.2a.57.57,0,0,1,.52.21c.13.2.07.64.23.78s.53.21.66.38-.13.78,0,1,.36,0,.42.24.1.51.46.47.23.38.23.38.13.34.29.34.14.51.14.51l-.33,0a.88.88,0,0,0-.13-.54m-4.41-.08c-.08-.51-1.55-.54-1.55-.54a1.53,1.53,0,0,1,2.47.6c.17.7-.81,1.55-1,1.57a.24.24,0,0,1-.24-.39,1.84,1.84,0,0,0,.35-1.24m-.92-2.17c0,.22-.27.73-.46.7s-.19-.31-.06-.56a2.23,2.23,0,0,0,.17-.74c.54-.31.32.37.35.6m.81-.74a.64.64,0,0,1,.6.26.72.72,0,0,1,.11.59c-.08.25.13.2.24.37s.22.45.35.67-.13.37-.35.34-.38-.56-.43-.93-.38-.25-.41-.39-.3-.17-.41-.17-.13-.26-.13-.4a1.55,1.55,0,0,0-.22-.48s.35-.48.65-.53.25.39.25.39h-.3c-.27.11-.17.31,0,.28M23,8.69a5.93,5.93,0,0,0,1.49-.43c.41-.25.44-.14.44-.14s.16.45.11.53.35.26.43-.22a.58.58,0,0,0,0-.48s.49-.42.52-.59a11.83,11.83,0,0,0,.27-1.16V6s.49-.17.54.14a1.28,1.28,0,0,1-.24,1.27,6.32,6.32,0,0,0-.68,1.13l-.11.22a2.66,2.66,0,0,1-1,.4c-.32,0-.46.17-.62.22a.94.94,0,0,0-.41.34c-.05.12-.46.31-.57.4s-.1.36-.08.7.14,1.07-.27,1.19-.43-.29-.38-.57a.6.6,0,0,0-.32-.67,3.8,3.8,0,0,0,.73-1,1.57,1.57,0,0,0,.13-1M21.1,13.2a.53.53,0,0,0,.08-.4c.43-.25.46.23.43.37s0,.37-.27.42a.24.24,0,0,1-.24-.39m1.21,3.43a4.11,4.11,0,0,1,2.56-.13,9.08,9.08,0,0,0,1.36.67,11.34,11.34,0,0,1-1.41.73c-1.74.23-1.9.53-3.31-.84.38-.25.52-.26.8-.43m6.75-9.57a.77.77,0,0,1,.61.09c-.47.44-1,.87-1.46,1.27a3.26,3.26,0,0,1-.79.54c-.13.06-.8.33-.9.13s.25-.41.31-.52a3.76,3.76,0,0,1,1.64-1.26,2.55,2.55,0,0,1,.59-.25M28.34,7,26.8,8l.06-.65ZM27.6,3.42h0m-2.3-.74c.41-.57.62-1.64.95-1.36a2.37,2.37,0,0,1-.55,1.55h0s0,0,0,0a.66.66,0,0,0-.33.45c-.13.16-.25.3-.36.41a.89.89,0,0,0-.29-.36,4.48,4.48,0,0,0,.61-.71m-1.53,1.5A.87.87,0,0,1,24,3.81s0,0,.05-.05a.4.4,0,0,1,.5.11c.13.13.13.34.2.51a.32.32,0,0,0,.17.19c.26.11.47-.12.56-.33s.08-.22.12-.33a2.22,2.22,0,0,1,.09-.37c.08-.16.16-.27.27-.26s.37.32.49.48a1,1,0,0,0,.3.29A.41.41,0,0,0,27.16,4a2.88,2.88,0,0,1,.35-.26c.14-.07.27-.15.4-.23a6.85,6.85,0,0,0,.9-.71,7.6,7.6,0,0,0,.69-.7c.24-.27.43-.57.65-.85,1.47-1.83-.13.85-.38,1.19A9.38,9.38,0,0,1,26.22,5.2a17.59,17.59,0,0,0-2.6,1.3,1.1,1.1,0,0,1-1.49-.28L22.45,6a3.23,3.23,0,0,0,1.32-1.78M20.5,5.35c.19-.62.31-1,.52-1.12.46-.09-.08,1.21.62,1,.87-.37.73-1.76,1.17-1.95s0,.73.46.85h.05l-.06.13a1.09,1.09,0,0,0-.08.15,3.59,3.59,0,0,1-1.89,1.68,2.76,2.76,0,0,1-.62.1,2.31,2.31,0,0,1-.72-.1,1.35,1.35,0,0,0,.55-.73M19.14,6.66a.7.7,0,0,1,.44-.14c.22,0,.43.07.65.07.43,0,.85-.23,1.29-.26s.54.79,1.11.86a4.29,4.29,0,0,0,2.26-1A1.3,1.3,0,0,1,26,5.75a5.82,5.82,0,0,1-1.09,1.78,2,2,0,0,1-2,.53.3.3,0,0,0-.42.21A2.87,2.87,0,0,1,21.94,10a4.11,4.11,0,0,1-2.3,1.7,1.35,1.35,0,0,1-1.34-.34c0-.15.32-.13.53-.13a1.89,1.89,0,0,0,1-.23,1.76,1.76,0,0,0,.85-1.31.94.94,0,0,0,0-.31c-.07-.21-.27-.08-.42.19l-.07.07a1.6,1.6,0,0,1-.53.33c-.16.07-.25,0-.32-.18a2.88,2.88,0,0,1,0-.78.06.06,0,0,0-.12,0,5.38,5.38,0,0,1-.65,1,.4.4,0,0,1-.18.08s-.06,0-.09,0a1.56,1.56,0,0,1-.07-.56h0a.06.06,0,0,0,0-.07.07.07,0,0,0-.1,0,5.54,5.54,0,0,1-.59.94.48.48,0,0,1-.34.16c-.08,0-.1-.29-.13-.43h0a.07.07,0,0,0-.07-.07.09.09,0,0,0-.11.07,2.92,2.92,0,0,1-.27.63,1.48,1.48,0,0,1-.38.37c-.08,0-.23.16-.33.14s-.09-.19,0-.21.73-.28.14-.47-.73.74-1,.8-.33-.44-.09-.78a3.76,3.76,0,0,1,1.45-.8c.43-.19.47-.61.63-1a3.29,3.29,0,0,1,1-1.15A8.43,8.43,0,0,1,18.68,7a4.92,4.92,0,0,0,.46-.37m-4.05,8.19a.67.67,0,0,1-.67-.11l-1,0c.16-.63,1.1-1.08,1.53-1.23a1.64,1.64,0,0,1,1.22.13,2.31,2.31,0,0,0,1.4-.13c.24-.14.49-.52.77-.27s0,.57-.1.68a6.22,6.22,0,0,1-1.54.15c-.43,0-1.37,0-1.55.16s.26.47-.06.64m-.59-1.5c-.14.21-.37.1-.43-.11s-.57-.38-.69-.45-.36,0-.28-.31.26-.28.26-.28l.65.4c.39.24.63.54.49.75M14.28,12c.18-.13.48-.13.56.06s.43.34.45.57,0,.41-.22.49-.35.09-.51-.3a.93.93,0,0,0-.49-.5.3.3,0,0,1,.21-.32m-.74-.06c0-.24-.32-.47-.57-.47s-.1-.38-.1-.38.33-.13.51.19.51.7.47.8-.31.09-.31-.14m-.42,1a1.1,1.1,0,0,1,.43.15c.22.13.4.39.26.56s-.29.1-.29.1a2.85,2.85,0,0,0-.27-.25c-.18-.15-.34,0-.38-.28s.25-.28.25-.28m4.59-1.17s.11-.14.16-.09a.57.57,0,0,1,.14.57c-.11.34-.16.62-.3.53s.11-.25.11-.59-.11-.42-.11-.42m.14-1a11.57,11.57,0,0,0-1.6.93c-.61.34-.73-.17-.63-.21a2.46,2.46,0,0,1,.39-.09,1.13,1.13,0,0,0,.47-.15,1,1,0,0,0,.29-.41.75.75,0,0,0,.05-.16.4.4,0,0,0,.24.14.66.66,0,0,0,.52-.24,2.21,2.21,0,0,0,.34-.48,1,1,0,0,0,0,.16.31.31,0,0,0,.33.18.62.62,0,0,0,.29-.15A2,2,0,0,0,19,9.78,1,1,0,0,0,19,10a.55.55,0,0,0,.21.34.47.47,0,0,0,.43,0,1.39,1.39,0,0,0,.21-.11,1.54,1.54,0,0,1-.5.37,9.22,9.22,0,0,1-1.51.13m-1.36,2c.37,0,.1-.6.1-.6a1.21,1.21,0,0,1,.55-.31c.43-.15.43.52.33.76a1,1,0,0,1-1.12.49c-.69-.07-.65-.68-.55-.79s.35-.08.35-.08,0,.55.34.53M18.69,14c.24-.25,1.08-.06.73,0a.57.57,0,0,0-.41.45H18.5c-.44.05-.06-.23.19-.48m.24-1.44a.47.47,0,0,1,.08-.25c.06-.09.35.05.46.22s-.11.2-.27.4-.27-.23-.27-.37m.35.82c-.05-.11.19-.34.36-.45s.08-.48.08-.48c.05-.17.43-.14.48,0a1.18,1.18,0,0,1-.27.79c-.19.25-.59.25-.65.14m-5.76-4.2a37.33,37.33,0,0,1,4.11-2.25l.57-.08a14.82,14.82,0,0,1-1.59,1.61,4.47,4.47,0,0,0-1.46.51c-.45.33-.65,1.6-.65,1.6s0,.53-.22.68a.29.29,0,0,1-.43.08s-.08-.1-.08-.63c-.17-.42,0-.93-.12-1.14a.48.48,0,0,1-.13-.38m-.75,1c.06-.21.2-.21.2-.21s.35-.13.33.15.18.93,0,.72-.61-.45-.55-.66m-.08,3.36c.22,0,.7.23.7.37s-.09.19-.18.25a1.45,1.45,0,0,1-.73-.25c-.11-.09,0-.35.21-.37m-.09.71c.69.09.31.61.31.61l-.52,0s-.24-.09-.27-.27c0-.34-.21-.46.48-.38m-1.12,4.07a1.1,1.1,0,0,1-.84-.23c-.2-.15-.65-.25-.84-.55a3.55,3.55,0,0,0-.56-.61c-.1-.13-.4-.51-.08-.56a1,1,0,0,0,.37.41c.2.08.23.42.42.66a3.9,3.9,0,0,0,1.41.56,8.27,8.27,0,0,0,1.42-.33c.16,0-.65.63-1.3.65m3.14-1.6c-.2,0-.28.17-.45.34s-.36-.26-.12-.38a.41.41,0,0,0,.12-.64c-.16-.21-.65-.08-.93,0a4.63,4.63,0,0,1-.57,0,1.23,1.23,0,0,0-.28-.46.25.25,0,0,0-.41.21c0,.25.37.17.37.17a2.45,2.45,0,0,1,0,.55c0,.12-.29.29-.78.29a4.09,4.09,0,0,1-1.09,0c-.33-.08-.13-.38-.53-.47s-.29.09-.61-.29l-.07-.1h0c0-.07,0-.15,0-.21s.13-.46.23-.47.13-.06.3-.14a.21.21,0,0,0,.13-.24,1.47,1.47,0,0,1,.17-.16,1.71,1.71,0,0,1,1.44-.37,1.25,1.25,0,0,1,.65.8s.25.32.37.3a2.17,2.17,0,0,0,.57-.26c.28-.17.93.13,1.22.09s.56.5.56.5.05.55.05.68-.09.34-.29.3m.28-1.4a3.44,3.44,0,0,1,1.65-.92c.82-.11,2.06.06,3.9,2.15s2.93,2.22,4.8,1.57a17.44,17.44,0,0,0,2.56-1.27l.51-.29,1.13-.68,1-.64s1.51-1,1.75-1.12-1,1.14-1.07,1.18l-.1.08L30,16l-1.16.73-.61.36a19,19,0,0,1-2.63,1.32h0a5.54,5.54,0,0,1-2.56.41h0c-.86-.15-1.66-.77-3-2.19-2.27-2.55-3.16-2.1-3.32-2a4,4,0,0,0-1.6.77c-.43.48-.3-.13-.3-.13m0,3a.71.71,0,0,1,.58-.62,5.12,5.12,0,0,0,1.22-.7l.79-.07c.37,0,.48-.24.49-.33s-.22-.22-.48-.24-.67,0-.55-.26,1.06-.43,1.47-.4.78.65.78.65a8.79,8.79,0,0,1-.81,1.09,9.63,9.63,0,0,0-.82,1.26c-.14.15-.73.06-.73.06l-1.43-.11c-.3,0-.52-.19-.51-.33m.7,3.28a2.13,2.13,0,0,1-.53-.81,3.23,3.23,0,0,0,1.69.3,1.56,1.56,0,0,0,.14.48c-.56,0-1.06.17-1.3,0m1.29-.93a5.24,5.24,0,0,0,.84.65c.63.42-.24.66-.44.44a1.57,1.57,0,0,1-.4-1.09m-12,3a.89.89,0,0,0,0-.71,3.62,3.62,0,0,1-.23-1.66,3.07,3.07,0,0,0,.16-1.4c-.1-.34-.17-.84.28-.91s.65.24.57.51A.92.92,0,0,1,5.3,20c-.13.05-.22.24-.07.47s.46.24.34.74a4.16,4.16,0,0,0-.35,1.64,3.92,3.92,0,0,0,.28,1,2.24,2.24,0,0,1-.58,1,5.54,5.54,0,0,0-.63.72,4.22,4.22,0,0,1,.1-1.26,6.7,6.7,0,0,0,.52-.64M3.86,26.31a17.58,17.58,0,0,1-.23-2.06c.1-.28.36-.57.24-1A4.62,4.62,0,0,0,3.42,22a1.67,1.67,0,0,1-.19-1.47c.16-.5-.1-.93.07-1.14a.39.39,0,0,1,.63-.07,1.2,1.2,0,0,1,.34.9,11.65,11.65,0,0,0-.18,1.5c0,.55.21,1.83.21,1.83s-.45.41-.39.82.08,1.05.15,1.5a4.09,4.09,0,0,0-.2.42m.38.73c.08-.83,1.14-1.51,1.3-1.6a6,6,0,0,0-.61,1.79c0,.71.1,1.2-.22,1.24s-.55-.6-.47-1.43M17,42.23a1.1,1.1,0,0,1-.6.53,10.25,10.25,0,0,1-2,.2A9.67,9.67,0,0,1,4.58,33.5a9.67,9.67,0,0,1,9.85-9.45,10.24,10.24,0,0,1,2,.19,1.12,1.12,0,0,1,.6.54,1.1,1.1,0,0,1,.08.89.83.83,0,0,1-.42.48.81.81,0,0,1-.63,0,.61.61,0,0,1-.39-.77.51.51,0,0,1,.23-.23.19.19,0,0,1,.3.13s0,.05,0,.06a.3.3,0,0,0,0,.43.31.31,0,0,0,.44,0,.67.67,0,0,0,.2-.63.84.84,0,0,0-.53-.62.81.81,0,0,0-.64.06,1.22,1.22,0,0,0-.19.12c-.37,0-.69-.06-1-.06a9,9,0,0,0-9.14,8.8,9,9,0,0,0,9.14,8.8,9.19,9.19,0,0,0,1-.06l.19.13a.9.9,0,0,0,.64.06.85.85,0,0,0,.53-.62.68.68,0,0,0-.2-.64.31.31,0,0,0-.44,0,.3.3,0,0,0,0,.43s0,0,0,.06a.21.21,0,0,1-.14.16.27.27,0,0,1-.16,0,.48.48,0,0,1-.23-.24.62.62,0,0,1,.39-.77.81.81,0,0,1,.63,0,.83.83,0,0,1,.42.48,1.11,1.11,0,0,1-.08.89m18.74,1c-1.5,2.59-5.09,4.3-9.12,4.3s-7.61-1.71-9.12-4.3a1,1,0,0,1,.06-.74v0a1.14,1.14,0,0,1,.65-.57.83.83,0,0,1,1.05.53.61.61,0,0,1-.38.77.46.46,0,0,1-.32,0,.3.3,0,0,1-.13-.11.23.23,0,0,1,.05-.21.08.08,0,0,1,.06,0,.29.29,0,0,0,.35-.24.3.3,0,0,0-.24-.36.69.69,0,0,0-.63.22.84.84,0,0,0-.17.8.79.79,0,0,0,.43.47,1.05,1.05,0,0,0,.43.11C20.36,45.76,23.37,47,26.64,47s6.29-1.21,7.92-3.16A1.14,1.14,0,0,0,35,43.7a.82.82,0,0,0,.43-.47.87.87,0,0,0-.18-.8.68.68,0,0,0-.63-.22.32.32,0,0,0-.24.36.3.3,0,0,0,.36.24.08.08,0,0,1,.06,0,.25.25,0,0,1,0,.21.32.32,0,0,1-.12.11.46.46,0,0,1-.32,0,.62.62,0,0,1-.39-.77.84.84,0,0,1,1.06-.53,1.12,1.12,0,0,1,.64.57s0,0,0,0a1,1,0,0,1,0,.74m-.16-2.1c0,.1-.05.2-.07.3a1.43,1.43,0,0,0-.28-.13,1.45,1.45,0,0,0-1.83.91,1.22,1.22,0,0,0,.49,1.4,10,10,0,0,1-7.27,2.73,10,10,0,0,1-7.26-2.73,1.21,1.21,0,0,0,.48-1.4,1.38,1.38,0,0,0-.3-.51v0a.17.17,0,0,0,0-.07.1.1,0,0,0,0,0A1.45,1.45,0,0,0,18,41.32a1.43,1.43,0,0,0-.28.13,1.09,1.09,0,0,0-.07-.3,1.43,1.43,0,0,0-.72-.84,1.47,1.47,0,0,0-1.11-.08,1.22,1.22,0,0,0-.79,1.43l-.63,0A8.37,8.37,0,0,1,5.9,33.5a8.37,8.37,0,0,1,8.53-8.18l.63,0a1.22,1.22,0,0,0,.79,1.43,1.48,1.48,0,0,0,.46.08A1.51,1.51,0,0,0,17,26.7a1.46,1.46,0,0,0,.72-.84,1.09,1.09,0,0,0,.07-.3,1.39,1.39,0,0,0,.28.12,1.43,1.43,0,0,0,1.11-.07,1.46,1.46,0,0,0,.72-.84,1.21,1.21,0,0,0-.48-1.4,10,10,0,0,1,7.26-2.73,10,10,0,0,1,7.27,2.73,1.22,1.22,0,0,0-.49,1.4,1.43,1.43,0,0,0,1.83.91,1.39,1.39,0,0,0,.28-.12c0,.1,0,.2.07.3a1.43,1.43,0,0,0,1.83.91,1.23,1.23,0,0,0,.8-1.43l.62,0a8.37,8.37,0,0,1,8.54,8.18,7.8,7.8,0,0,1-1,3.86l0,0v.06a7.94,7.94,0,0,1-1.42,1.84h0v0a8.69,8.69,0,0,1-6.06,2.43l-.62,0a1.23,1.23,0,0,0-.8-1.43,1.45,1.45,0,0,0-1.1.08,1.41,1.41,0,0,0-.73.84m11-2.95a1.43,1.43,0,0,0,.49.53,4,4,0,0,1-.29.39.67.67,0,0,1-.2-.18,3.84,3.84,0,0,1-.28-.34c.1-.13.19-.26.28-.4M38.85,43a10.15,10.15,0,0,1-2-.2,1.1,1.1,0,0,1-.6-.53,1.08,1.08,0,0,1-.09-.89.83.83,0,0,1,.42-.48.84.84,0,0,1,.64,0,.61.61,0,0,1,.38.77.45.45,0,0,1-.23.24.27.27,0,0,1-.16,0,.21.21,0,0,1-.13-.16s0-.06,0-.06a.31.31,0,0,0-.41-.46.65.65,0,0,0-.2.64.83.83,0,0,0,.53.62.88.88,0,0,0,.63-.06,1.37,1.37,0,0,0,.2-.13,9,9,0,0,0,1,.06,9.35,9.35,0,0,0,5.91-2.09,1.46,1.46,0,0,0,.25.67A10.07,10.07,0,0,1,38.85,43m6.84-2c-.08,0-.36,0-.63-.5a1.23,1.23,0,0,1-.13-.94,1.72,1.72,0,0,0,.89,1.2s0,.21-.13.24m-.1-.56a.72.72,0,0,1-.22-.24c-.07-.11-.14-.22-.19-.32A8.45,8.45,0,0,0,46,39a1.49,1.49,0,0,0,.35.65,9.63,9.63,0,0,1-.71.72M47,39.68c-.07,0-.35.09-.71-.39a1.23,1.23,0,0,1-.26-.91s.32.89,1.06,1c0,0,0,.21-.09.25m.78-1.11c-.06.06-.31.18-.79-.18a1.28,1.28,0,0,1-.52-.79,1.75,1.75,0,0,0,1.32.7s.05.21,0,.27m-.34-.46a.67.67,0,0,1-.29-.12,3,3,0,0,1-.32-.21,8.66,8.66,0,0,0,.52-1.06A1.81,1.81,0,0,0,48,37a8.55,8.55,0,0,1-.55,1.09m.73-1.32a1.42,1.42,0,0,1-1-.38,2,2,0,0,0,1.65-.23s.19.16.17.25-.16.37-.83.36m1.09-13.51c0,.93-.4,1.69-.5,2.88-.07.84-.14,1.92-.26,2.49a10.8,10.8,0,0,0-1.82-2.43.29.29,0,0,1,.12-.09c.32-.16.88.74.88.74s.07.26.07-.82a2.53,2.53,0,0,0-.51-1.64s-.12,0,.21-.41.7-.22.86-.49-.18-.74.14-.82.59-.93.59-.93c.45-.16.24.6.22,1.52m.85,3.85c-.35.41-.3,0-.3,0s0-1,0-1.88h0c0-.25.54-.8.62-.47v0a3.57,3.57,0,0,1-.3,2.31m.78-5.29c-.06.35-.51.59-.35.26h0a.47.47,0,0,0,.09-.35.59.59,0,0,1,0-.45.39.39,0,0,0-.24-.45c-.17,0-.2-.08-.12-.2a.21.21,0,0,0-.1-.32.46.46,0,0,0-.38-.08c-.16.06-.07.32,0,.4s.22.1.24.23-.19.34-.08.44.42.18.34.36-.28.23-.34.41.16.25.19.41-.15.43-.24.57.06.19.19.29.21-.12.25-.25a2.73,2.73,0,0,0,.14-.36h0c.05-.17.25-.35.23-.23-.08.34-.16.66-.23.94h0c-.06.28-.21.2-.29.4s.05.36-.15.56c-.06,0-.33.27-.32-.09s0-.43,0-.56c0-.61,0-1.33,0-1.72h0c0-.11.09-.19.07-.31s-.12-.11-.14-.19h0a1.8,1.8,0,0,0-.09-.28h0c0-.13.27-.24.17-.39s-.35-.06-.4-.19h0c-.06-.14-.12-.29-.19-.43h0c-.05-.14,0-.25.16-.4s.09-.27.22-.35,0-.25-.15-.25-.09,0-.16.09-.09.37-.15.37-.16,0-.25-.08h0l0,0h0c-.1-.17-.07-.39-.15-.57s-.23-.09-.45-.3h0a3,3,0,0,0-.38-.4h0a.29.29,0,0,1,0-.48c.17-.11.06-.37,0-.4a.3.3,0,0,0-.36.17c-.08.2,0,.47-.24.6h0a.92.92,0,0,0-.47.64,6,6,0,0,1-.43,1c-.18.26-.8.23-.58-.48a2.09,2.09,0,0,1,.63-1.05,10.13,10.13,0,0,0,1-1c.09-.16.2-.34.28-.49a.42.42,0,0,1,.52-.17l.23.11c.24.18-.23.63-.19.89s0,.81.34.85.26.27.47.49.64.22.73.05-.21-.58-.39-.49-.3,0-.17-.18.13-.45-.08-.36-.56,0-.43-.27a.39.39,0,0,1,.62-.1,2.85,2.85,0,0,1,.78,1.24c0,.07.05.16.08.24s-.11.5-.32.5-.23.25-.18.33.34.12.44,0,.23-.2.33,0h0a2.74,2.74,0,0,0,.19.44h0c.07.13-.11.2-.11.33s.28,0,.34.22a2.84,2.84,0,0,1,0,.94"/><path class="cls-1" d="M37.59,39.77A1.69,1.69,0,0,1,38.71,41a.25.25,0,0,0,.25.19,7.88,7.88,0,0,0,7.94-7.7A7.87,7.87,0,0,0,39,25.81a.23.23,0,0,0-.25.19,1.73,1.73,0,0,1-1.12,1.24,2.17,2.17,0,0,1-.62.1,2,2,0,0,1-1.76-1.14,2,2,0,0,1-.42.05A2,2,0,0,1,33,24.93a1.69,1.69,0,0,1,.14-1.39.24.24,0,0,0,0-.31,10.09,10.09,0,0,0-6.42-2.1,10.06,10.06,0,0,0-6.41,2.1.24.24,0,0,0,0,.31,1.72,1.72,0,0,1,.14,1.39,1.93,1.93,0,0,1-1,1.11,1.89,1.89,0,0,1-.87.21,2,2,0,0,1-.42-.05,1.87,1.87,0,0,1-.89.93,1.89,1.89,0,0,1-.87.21,2.11,2.11,0,0,1-.61-.1A1.73,1.73,0,0,1,14.58,26a.24.24,0,0,0-.25-.19A7.87,7.87,0,0,0,6.39,33.5a7.88,7.88,0,0,0,7.94,7.7.27.27,0,0,0,.25-.19,1.69,1.69,0,0,1,1.12-1.24,1.81,1.81,0,0,1,.61-.1,2,2,0,0,1,.87.2,1.91,1.91,0,0,1,.89.93,2,2,0,0,1,.42,0,1.94,1.94,0,0,1,1.84,1.32,1.7,1.7,0,0,1-.14,1.38.25.25,0,0,0,0,.31,10.05,10.05,0,0,0,6.42,2.1,10,10,0,0,0,6.42-2.1.24.24,0,0,0,0-.31A1.66,1.66,0,0,1,33,42.08a1.92,1.92,0,0,1,1.83-1.32,2,2,0,0,1,.42,0,1.93,1.93,0,0,1,.9-.93,2,2,0,0,1,.86-.2,1.87,1.87,0,0,1,.62.1"/><path class="cls-2" d="M26.24,35.87a2,2,0,0,1-1.15,1.22.86.86,0,0,1-.48.07,1.78,1.78,0,0,1-.5-.14,6.81,6.81,0,0,0-1.41-.35q-.91-.14-2.52-.27a.5.5,0,0,0-.39.09c-.09.08-.12.23-.11.47a2.48,2.48,0,0,1-.1,1,.74.74,0,0,1-.59.34c-.34.07-.56,0-.65-.14a1.79,1.79,0,0,1-.09-1,.89.89,0,0,0-.14-.65.58.58,0,0,0-.48-.18L16,36.44c-.52,0-1,.09-1.43.15s-.83.13-1.17.2a4.31,4.31,0,0,0-.75.21c-.36.17-.61.18-.75.06s-.15-.34,0-.64a1.34,1.34,0,0,1,.46-.67.52.52,0,0,1,.46-.07.93.93,0,0,0,.35.1,2.28,2.28,0,0,0,.43,0c.38,0,.94-.09,1.67-.13s1.53-.06,2.43-.07a.67.67,0,0,0,.38-.08.39.39,0,0,0,.11-.25c0-.09,0-.14,0-.16a.23.23,0,0,0-.13,0l-1.82.05-1.08,0a4.89,4.89,0,0,0-.56,0l-.23,0a.26.26,0,0,1-.29,0,.22.22,0,0,1-.13-.23.94.94,0,0,1,.2-.47.35.35,0,0,1,.19-.12.45.45,0,0,1,.2,0,.67.67,0,0,0,.22,0,3.3,3.3,0,0,0,.39,0c.1,0,.15-.06.14-.14s0-.21-.06-.29,0-.17,0-.26,0-.1-.15-.09a5,5,0,0,0-.84.11,4.58,4.58,0,0,0-.68.21.36.36,0,0,1-.29,0,.27.27,0,0,1-.14-.22.68.68,0,0,1,.09-.41,1.84,1.84,0,0,1,.42-.52.33.33,0,0,1,.4-.08.82.82,0,0,0,.31.08,3.48,3.48,0,0,0,.46,0h.13l.14,0c.08,0,.13,0,.14-.1a.68.68,0,0,1,.22-.48A.85.85,0,0,1,15.8,32a.51.51,0,0,1,.38.1,1,1,0,0,1,.28.53c0,.08.08.12.14.12h1.59s.09,0,.1,0,0,0,0-.12V32c0-.07,0-.11-.15-.11-.9,0-1.63,0-2.18.05a5.86,5.86,0,0,0-1.24.16.35.35,0,0,1-.32,0,.24.24,0,0,1-.1-.23.89.89,0,0,1,.27-.56.51.51,0,0,1,.23-.17.24.24,0,0,1,.23,0,.78.78,0,0,0,.3.1,1.42,1.42,0,0,0,.41,0l.22,0h.3q.12,0,0-.06a.51.51,0,0,1-.19-.22,1.09,1.09,0,0,1-.1-.32.16.16,0,0,0-.07-.07.43.43,0,0,0-.22,0l-.75.05-.55.07a2.83,2.83,0,0,0-.44.12l-.39.14a.29.29,0,0,1-.35-.07.44.44,0,0,1-.08-.43,1,1,0,0,1,.15-.33,1.65,1.65,0,0,1,.35-.35.37.37,0,0,1,.38-.07.88.88,0,0,0,.3.07h1.38a.22.22,0,0,0,.16-.05.46.46,0,0,0,0-.2.83.83,0,0,1,.21-.56,1,1,0,0,1,1.08,0,.94.94,0,0,1,.21.56.46.46,0,0,0,.07.23.22.22,0,0,0,.16.05h2.71a.16.16,0,0,0,.12,0,.54.54,0,0,0,.07-.19,1.11,1.11,0,0,1,.2-.55.77.77,0,0,1,.49-.18.66.66,0,0,1,.82.7.66.66,0,0,0,.05.23s.07.05.15.05h1.08a3.93,3.93,0,0,1,.7,0,.47.47,0,0,1,.28.1.29.29,0,0,1,.06.25.52.52,0,0,1-.12.33.28.28,0,0,1-.25.07c-.23,0-.5,0-.81,0l-1.07,0c-.13,0-.19,0-.2.11a.9.9,0,0,1-.21.43.73.73,0,0,1-.48.12.56.56,0,0,1-.44-.09.62.62,0,0,1-.15-.44c0-.09-.07-.14-.21-.14h-3a.2.2,0,0,0-.2.13.88.88,0,0,1-.34.53.09.09,0,0,0,0,.06s0,0,.06,0H22.5l.49,0,.33,0a.47.47,0,0,1,.26.08.51.51,0,0,1,.08.27.41.41,0,0,1-.05.23.33.33,0,0,1-.27,0c-.37,0-.86,0-1.47,0h-2c-.11,0-.17,0-.17.12v.69c0,.07.06.11.17.11H21.2c.11,0,.16,0,.16-.09a.85.85,0,0,1,.19-.56.72.72,0,0,1,.46-.18.54.54,0,0,1,.47.14,1,1,0,0,1,.2.57c0,.09.07.13.17.13l.87,0,.59,0a.26.26,0,0,1,.19.08.4.4,0,0,1,0,.27.42.42,0,0,1-.18.31.9.9,0,0,1-.51.06l-.51,0-.57,0c-.09,0-.14,0-.15.11a2.92,2.92,0,0,1-.15.66c0,.09,0,.14.07.14h.4l.25,0a.5.5,0,0,1,.26.08.38.38,0,0,1,.07.27.34.34,0,0,1-.05.23.32.32,0,0,1-.25.05c-.36,0-.83,0-1.41,0s-1.21,0-1.89,0q-.15,0-.15.12a.34.34,0,0,0,.38.37h.52l.79,0,.85,0,.75,0,.89,0h2.13c.17,0,.22,0,.16.23m-7.94-2.3c0-.07-.05-.11-.15-.11l-.8,0h-.72a.24.24,0,0,0-.15,0,.27.27,0,0,0-.05.13c0,.08,0,.17-.05.27a2.06,2.06,0,0,1-.07.29c0,.1,0,.14.07.14h1.75a.29.29,0,0,0,.12,0,.22.22,0,0,0,0-.1c0-.11,0-.22,0-.33s0-.22,0-.33m3.23.71c0-.12-.05-.23-.07-.34s0-.23-.05-.35a.11.11,0,0,0-.12-.11l-.72,0h-.72c-.09,0-.13,0-.13.13a2.48,2.48,0,0,1,0,.29v.37c0,.08.06.12.17.12h1.5c.1,0,.14,0,.12-.1"/><path class="cls-2" d="M41.37,35.91a2,2,0,0,1-.46.41,2.31,2.31,0,0,1-.75.28,2.06,2.06,0,0,1-.32.07,2.85,2.85,0,0,1-.4,0l-.64-.09-1-.2-.56-.09-.88-.09c-.06,0-.09,0-.1,0s0,0,.09.06l.22.08.3.13a4.44,4.44,0,0,0,.43.16c.21.08.47.16.76.24l.36.12.43.17.39.18.28.16c.27.16.35.29.24.4s-.47.1-1.1,0l-.45-.08-.3-.06-.2-.05-.15-.06a.23.23,0,0,0-.2,0,7.81,7.81,0,0,1-1.08.42,3.9,3.9,0,0,1-.94.18,5.26,5.26,0,0,1-1,0Q33.75,38.13,33,38a4.57,4.57,0,0,0-1-.12,10.1,10.1,0,0,0-1.11.1,1.27,1.27,0,0,1-.76-.05.48.48,0,0,1-.26-.35.42.42,0,0,1,.17-.43,2.3,2.3,0,0,1,1-.26,5.93,5.93,0,0,0,1.29-.23,1.87,1.87,0,0,0,.68-.39s0-.06-.07-.06c-.3,0-.58,0-.84,0l-.68,0a11.58,11.58,0,0,0-1.71.19,10.52,10.52,0,0,0-1.35.36,1.3,1.3,0,0,1-.54.1.6.6,0,0,1-.35-.15c-.17-.15-.18-.3,0-.44A2.52,2.52,0,0,1,27.8,36a2.28,2.28,0,0,1,.57-.25,1.56,1.56,0,0,1,.5-.12,3.56,3.56,0,0,1,.52,0,2.31,2.31,0,0,0,.45,0c.19,0,.4,0,.61,0l.64,0,.55,0c.61,0,1.22-.07,1.85-.09s1.35,0,2.17,0l1.65,0H41c.21,0,.34,0,.4.09s0,.16-.05.27m-9.94-5.2a1.3,1.3,0,0,0-.18-.34.21.21,0,0,0-.17-.06c-.64,0-1.11.06-1.42.09a3.37,3.37,0,0,0-.73.14,1.28,1.28,0,0,1-.47.11.27.27,0,0,1-.22-.11.38.38,0,0,1-.07-.33,1.75,1.75,0,0,1,.46-.52,1.1,1.1,0,0,1,.47-.24.78.78,0,0,1,.45,0,1.61,1.61,0,0,0,.49.1c.23,0,.58,0,1,0a.35.35,0,0,0,.16,0,.26.26,0,0,0,.08-.15c0-.08,0-.16.06-.22a.36.36,0,0,1,.07-.18.4.4,0,0,1,.22-.17,1.2,1.2,0,0,1,.35-.08,1.23,1.23,0,0,1,.38,0,.88.88,0,0,1,.33.18.65.65,0,0,1,.19.38c0,.13.1.2.21.2h1.3l1.52,0a.25.25,0,0,0,.15-.05.41.41,0,0,0,.09-.22,1,1,0,0,1,.05-.2l.06-.17a.42.42,0,0,1,.23-.17.9.9,0,0,1,.37-.05,1.34,1.34,0,0,1,.39.07.77.77,0,0,1,.31.21,1.27,1.27,0,0,1,.16.38.34.34,0,0,0,.09.19.43.43,0,0,0,.23,0l1.41.05.67,0c.23,0,.36.08.4.19s0,.23-.15.37a.42.42,0,0,1-.26.1,4.89,4.89,0,0,1-.65,0H37.86a.22.22,0,0,0-.15.08,3.14,3.14,0,0,0-.29.37.56.56,0,0,1-.26.2c-.09,0-.13.07-.11.13a.8.8,0,0,1,.05.26c0,.07,0,.1.15.1h.4a.29.29,0,0,0,.25-.06,1,1,0,0,1,.43-.1,1.34,1.34,0,0,1,.52.1c.2.08.31.18.33.28s0,.26-.21.44a1.12,1.12,0,0,0-.24.54,1.24,1.24,0,0,0,0,.58.45.45,0,0,0,.22.29,1.83,1.83,0,0,0,.64.09,1.34,1.34,0,0,0,.53-.08,1.6,1.6,0,0,0,.53-.39c.15-.17.28-.22.37-.16s.12.19.06.4a5.61,5.61,0,0,1-.31.8,2.5,2.5,0,0,1-.31.48,1,1,0,0,1-.34.25,1.55,1.55,0,0,1-.36.08h-.39l-.3,0a1.08,1.08,0,0,1-.28-.11,2.08,2.08,0,0,1-.33-.2,1.54,1.54,0,0,1-.78-1.25,5.53,5.53,0,0,1,0-.61,3.84,3.84,0,0,1,.06-.57c0-.18,0-.27-.19-.28h-.16l-.2,0c-.11,0-.17,0-.19.07a1.4,1.4,0,0,1-.07.33,2.28,2.28,0,0,1-.11.29.45.45,0,0,0-.06.24c0,.05.08.1.2.14a1,1,0,0,1,.46.29.18.18,0,0,1,0,.26.86.86,0,0,1-.34.19.53.53,0,0,1-.39,0l-.16-.08-.13-.08c-.1-.07-.18-.07-.23,0a2.94,2.94,0,0,1-.38.44,2.78,2.78,0,0,1-.43.31,1,1,0,0,1-.51.16,1.51,1.51,0,0,1-.61-.24q-.18-.1-.18-.21a.15.15,0,0,1,.13-.14l.37-.14a1.83,1.83,0,0,0,.28-.14,2.2,2.2,0,0,0,.25-.17,3.59,3.59,0,0,0,.25-.27c.08-.09.08-.17,0-.22a.76.76,0,0,1-.32-.28.23.23,0,0,1,0-.21s.12-.06.26-.07a.87.87,0,0,1,.4.06.14.14,0,0,0,.16,0,.29.29,0,0,0,.07-.22c0-.09,0-.13-.12-.11l-.38,0a2.5,2.5,0,0,0-.4.05l-.16,0a.43.43,0,0,0-.16.07.49.49,0,0,1-.29.08h-.56q-.12,0,0,.09a1.07,1.07,0,0,0,.48.32c.14.06.21.12.2.2s-.07.14-.19.16a1.1,1.1,0,0,1-.43,0,2.2,2.2,0,0,1-.45-.17,1.54,1.54,0,0,1-.35-.24c-.1-.09-.15-.16-.15-.22s0-.09-.12-.09H31.15c-.06,0-.08,0-.07.06a.31.31,0,0,1,0,.28.87.87,0,0,1-.31.25,3.63,3.63,0,0,1-.68.3c-.26.1-.53.18-.81.26a3.12,3.12,0,0,1-.64.11.36.36,0,0,1-.28-.07c-.12-.1-.11-.18.05-.24s.58-.23.85-.36a7,7,0,0,0,.73-.44s0,0,0-.06-.05,0-.1,0a3.29,3.29,0,0,0-.43.09,2.26,2.26,0,0,0-.35.1.39.39,0,0,1-.28,0,.26.26,0,0,1-.16-.15.32.32,0,0,1,.14-.42,1.66,1.66,0,0,1,.45-.17.75.75,0,0,1,.42,0,1.08,1.08,0,0,0,.32,0l.49,0h.66c.15,0,.23-.05.23-.17a.13.13,0,0,0-.05-.11.79.79,0,0,0-.29-.06h-.26l-.35,0-.36,0-.28,0c-.18,0-.28,0-.32-.1s0-.21.21-.36A.8.8,0,0,1,30.1,31a1.13,1.13,0,0,1,.46,0,1.63,1.63,0,0,0,.33.06l.39,0c.11,0,.15,0,.13-.12s0-.11,0-.14a.13.13,0,0,0,0-.18m2.33,3.57-.38,0-.46.05-.46,0-.39,0-.82.07c-.28,0-.56,0-.83.07a3.17,3.17,0,0,0-1,.22c-.25.09-.42.07-.5,0s0-.27.15-.45a.8.8,0,0,1,.41-.23.86.86,0,0,1,.45,0,.41.41,0,0,0,.2,0l.44,0h.25l.29,0q.23,0,.24-.24a.07.07,0,0,0-.05-.08,1.1,1.1,0,0,0-.28-.06,1.79,1.79,0,0,0-.39,0l-.44.06c-.14,0-.23,0-.27-.08s0-.19.19-.3a1.07,1.07,0,0,1,.32-.12.7.7,0,0,1,.31,0l.2,0h.26c.1,0,.15,0,.14-.13s0-.34.1-.43a1.09,1.09,0,0,1,.73,0,.78.78,0,0,1,.38.12c.05.05.05.16,0,.34s0,.13.1.13h.84a1.73,1.73,0,0,1,.53.07s.06.07,0,.13a.54.54,0,0,1-.47.2h-.89c-.14,0-.22,0-.24.13s0,.2.21.18l.49,0h.63c.13,0,.2,0,.2.15s-.07.16-.2.18m4.47.72c0,.07-.06.12-.15.16a1.38,1.38,0,0,1-.51.07H33.48c-.64,0-1.14,0-1.5.07s-.62,0-.8.08a2.37,2.37,0,0,1-.64.06.63.63,0,0,1-.34-.15.18.18,0,0,1-.05-.24.83.83,0,0,1,.42-.26,1.79,1.79,0,0,1,1.18-.1l.13,0h5.4a4.74,4.74,0,0,1,.51,0c.31,0,.46.12.44.28m-2-4.45a.82.82,0,0,0-.13-.23.17.17,0,0,0-.12,0l-1.37-.05c-.44,0-.92,0-1.44,0a.26.26,0,0,0-.18.08,2.39,2.39,0,0,0-.32.41.41.41,0,0,0,0,.27c0,.09.07.14.11.14h1a.9.9,0,0,1,.5.11.16.16,0,0,1,0,.21.36.36,0,0,1-.17.16.76.76,0,0,1-.31,0h-1c-.15,0-.23,0-.25.12s.07.16.23.16h1.55a.23.23,0,0,0,.18-.09.84.84,0,0,1,.37-.29.73.73,0,0,1,.37,0h.57c.15,0,.22,0,.2-.12a1.21,1.21,0,0,0-.1-.29.3.3,0,0,1,0-.22.26.26,0,0,1,.22-.16c.08,0,.1-.09.06-.19m.18,6.57c.06,0,0-.08,0-.12l-.43-.12-.46-.09c-.24,0-.37-.14-.39-.25s0-.22.19-.3.1-.1,0-.1h-.42a.42.42,0,0,0-.16,0s0,0,0,.09a.14.14,0,0,1-.06.12.89.89,0,0,1-.29.13,6.57,6.57,0,0,0-.63.23,2,2,0,0,0-.32.18.76.76,0,0,0-.23.18s0,.06.06.08a2.93,2.93,0,0,0,.71.14c.31,0,.64,0,1,0s.64,0,.93-.06a1.61,1.61,0,0,0,.62-.17"/></svg>