<svg id="圖層_1" data-name="圖層 1" xmlns="http://www.w3.org/2000/svg" viewBox="0 0 49.91 14.54"><defs><style>.cls-1{fill:#394653;}</style></defs><title>工作區域 1</title><g id="pHbvqc.tif"><path class="cls-1" d="M12.87,4l-2.38-.09-.08,10.48H6.47L6.4,4,4,3.93,4,14.41H0v-12a1,1,0,0,1,.09-.32,1.59,1.59,0,0,1,.13-.22A3.33,3.33,0,0,1,2.38.14,2.15,2.15,0,0,1,3,.07c2.32,0,4.65,0,7,0,1.34,0,2.69,0,4,.08A2.9,2.9,0,0,1,16.71,2a2.72,2.72,0,0,1,.18.9c0,.73.05,1.46,0,2.2,0,3,0,6.07-.05,9.1v.24H12.93Z"/><path class="cls-1" d="M19.33,0h.22L28.9,0a8.28,8.28,0,0,1,2.57.28A3.45,3.45,0,0,1,33.82,2.4a2.93,2.93,0,0,1-1.68,3.71c-.58.2-1.18.37-1.76.55l-.15.06c.55.11,1.09.19,1.62.33a4.28,4.28,0,0,1,2.07,1.18,3.52,3.52,0,0,1-1.14,5.5,7.52,7.52,0,0,1-2.75.64c-3.53.2-7.07.12-10.6.13h-.1ZM29.56,10.55V4H23.44v6.6Z"/><path class="cls-1" d="M49.9,3.94H40.32v6.62h9.59v4h-.24l-9.39-.13a8,8,0,0,1-1.76-.14,2.79,2.79,0,0,1-2.35-2.66c-.07-1.2-.1-2.41-.11-3.62,0-1.84,0-3.68.06-5.52a1,1,0,0,1,.09-.34,3.69,3.69,0,0,1,1-1.35,3.46,3.46,0,0,1,2-.72c2.7,0,5.4,0,8.1,0H49.9Z"/></g></svg>